M48
; DRILL file KiCad 10.0.4 date 2026-09-03T23:39:00
; FORMAT={-:-/ absolute / metric / decimal}
; #@! TF.CreationDate,2026-09-03T23:39:00+02:00
; #@! TF.GenerationSoftware,Kicad,Pcbnew,10.0.4
; #@! TF.FileFunction,Plated,1,2,PTH
FMAT,2
METRIC
; #@! TA.AperFunction,Plated,PTH,ViaDrill
T1C0.300
; #@! TA.AperFunction,Plated,PTH,ComponentDrill
T2C0.600
; #@! TA.AperFunction,Plated,PTH,ComponentDrill
T3C1.000
; #@! TA.AperFunction,Plated,PTH,ViaDrill
T4C3.000
%
G90
G05
T1
X125.7Y-126.6
X127.9Y-121.9
X127.95Y-120.15
X130.7Y-120.2
X130.7Y-121.9
X133.3Y-106.5
X135.2Y-115.3
X135.3Y-109.4
X138.3Y-119.1
X140.0Y-110.0
X141.0Y-111.0
X141.7Y-110.2
X145.3Y-107.7
X146.4Y-116.3
X149.5Y-124.7
X149.6Y-108.4
X151.7Y-110.5
X154.6Y-123.2
X154.7Y-114.9
X154.7Y-116.8
X156.2Y-121.6
X158.3Y-123.5
X164.9Y-126.812
T3
X124.75Y-102.75
X124.75Y-107.25
X129.36Y-131.6
X131.25Y-102.75
X131.25Y-107.25
X131.9Y-131.6
X135.24Y-102.85
X137.78Y-102.85
X137.78Y-131.4
X140.32Y-102.85
X140.32Y-131.4
X142.86Y-102.85
X142.86Y-131.4
X145.4Y-102.85
X145.4Y-131.4
X150.66Y-131.2
X150.91Y-102.95
X153.2Y-131.2
X153.45Y-102.95
X155.74Y-131.2
X155.99Y-102.95
X159.55Y-104.65
X159.55Y-109.15
X166.05Y-104.65
X166.05Y-109.15
T4
X119.0Y-101.0
X119.0Y-131.0
X166.0Y-101.0
X166.0Y-131.0
T2
G00X161.225Y-111.53
M15
G01X162.325Y-111.53
M16
G05
G00X161.225Y-120.17
M15
G01X162.325Y-120.17
M16
G05
G00X165.555Y-111.53
M15
G01X166.355Y-111.53
M16
G05
G00X165.555Y-120.17
M15
G01X166.355Y-120.17
M16
G05
M30
