%TF.GenerationSoftware,KiCad,Pcbnew,10.0.4*%
%TF.CreationDate,2026-09-03T23:38:23+02:00*%
%TF.ProjectId,1STM,3153544d-2e6b-4696-9361-645f70636258,rev?*%
%TF.SameCoordinates,Original*%
%TF.FileFunction,Copper,L2,Bot*%
%TF.FilePolarity,Positive*%
%FSLAX46Y46*%
G04 Gerber Fmt 4.6, Leading zero omitted, Abs format (unit mm)*
G04 Created by KiCad (PCBNEW 10.0.4) date 2026-09-03 23:38:23*
%MOMM*%
%LPD*%
G01*
G04 APERTURE LIST*
%TA.AperFunction,ComponentPad*%
%ADD10R,1.700000X1.700000*%
%TD*%
%TA.AperFunction,ComponentPad*%
%ADD11C,1.700000*%
%TD*%
%TA.AperFunction,ComponentPad*%
%ADD12O,2.100000X1.000000*%
%TD*%
%TA.AperFunction,ComponentPad*%
%ADD13O,1.800000X1.000000*%
%TD*%
%TA.AperFunction,ViaPad*%
%ADD14C,5.000000*%
%TD*%
%TA.AperFunction,ViaPad*%
%ADD15C,0.700000*%
%TD*%
%TA.AperFunction,Conductor*%
%ADD16C,0.300000*%
%TD*%
%TA.AperFunction,Conductor*%
%ADD17C,0.200000*%
%TD*%
%TA.AperFunction,Conductor*%
%ADD18C,0.500000*%
%TD*%
G04 APERTURE END LIST*
D10*
%TO.P,J4,1,Pin_1_1*%
%TO.N,/I2S2_CK*%
X150660000Y-131200000D03*
D11*
%TO.P,J4,2,Pin_2_2*%
%TO.N,/I2S2_WS*%
X153200000Y-131200000D03*
%TO.P,J4,3,Pin_3_3*%
%TO.N,/I2S2_SD*%
X155740000Y-131200000D03*
%TD*%
D10*
%TO.P,J3,1,Pin_1_1*%
%TO.N,/SPI1_SCK*%
X145400000Y-131400000D03*
D11*
%TO.P,J3,2,Pin_2_2*%
%TO.N,SPI1_MOSI*%
X142860000Y-131400000D03*
%TO.P,J3,3,Pin_3_3*%
%TO.N,SPI1_MISO*%
X140320000Y-131400000D03*
%TO.P,J3,4,Pin_4_4*%
%TO.N,/SPI1_NSS*%
X137780000Y-131400000D03*
%TD*%
%TO.P,SW1,1,1_1*%
%TO.N,NRST*%
X124750000Y-102750000D03*
X131250000Y-102750000D03*
%TO.P,SW1,2,2_2*%
%TO.N,GND*%
X124750000Y-107250000D03*
X131250000Y-107250000D03*
%TD*%
D10*
%TO.P,J2,1,Pin_1_1*%
%TO.N,+3.3V*%
X145400000Y-102850000D03*
D11*
%TO.P,J2,2,Pin_2_2*%
%TO.N,/SWDIO*%
X142860000Y-102850000D03*
%TO.P,J2,3,Pin_3_3*%
%TO.N,GND*%
X140320000Y-102850000D03*
%TO.P,J2,4,Pin_4_4*%
%TO.N,/SWCLK*%
X137780000Y-102850000D03*
%TO.P,J2,5,Pin_5_5*%
%TO.N,NRST*%
X135240000Y-102850000D03*
%TD*%
D10*
%TO.P,J5,1,Pin_1_1*%
%TO.N,/I2S3_CK*%
X155990000Y-102950000D03*
D11*
%TO.P,J5,2,Pin_2_2*%
%TO.N,I2S3_WS*%
X153450000Y-102950000D03*
%TO.P,J5,3,Pin_3_3*%
%TO.N,/I2S3_SD*%
X150910000Y-102950000D03*
%TD*%
D12*
%TO.P,J1,SH,SHIELD_SH*%
%TO.N,GND*%
X161775000Y-120170000D03*
D13*
X165955000Y-120170000D03*
D12*
X161775000Y-111530000D03*
D13*
X165955000Y-111530000D03*
%TD*%
D10*
%TO.P,J6,1,Pin_1_1*%
%TO.N,/GPIO (IRQ)*%
X129360000Y-131600000D03*
D11*
%TO.P,J6,2,Pin_2_2*%
%TO.N,/GPIO (CE)*%
X131900000Y-131600000D03*
%TD*%
%TO.P,SW2,1,1_1*%
%TO.N,Net-(R7-Pad2)*%
X166050000Y-109150000D03*
X159550000Y-109150000D03*
%TO.P,SW2,2,2_2*%
%TO.N,GND*%
X166050000Y-104650000D03*
X159550000Y-104650000D03*
%TD*%
D14*
%TO.N,*%
X119000000Y-131000000D03*
X119000000Y-101000000D03*
X166000000Y-101000000D03*
X166000000Y-131000000D03*
D15*
%TO.N,GND*%
X135200000Y-115300000D03*
X158300000Y-123500000D03*
X141700000Y-110200000D03*
X138300000Y-119100000D03*
X125700000Y-126600000D03*
X149500000Y-124700000D03*
X164900000Y-126812500D03*
X145300000Y-107700000D03*
X146400000Y-116300000D03*
%TO.N,NRST*%
X135300000Y-109400000D03*
X130700000Y-120200000D03*
X133300000Y-106500000D03*
X127950000Y-120150000D03*
%TO.N,+3.3V*%
X149600000Y-108400000D03*
X140000000Y-110000000D03*
X127900000Y-121900000D03*
X130700000Y-121900000D03*
X154600000Y-123200000D03*
X156200000Y-121600000D03*
X151700000Y-110500000D03*
X141000000Y-111000000D03*
%TO.N,USR_SW*%
X154700000Y-114900000D03*
X154700000Y-116800000D03*
%TD*%
%TO.N,NRST*%
D16*
X135300000Y-109400000D02*
X135300000Y-108500000D01*
X131250000Y-102750000D02*
X135140000Y-102750000D01*
D17*
X127950000Y-120150000D02*
X130650000Y-120150000D01*
D16*
X135300000Y-108500000D02*
X133300000Y-106500000D01*
D17*
X135140000Y-102750000D02*
X135240000Y-102850000D01*
X130650000Y-120150000D02*
X130700000Y-120200000D01*
%TO.N,+3.3V*%
D18*
X140000000Y-110000000D02*
X141000000Y-111000000D01*
X149600000Y-108400000D02*
X151700000Y-110500000D01*
X127900000Y-121900000D02*
X130700000Y-121900000D01*
X156200000Y-121600000D02*
X154600000Y-123200000D01*
%TO.N,USR_SW*%
D16*
X154700000Y-116800000D02*
X154700000Y-114900000D01*
%TD*%
%TA.AperFunction,Conductor*%
%TO.N,GND*%
G36*
X164160536Y-98419685D02*
G01*
X164206291Y-98472489D01*
X164216235Y-98541647D01*
X164187210Y-98605203D01*
X164170810Y-98620947D01*
X163997477Y-98759174D01*
X163759174Y-98997477D01*
X163549053Y-99260962D01*
X163369752Y-99546316D01*
X163223532Y-99849945D01*
X163112227Y-100168034D01*
X163112223Y-100168046D01*
X163037233Y-100496602D01*
X163037231Y-100496618D01*
X162999500Y-100831491D01*
X162999500Y-101168508D01*
X163037231Y-101503381D01*
X163037233Y-101503397D01*
X163112223Y-101831953D01*
X163112227Y-101831965D01*
X163223532Y-102150054D01*
X163369752Y-102453683D01*
X163369754Y-102453686D01*
X163549054Y-102739039D01*
X163759175Y-103002523D01*
X163997477Y-103240825D01*
X164260961Y-103450946D01*
X164546314Y-103630246D01*
X164849949Y-103776469D01*
X165088848Y-103860063D01*
X165168034Y-103887772D01*
X165168046Y-103887776D01*
X165496606Y-103962767D01*
X165831492Y-104000499D01*
X165831493Y-104000500D01*
X165831496Y-104000500D01*
X166168507Y-104000500D01*
X166168507Y-104000499D01*
X166503394Y-103962767D01*
X166831954Y-103887776D01*
X167150051Y-103776469D01*
X167453686Y-103630246D01*
X167739039Y-103450946D01*
X168002523Y-103240825D01*
X168240825Y-103002523D01*
X168379053Y-102829189D01*
X168436241Y-102789050D01*
X168506053Y-102786200D01*
X168566323Y-102821545D01*
X168597916Y-102883864D01*
X168600000Y-102906503D01*
X168600000Y-129093496D01*
X168580315Y-129160535D01*
X168527511Y-129206290D01*
X168458353Y-129216234D01*
X168394797Y-129187209D01*
X168379053Y-129170809D01*
X168240825Y-128997477D01*
X168002522Y-128759174D01*
X167935606Y-128705811D01*
X167739039Y-128549054D01*
X167453686Y-128369754D01*
X167453683Y-128369752D01*
X167150054Y-128223532D01*
X166831965Y-128112227D01*
X166831953Y-128112223D01*
X166503397Y-128037233D01*
X166503381Y-128037231D01*
X166168508Y-127999500D01*
X166168504Y-127999500D01*
X165831496Y-127999500D01*
X165831491Y-127999500D01*
X165496618Y-128037231D01*
X165496602Y-128037233D01*
X165168046Y-128112223D01*
X165168034Y-128112227D01*
X164849945Y-128223532D01*
X164546316Y-128369752D01*
X164260962Y-128549053D01*
X163997477Y-128759174D01*
X163759174Y-128997477D01*
X163549053Y-129260962D01*
X163369752Y-129546316D01*
X163223532Y-129849945D01*
X163112227Y-130168034D01*
X163112223Y-130168046D01*
X163037233Y-130496602D01*
X163037231Y-130496618D01*
X162999500Y-130831491D01*
X162999500Y-131168508D01*
X163037231Y-131503381D01*
X163037233Y-131503397D01*
X163112223Y-131831953D01*
X163112227Y-131831965D01*
X163223532Y-132150054D01*
X163369752Y-132453683D01*
X163401987Y-132504984D01*
X163549054Y-132739039D01*
X163638784Y-132851557D01*
X163717686Y-132950498D01*
X163759175Y-133002523D01*
X163997477Y-133240825D01*
X164260961Y-133450946D01*
X164546314Y-133630246D01*
X164546319Y-133630249D01*
X164616985Y-133664280D01*
X164668845Y-133711102D01*
X164687158Y-133778529D01*
X164666110Y-133845153D01*
X164612384Y-133889822D01*
X164563184Y-133900000D01*
X120436816Y-133900000D01*
X120369777Y-133880315D01*
X120324022Y-133827511D01*
X120314078Y-133758353D01*
X120343103Y-133694797D01*
X120383015Y-133664280D01*
X120453680Y-133630249D01*
X120453680Y-133630248D01*
X120453686Y-133630246D01*
X120739039Y-133450946D01*
X121002523Y-133240825D01*
X121240825Y-133002523D01*
X121450946Y-132739039D01*
X121630246Y-132453686D01*
X121776469Y-132150051D01*
X121887776Y-131831954D01*
X121962767Y-131503394D01*
X122000500Y-131168504D01*
X122000500Y-130831496D01*
X121989067Y-130730024D01*
X121987114Y-130712690D01*
X121987114Y-130712689D01*
X121985925Y-130702135D01*
X128009500Y-130702135D01*
X128009500Y-132497870D01*
X128009501Y-132497876D01*
X128015908Y-132557483D01*
X128066202Y-132692328D01*
X128066206Y-132692335D01*
X128152452Y-132807544D01*
X128152455Y-132807547D01*
X128267664Y-132893793D01*
X128267671Y-132893797D01*
X128402517Y-132944091D01*
X128402516Y-132944091D01*
X128409444Y-132944835D01*
X128462127Y-132950500D01*
X130257872Y-132950499D01*
X130317483Y-132944091D01*
X130452331Y-132893796D01*
X130567546Y-132807546D01*
X130653796Y-132692331D01*
X130702810Y-132560916D01*
X130744681Y-132504984D01*
X130810145Y-132480566D01*
X130878418Y-132495417D01*
X130906673Y-132516569D01*
X131020213Y-132630109D01*
X131192179Y-132755048D01*
X131192181Y-132755049D01*
X131192184Y-132755051D01*
X131381588Y-132851557D01*
X131583757Y-132917246D01*
X131793713Y-132950500D01*
X131793714Y-132950500D01*
X132006286Y-132950500D01*
X132006287Y-132950500D01*
X132216243Y-132917246D01*
X132418412Y-132851557D01*
X132607816Y-132755051D01*
X132629858Y-132739037D01*
X132779786Y-132630109D01*
X132779788Y-132630106D01*
X132779792Y-132630104D01*
X132930104Y-132479792D01*
X132930106Y-132479788D01*
X132930109Y-132479786D01*
X133055048Y-132307820D01*
X133055047Y-132307820D01*
X133055051Y-132307816D01*
X133151557Y-132118412D01*
X133217246Y-131916243D01*
X133250500Y-131706287D01*
X133250500Y-131493713D01*
X133220814Y-131306287D01*
X133218823Y-131293713D01*
X136429500Y-131293713D01*
X136429500Y-131506286D01*
X136446996Y-131616755D01*
X136462754Y-131716243D01*
X136527738Y-131916243D01*
X136528444Y-131918414D01*
X136624951Y-132107820D01*
X136749890Y-132279786D01*
X136900213Y-132430109D01*
X137072179Y-132555048D01*
X137072181Y-132555049D01*
X137072184Y-132555051D01*
X137261588Y-132651557D01*
X137463757Y-132717246D01*
X137673713Y-132750500D01*
X137673714Y-132750500D01*
X137886286Y-132750500D01*
X137886287Y-132750500D01*
X138096243Y-132717246D01*
X138298412Y-132651557D01*
X138487816Y-132555051D01*
X138530073Y-132524350D01*
X138659786Y-132430109D01*
X138659788Y-132430106D01*
X138659792Y-132430104D01*
X138810104Y-132279792D01*
X138810106Y-132279788D01*
X138810109Y-132279786D01*
X138935048Y-132107820D01*
X138935047Y-132107820D01*
X138935051Y-132107816D01*
X138939514Y-132099054D01*
X138987488Y-132048259D01*
X139055308Y-132031463D01*
X139121444Y-132053999D01*
X139160486Y-132099056D01*
X139164951Y-132107820D01*
X139289890Y-132279786D01*
X139440213Y-132430109D01*
X139612179Y-132555048D01*
X139612181Y-132555049D01*
X139612184Y-132555051D01*
X139801588Y-132651557D01*
X140003757Y-132717246D01*
X140213713Y-132750500D01*
X140213714Y-132750500D01*
X140426286Y-132750500D01*
X140426287Y-132750500D01*
X140636243Y-132717246D01*
X140838412Y-132651557D01*
X141027816Y-132555051D01*
X141070073Y-132524350D01*
X141199786Y-132430109D01*
X141199788Y-132430106D01*
X141199792Y-132430104D01*
X141350104Y-132279792D01*
X141350106Y-132279788D01*
X141350109Y-132279786D01*
X141475048Y-132107820D01*
X141475047Y-132107820D01*
X141475051Y-132107816D01*
X141479514Y-132099054D01*
X141527488Y-132048259D01*
X141595308Y-132031463D01*
X141661444Y-132053999D01*
X141700486Y-132099056D01*
X141704951Y-132107820D01*
X141829890Y-132279786D01*
X141980213Y-132430109D01*
X142152179Y-132555048D01*
X142152181Y-132555049D01*
X142152184Y-132555051D01*
X142341588Y-132651557D01*
X142543757Y-132717246D01*
X142753713Y-132750500D01*
X142753714Y-132750500D01*
X142966286Y-132750500D01*
X142966287Y-132750500D01*
X143176243Y-132717246D01*
X143378412Y-132651557D01*
X143567816Y-132555051D01*
X143649896Y-132495417D01*
X143739784Y-132430110D01*
X143739784Y-132430109D01*
X143739792Y-132430104D01*
X143853329Y-132316566D01*
X143914648Y-132283084D01*
X143984340Y-132288068D01*
X144040274Y-132329939D01*
X144057189Y-132360917D01*
X144106202Y-132492328D01*
X144106206Y-132492335D01*
X144192452Y-132607544D01*
X144192455Y-132607547D01*
X144307664Y-132693793D01*
X144307671Y-132693797D01*
X144442517Y-132744091D01*
X144442516Y-132744091D01*
X144449444Y-132744835D01*
X144502127Y-132750500D01*
X146297872Y-132750499D01*
X146357483Y-132744091D01*
X146492331Y-132693796D01*
X146607546Y-132607546D01*
X146693796Y-132492331D01*
X146744091Y-132357483D01*
X146750500Y-132297873D01*
X146750499Y-130502128D01*
X146744353Y-130444951D01*
X146744091Y-130442516D01*
X146706653Y-130342139D01*
X146693797Y-130307671D01*
X146693793Y-130307664D01*
X146689654Y-130302135D01*
X149309500Y-130302135D01*
X149309500Y-132097870D01*
X149309501Y-132097876D01*
X149315908Y-132157483D01*
X149366202Y-132292328D01*
X149366206Y-132292335D01*
X149452452Y-132407544D01*
X149452455Y-132407547D01*
X149567664Y-132493793D01*
X149567671Y-132493797D01*
X149702517Y-132544091D01*
X149702516Y-132544091D01*
X149709444Y-132544835D01*
X149762127Y-132550500D01*
X151557872Y-132550499D01*
X151617483Y-132544091D01*
X151752331Y-132493796D01*
X151867546Y-132407546D01*
X151953796Y-132292331D01*
X152002810Y-132160916D01*
X152044681Y-132104984D01*
X152110145Y-132080566D01*
X152178418Y-132095417D01*
X152206673Y-132116569D01*
X152320213Y-132230109D01*
X152492179Y-132355048D01*
X152492181Y-132355049D01*
X152492184Y-132355051D01*
X152681588Y-132451557D01*
X152883757Y-132517246D01*
X153093713Y-132550500D01*
X153093714Y-132550500D01*
X153306286Y-132550500D01*
X153306287Y-132550500D01*
X153516243Y-132517246D01*
X153718412Y-132451557D01*
X153907816Y-132355051D01*
X153971060Y-132309102D01*
X154079786Y-132230109D01*
X154079788Y-132230106D01*
X154079792Y-132230104D01*
X154230104Y-132079792D01*
X154230106Y-132079788D01*
X154230109Y-132079786D01*
X154355048Y-131907820D01*
X154355047Y-131907820D01*
X154355051Y-131907816D01*
X154359514Y-131899054D01*
X154407488Y-131848259D01*
X154475308Y-131831463D01*
X154541444Y-131853999D01*
X154580486Y-131899056D01*
X154584951Y-131907820D01*
X154709890Y-132079786D01*
X154860213Y-132230109D01*
X155032179Y-132355048D01*
X155032181Y-132355049D01*
X155032184Y-132355051D01*
X155221588Y-132451557D01*
X155423757Y-132517246D01*
X155633713Y-132550500D01*
X155633714Y-132550500D01*
X155846286Y-132550500D01*
X155846287Y-132550500D01*
X156056243Y-132517246D01*
X156258412Y-132451557D01*
X156447816Y-132355051D01*
X156511060Y-132309102D01*
X156619786Y-132230109D01*
X156619788Y-132230106D01*
X156619792Y-132230104D01*
X156770104Y-132079792D01*
X156770106Y-132079788D01*
X156770109Y-132079786D01*
X156895048Y-131907820D01*
X156895047Y-131907820D01*
X156895051Y-131907816D01*
X156991557Y-131718412D01*
X157057246Y-131516243D01*
X157090500Y-131306287D01*
X157090500Y-131093713D01*
X157057246Y-130883757D01*
X156991557Y-130681588D01*
X156895051Y-130492184D01*
X156895049Y-130492181D01*
X156895048Y-130492179D01*
X156770109Y-130320213D01*
X156619786Y-130169890D01*
X156447820Y-130044951D01*
X156258414Y-129948444D01*
X156258413Y-129948443D01*
X156258412Y-129948443D01*
X156056243Y-129882754D01*
X156056241Y-129882753D01*
X156056240Y-129882753D01*
X155894957Y-129857208D01*
X155846287Y-129849500D01*
X155633713Y-129849500D01*
X155585042Y-129857208D01*
X155423760Y-129882753D01*
X155221585Y-129948444D01*
X155032179Y-130044951D01*
X154860213Y-130169890D01*
X154709890Y-130320213D01*
X154584949Y-130492182D01*
X154580484Y-130500946D01*
X154532509Y-130551742D01*
X154464688Y-130568536D01*
X154398553Y-130545998D01*
X154359516Y-130500946D01*
X154355050Y-130492182D01*
X154230109Y-130320213D01*
X154079786Y-130169890D01*
X153907820Y-130044951D01*
X153718414Y-129948444D01*
X153718413Y-129948443D01*
X153718412Y-129948443D01*
X153516243Y-129882754D01*
X153516241Y-129882753D01*
X153516240Y-129882753D01*
X153354957Y-129857208D01*
X153306287Y-129849500D01*
X153093713Y-129849500D01*
X153045042Y-129857208D01*
X152883760Y-129882753D01*
X152681585Y-129948444D01*
X152492179Y-130044951D01*
X152320215Y-130169889D01*
X152206673Y-130283431D01*
X152145350Y-130316915D01*
X152075658Y-130311931D01*
X152019725Y-130270059D01*
X152002810Y-130239082D01*
X151953797Y-130107671D01*
X151953793Y-130107664D01*
X151867547Y-129992455D01*
X151867544Y-129992452D01*
X151752335Y-129906206D01*
X151752328Y-129906202D01*
X151617482Y-129855908D01*
X151617483Y-129855908D01*
X151557883Y-129849501D01*
X151557881Y-129849500D01*
X151557873Y-129849500D01*
X151557864Y-129849500D01*
X149762129Y-129849500D01*
X149762123Y-129849501D01*
X149702516Y-129855908D01*
X149567671Y-129906202D01*
X149567664Y-129906206D01*
X149452455Y-129992452D01*
X149452452Y-129992455D01*
X149366206Y-130107664D01*
X149366202Y-130107671D01*
X149315908Y-130242517D01*
X149309501Y-130302116D01*
X149309500Y-130302135D01*
X146689654Y-130302135D01*
X146607547Y-130192455D01*
X146607544Y-130192452D01*
X146492335Y-130106206D01*
X146492328Y-130106202D01*
X146357482Y-130055908D01*
X146357483Y-130055908D01*
X146297883Y-130049501D01*
X146297881Y-130049500D01*
X146297873Y-130049500D01*
X146297864Y-130049500D01*
X144502129Y-130049500D01*
X144502123Y-130049501D01*
X144442516Y-130055908D01*
X144307671Y-130106202D01*
X144307664Y-130106206D01*
X144192455Y-130192452D01*
X144192452Y-130192455D01*
X144106206Y-130307664D01*
X144106203Y-130307669D01*
X144057189Y-130439083D01*
X144015317Y-130495016D01*
X143949853Y-130519433D01*
X143881580Y-130504581D01*
X143853326Y-130483430D01*
X143739786Y-130369890D01*
X143567820Y-130244951D01*
X143378414Y-130148444D01*
X143378413Y-130148443D01*
X143378412Y-130148443D01*
X143176243Y-130082754D01*
X143176241Y-130082753D01*
X143176240Y-130082753D01*
X143014957Y-130057208D01*
X142966287Y-130049500D01*
X142753713Y-130049500D01*
X142705042Y-130057208D01*
X142543760Y-130082753D01*
X142341585Y-130148444D01*
X142152179Y-130244951D01*
X141980213Y-130369890D01*
X141829890Y-130520213D01*
X141704949Y-130692182D01*
X141700484Y-130700946D01*
X141652509Y-130751742D01*
X141584688Y-130768536D01*
X141518553Y-130745998D01*
X141479516Y-130700946D01*
X141475050Y-130692182D01*
X141350109Y-130520213D01*
X141199786Y-130369890D01*
X141027820Y-130244951D01*
X140838414Y-130148444D01*
X140838413Y-130148443D01*
X140838412Y-130148443D01*
X140636243Y-130082754D01*
X140636241Y-130082753D01*
X140636240Y-130082753D01*
X140474957Y-130057208D01*
X140426287Y-130049500D01*
X140213713Y-130049500D01*
X140165042Y-130057208D01*
X140003760Y-130082753D01*
X139801585Y-130148444D01*
X139612179Y-130244951D01*
X139440213Y-130369890D01*
X139289890Y-130520213D01*
X139164949Y-130692182D01*
X139160484Y-130700946D01*
X139112509Y-130751742D01*
X139044688Y-130768536D01*
X138978553Y-130745998D01*
X138939516Y-130700946D01*
X138935050Y-130692182D01*
X138810109Y-130520213D01*
X138659786Y-130369890D01*
X138487820Y-130244951D01*
X138298414Y-130148444D01*
X138298413Y-130148443D01*
X138298412Y-130148443D01*
X138096243Y-130082754D01*
X138096241Y-130082753D01*
X138096240Y-130082753D01*
X137934957Y-130057208D01*
X137886287Y-130049500D01*
X137673713Y-130049500D01*
X137625042Y-130057208D01*
X137463760Y-130082753D01*
X137261585Y-130148444D01*
X137072179Y-130244951D01*
X136900213Y-130369890D01*
X136749890Y-130520213D01*
X136624951Y-130692179D01*
X136528444Y-130881585D01*
X136462753Y-131083760D01*
X136429500Y-131293713D01*
X133218823Y-131293713D01*
X133217246Y-131283759D01*
X133217246Y-131283757D01*
X133151557Y-131081588D01*
X133055051Y-130892184D01*
X133055049Y-130892181D01*
X133055048Y-130892179D01*
X132930109Y-130720213D01*
X132779786Y-130569890D01*
X132607820Y-130444951D01*
X132418414Y-130348444D01*
X132418413Y-130348443D01*
X132418412Y-130348443D01*
X132216243Y-130282754D01*
X132216241Y-130282753D01*
X132216240Y-130282753D01*
X132054957Y-130257208D01*
X132006287Y-130249500D01*
X131793713Y-130249500D01*
X131745042Y-130257208D01*
X131583760Y-130282753D01*
X131381585Y-130348444D01*
X131192179Y-130444951D01*
X131020215Y-130569889D01*
X130906673Y-130683431D01*
X130845350Y-130716915D01*
X130775658Y-130711931D01*
X130719725Y-130670059D01*
X130702810Y-130639082D01*
X130653797Y-130507671D01*
X130653793Y-130507664D01*
X130567547Y-130392455D01*
X130567544Y-130392452D01*
X130452335Y-130306206D01*
X130452328Y-130306202D01*
X130317482Y-130255908D01*
X130317483Y-130255908D01*
X130257883Y-130249501D01*
X130257881Y-130249500D01*
X130257873Y-130249500D01*
X130257864Y-130249500D01*
X128462129Y-130249500D01*
X128462123Y-130249501D01*
X128402516Y-130255908D01*
X128267671Y-130306202D01*
X128267664Y-130306206D01*
X128152455Y-130392452D01*
X128152452Y-130392455D01*
X128066206Y-130507664D01*
X128066202Y-130507671D01*
X128015908Y-130642517D01*
X128009501Y-130702116D01*
X128009500Y-130702135D01*
X121985925Y-130702135D01*
X121962769Y-130496620D01*
X121962766Y-130496602D01*
X121961756Y-130492179D01*
X121887776Y-130168046D01*
X121776469Y-129849949D01*
X121630246Y-129546314D01*
X121450946Y-129260961D01*
X121240825Y-128997477D01*
X121002523Y-128759175D01*
X120739039Y-128549054D01*
X120453686Y-128369754D01*
X120453683Y-128369752D01*
X120150054Y-128223532D01*
X119831965Y-128112227D01*
X119831953Y-128112223D01*
X119503397Y-128037233D01*
X119503381Y-128037231D01*
X119168508Y-127999500D01*
X119168504Y-127999500D01*
X118831496Y-127999500D01*
X118831491Y-127999500D01*
X118496618Y-128037231D01*
X118496602Y-128037233D01*
X118168046Y-128112223D01*
X118168034Y-128112227D01*
X117849945Y-128223532D01*
X117546316Y-128369752D01*
X117260962Y-128549053D01*
X116997477Y-128759174D01*
X116759174Y-128997477D01*
X116549053Y-129260962D01*
X116528994Y-129292886D01*
X116476659Y-129339177D01*
X116407606Y-129349825D01*
X116343757Y-129321450D01*
X116305385Y-129263060D01*
X116300000Y-129226914D01*
X116300000Y-123116228D01*
X153749500Y-123116228D01*
X153749500Y-123283771D01*
X153782182Y-123448074D01*
X153782184Y-123448082D01*
X153846295Y-123602860D01*
X153939373Y-123742162D01*
X154057837Y-123860626D01*
X154150494Y-123922537D01*
X154197137Y-123953703D01*
X154351918Y-124017816D01*
X154516228Y-124050499D01*
X154516232Y-124050500D01*
X154516233Y-124050500D01*
X154683768Y-124050500D01*
X154683769Y-124050499D01*
X154848082Y-124017816D01*
X155002863Y-123953703D01*
X155142162Y-123860626D01*
X155260626Y-123742162D01*
X155353703Y-123602863D01*
X155411582Y-123463130D01*
X155438458Y-123422908D01*
X156422908Y-122438458D01*
X156463130Y-122411582D01*
X156602863Y-122353703D01*
X156742162Y-122260626D01*
X156860626Y-122142162D01*
X156953703Y-122002863D01*
X157017816Y-121848082D01*
X157050500Y-121683767D01*
X157050500Y-121516233D01*
X157017816Y-121351918D01*
X156953703Y-121197137D01*
X156908203Y-121129042D01*
X156860626Y-121057837D01*
X156742162Y-120939373D01*
X156602860Y-120846295D01*
X156448082Y-120782184D01*
X156448074Y-120782182D01*
X156283771Y-120749500D01*
X156283767Y-120749500D01*
X156116233Y-120749500D01*
X156116228Y-120749500D01*
X155951925Y-120782182D01*
X155951917Y-120782184D01*
X155797139Y-120846295D01*
X155657837Y-120939373D01*
X155539373Y-121057837D01*
X155446295Y-121197139D01*
X155388420Y-121336862D01*
X155361540Y-121377090D01*
X154377090Y-122361540D01*
X154336862Y-122388420D01*
X154197139Y-122446295D01*
X154057837Y-122539373D01*
X153939373Y-122657837D01*
X153846295Y-122797139D01*
X153782184Y-122951917D01*
X153782182Y-122951925D01*
X153749500Y-123116228D01*
X116300000Y-123116228D01*
X116300000Y-121816228D01*
X127049500Y-121816228D01*
X127049500Y-121983771D01*
X127082182Y-122148074D01*
X127082184Y-122148082D01*
X127146295Y-122302860D01*
X127239373Y-122442162D01*
X127357837Y-122560626D01*
X127450494Y-122622537D01*
X127497137Y-122653703D01*
X127497138Y-122653703D01*
X127497139Y-122653704D01*
X127512192Y-122659939D01*
X127651918Y-122717816D01*
X127816228Y-122750499D01*
X127816232Y-122750500D01*
X127816233Y-122750500D01*
X127983768Y-122750500D01*
X127983769Y-122750499D01*
X128148082Y-122717816D01*
X128287808Y-122659938D01*
X128335261Y-122650500D01*
X130264739Y-122650500D01*
X130312191Y-122659938D01*
X130451918Y-122717816D01*
X130616228Y-122750499D01*
X130616232Y-122750500D01*
X130616233Y-122750500D01*
X130783768Y-122750500D01*
X130783769Y-122750499D01*
X130948082Y-122717816D01*
X131102863Y-122653703D01*
X131242162Y-122560626D01*
X131360626Y-122442162D01*
X131453703Y-122302863D01*
X131517816Y-122148082D01*
X131550500Y-121983767D01*
X131550500Y-121816233D01*
X131517816Y-121651918D01*
X131461613Y-121516233D01*
X131453704Y-121497139D01*
X131360626Y-121357837D01*
X131242164Y-121239375D01*
X131214625Y-121220974D01*
X131113044Y-121153100D01*
X131068241Y-121099491D01*
X131059534Y-121030166D01*
X131089688Y-120967138D01*
X131113040Y-120946902D01*
X131242162Y-120860626D01*
X131360626Y-120742162D01*
X131453703Y-120602863D01*
X131517816Y-120448082D01*
X131550500Y-120283767D01*
X131550500Y-120116233D01*
X131517816Y-119951918D01*
X131453703Y-119797137D01*
X131420294Y-119747137D01*
X131360626Y-119657837D01*
X131242162Y-119539373D01*
X131102860Y-119446295D01*
X130948082Y-119382184D01*
X130948074Y-119382182D01*
X130783771Y-119349500D01*
X130783767Y-119349500D01*
X130616233Y-119349500D01*
X130616228Y-119349500D01*
X130451925Y-119382182D01*
X130451917Y-119382184D01*
X130297139Y-119446295D01*
X130173959Y-119528602D01*
X130107281Y-119549480D01*
X130105068Y-119549500D01*
X128603651Y-119549500D01*
X128536612Y-119529815D01*
X128515970Y-119513181D01*
X128492162Y-119489373D01*
X128352860Y-119396295D01*
X128198082Y-119332184D01*
X128198074Y-119332182D01*
X128033771Y-119299500D01*
X128033767Y-119299500D01*
X127866233Y-119299500D01*
X127866228Y-119299500D01*
X127701925Y-119332182D01*
X127701917Y-119332184D01*
X127547139Y-119396295D01*
X127407837Y-119489373D01*
X127289373Y-119607837D01*
X127196295Y-119747139D01*
X127132184Y-119901917D01*
X127132182Y-119901925D01*
X127099500Y-120066228D01*
X127099500Y-120233771D01*
X127132182Y-120398074D01*
X127132184Y-120398082D01*
X127196295Y-120552860D01*
X127289373Y-120692162D01*
X127407837Y-120810626D01*
X127461220Y-120846295D01*
X127547137Y-120903703D01*
X127547142Y-120903705D01*
X127549798Y-120905125D01*
X127550930Y-120906237D01*
X127552202Y-120907087D01*
X127552040Y-120907328D01*
X127599640Y-120954089D01*
X127615098Y-121022228D01*
X127591263Y-121087906D01*
X127538793Y-121129042D01*
X127497139Y-121146295D01*
X127357837Y-121239373D01*
X127239373Y-121357837D01*
X127146295Y-121497139D01*
X127082184Y-121651917D01*
X127082182Y-121651925D01*
X127049500Y-121816228D01*
X116300000Y-121816228D01*
X116300000Y-118670817D01*
X161774500Y-118670817D01*
X161774500Y-118809182D01*
X161810312Y-118942835D01*
X161810313Y-118942838D01*
X161879492Y-119062661D01*
X161879494Y-119062664D01*
X161879495Y-119062665D01*
X161977335Y-119160505D01*
X162097164Y-119229688D01*
X162230817Y-119265500D01*
X162230819Y-119265500D01*
X162369181Y-119265500D01*
X162369183Y-119265500D01*
X162502836Y-119229688D01*
X162622665Y-119160505D01*
X162720505Y-119062665D01*
X162789688Y-118942836D01*
X162825500Y-118809183D01*
X162825500Y-118670817D01*
X162789688Y-118537164D01*
X162720505Y-118417335D01*
X162622665Y-118319495D01*
X162622664Y-118319494D01*
X162622661Y-118319492D01*
X162502838Y-118250313D01*
X162502837Y-118250312D01*
X162502836Y-118250312D01*
X162369183Y-118214500D01*
X162230817Y-118214500D01*
X162097164Y-118250312D01*
X162097161Y-118250313D01*
X161977338Y-118319492D01*
X161977333Y-118319496D01*
X161879496Y-118417333D01*
X161879492Y-118417338D01*
X161810313Y-118537161D01*
X161810312Y-118537164D01*
X161774500Y-118670817D01*
X116300000Y-118670817D01*
X116300000Y-114816228D01*
X153849500Y-114816228D01*
X153849500Y-114983771D01*
X153882182Y-115148074D01*
X153882184Y-115148082D01*
X153946295Y-115302860D01*
X154028602Y-115426040D01*
X154049480Y-115492717D01*
X154049500Y-115494931D01*
X154049500Y-116205068D01*
X154029815Y-116272107D01*
X154028602Y-116273959D01*
X153946295Y-116397139D01*
X153882184Y-116551917D01*
X153882182Y-116551925D01*
X153849500Y-116716228D01*
X153849500Y-116883771D01*
X153882182Y-117048074D01*
X153882184Y-117048082D01*
X153946295Y-117202860D01*
X154039373Y-117342162D01*
X154157837Y-117460626D01*
X154250494Y-117522537D01*
X154297137Y-117553703D01*
X154451918Y-117617816D01*
X154616228Y-117650499D01*
X154616232Y-117650500D01*
X154616233Y-117650500D01*
X154783768Y-117650500D01*
X154783769Y-117650499D01*
X154948082Y-117617816D01*
X155102863Y-117553703D01*
X155242162Y-117460626D01*
X155360626Y-117342162D01*
X155453703Y-117202863D01*
X155517816Y-117048082D01*
X155550500Y-116883767D01*
X155550500Y-116716233D01*
X155517816Y-116551918D01*
X155453703Y-116397137D01*
X155371398Y-116273959D01*
X155350520Y-116207281D01*
X155350500Y-116205068D01*
X155350500Y-115494931D01*
X155370185Y-115427892D01*
X155371398Y-115426040D01*
X155453703Y-115302863D01*
X155517816Y-115148082D01*
X155550500Y-114983767D01*
X155550500Y-114816233D01*
X155517816Y-114651918D01*
X155453703Y-114497137D01*
X155422537Y-114450494D01*
X155360626Y-114357837D01*
X155242162Y-114239373D01*
X155102860Y-114146295D01*
X154948082Y-114082184D01*
X154948074Y-114082182D01*
X154783771Y-114049500D01*
X154783767Y-114049500D01*
X154616233Y-114049500D01*
X154616228Y-114049500D01*
X154451925Y-114082182D01*
X154451917Y-114082184D01*
X154297139Y-114146295D01*
X154157837Y-114239373D01*
X154039373Y-114357837D01*
X153946295Y-114497139D01*
X153882184Y-114651917D01*
X153882182Y-114651925D01*
X153849500Y-114816228D01*
X116300000Y-114816228D01*
X116300000Y-112890817D01*
X161774500Y-112890817D01*
X161774500Y-113029182D01*
X161810312Y-113162835D01*
X161810313Y-113162838D01*
X161879492Y-113282661D01*
X161879494Y-113282664D01*
X161879495Y-113282665D01*
X161977335Y-113380505D01*
X162097164Y-113449688D01*
X162230817Y-113485500D01*
X162230819Y-113485500D01*
X162369181Y-113485500D01*
X162369183Y-113485500D01*
X162502836Y-113449688D01*
X162622665Y-113380505D01*
X162720505Y-113282665D01*
X162789688Y-113162836D01*
X162825500Y-113029183D01*
X162825500Y-112890817D01*
X162789688Y-112757164D01*
X162720505Y-112637335D01*
X162622665Y-112539495D01*
X162622664Y-112539494D01*
X162622661Y-112539492D01*
X162502838Y-112470313D01*
X162502837Y-112470312D01*
X162502836Y-112470312D01*
X162369183Y-112434500D01*
X162230817Y-112434500D01*
X162097164Y-112470312D01*
X162097161Y-112470313D01*
X161977338Y-112539492D01*
X161977333Y-112539496D01*
X161879496Y-112637333D01*
X161879492Y-112637338D01*
X161810313Y-112757161D01*
X161810312Y-112757164D01*
X161774500Y-112890817D01*
X116300000Y-112890817D01*
X116300000Y-106416228D01*
X132449500Y-106416228D01*
X132449500Y-106583771D01*
X132482182Y-106748074D01*
X132482184Y-106748082D01*
X132546295Y-106902860D01*
X132639373Y-107042162D01*
X132757837Y-107160626D01*
X132850494Y-107222537D01*
X132897137Y-107253703D01*
X133051918Y-107317816D01*
X133136011Y-107334543D01*
X133197218Y-107346718D01*
X133259129Y-107379102D01*
X133260708Y-107380654D01*
X134606876Y-108726821D01*
X134640361Y-108788144D01*
X134635377Y-108857836D01*
X134622298Y-108883392D01*
X134546295Y-108997140D01*
X134482184Y-109151917D01*
X134482182Y-109151925D01*
X134449500Y-109316228D01*
X134449500Y-109483771D01*
X134482182Y-109648074D01*
X134482184Y-109648082D01*
X134546295Y-109802860D01*
X134639373Y-109942162D01*
X134757837Y-110060626D01*
X134812480Y-110097137D01*
X134897137Y-110153703D01*
X135051918Y-110217816D01*
X135195093Y-110246295D01*
X135216228Y-110250499D01*
X135216232Y-110250500D01*
X135216233Y-110250500D01*
X135383768Y-110250500D01*
X135383769Y-110250499D01*
X135548082Y-110217816D01*
X135702863Y-110153703D01*
X135842162Y-110060626D01*
X135960626Y-109942162D01*
X135977955Y-109916228D01*
X139149500Y-109916228D01*
X139149500Y-110083771D01*
X139182182Y-110248074D01*
X139182184Y-110248082D01*
X139246295Y-110402860D01*
X139339373Y-110542162D01*
X139457837Y-110660626D01*
X139550494Y-110722537D01*
X139597137Y-110753703D01*
X139597138Y-110753703D01*
X139597139Y-110753704D01*
X139736866Y-110811581D01*
X139777094Y-110838461D01*
X140161538Y-111222905D01*
X140188418Y-111263133D01*
X140246295Y-111402860D01*
X140339373Y-111542162D01*
X140457837Y-111660626D01*
X140550494Y-111722537D01*
X140597137Y-111753703D01*
X140751918Y-111817816D01*
X140916228Y-111850499D01*
X140916232Y-111850500D01*
X140916233Y-111850500D01*
X141083768Y-111850500D01*
X141083769Y-111850499D01*
X141248082Y-111817816D01*
X141402863Y-111753703D01*
X141542162Y-111660626D01*
X141660626Y-111542162D01*
X141753703Y-111402863D01*
X141817816Y-111248082D01*
X141850500Y-111083767D01*
X141850500Y-110916233D01*
X141817816Y-110751918D01*
X141753703Y-110597137D01*
X141689132Y-110500500D01*
X141660626Y-110457837D01*
X141542162Y-110339373D01*
X141402860Y-110246295D01*
X141263133Y-110188418D01*
X141222905Y-110161538D01*
X140838461Y-109777094D01*
X140811581Y-109736866D01*
X140788464Y-109681058D01*
X140753703Y-109597137D01*
X140677952Y-109483768D01*
X140660626Y-109457837D01*
X140542162Y-109339373D01*
X140402860Y-109246295D01*
X140248082Y-109182184D01*
X140248074Y-109182182D01*
X140083771Y-109149500D01*
X140083767Y-109149500D01*
X139916233Y-109149500D01*
X139916228Y-109149500D01*
X139751925Y-109182182D01*
X139751917Y-109182184D01*
X139597139Y-109246295D01*
X139457837Y-109339373D01*
X139339373Y-109457837D01*
X139246295Y-109597139D01*
X139182184Y-109751917D01*
X139182182Y-109751925D01*
X139149500Y-109916228D01*
X135977955Y-109916228D01*
X136053703Y-109802863D01*
X136117816Y-109648082D01*
X136150500Y-109483767D01*
X136150500Y-109316233D01*
X136117816Y-109151918D01*
X136053703Y-108997137D01*
X135971398Y-108873959D01*
X135950520Y-108807281D01*
X135950500Y-108805068D01*
X135950500Y-108435928D01*
X135930291Y-108334333D01*
X135926689Y-108316228D01*
X148749500Y-108316228D01*
X148749500Y-108483771D01*
X148782182Y-108648074D01*
X148782184Y-108648082D01*
X148846295Y-108802860D01*
X148939373Y-108942162D01*
X149057837Y-109060626D01*
X149150494Y-109122537D01*
X149197137Y-109153703D01*
X149197138Y-109153703D01*
X149197139Y-109153704D01*
X149197141Y-109153705D01*
X149251353Y-109176160D01*
X149336864Y-109211580D01*
X149377091Y-109238459D01*
X150861539Y-110722907D01*
X150888419Y-110763135D01*
X150946295Y-110902860D01*
X151039373Y-111042162D01*
X151157837Y-111160626D01*
X151250494Y-111222537D01*
X151297137Y-111253703D01*
X151451918Y-111317816D01*
X151616228Y-111350499D01*
X151616232Y-111350500D01*
X151616233Y-111350500D01*
X151783768Y-111350500D01*
X151783769Y-111350499D01*
X151948082Y-111317816D01*
X152102863Y-111253703D01*
X152242162Y-111160626D01*
X152360626Y-111042162D01*
X152453703Y-110902863D01*
X152517816Y-110748082D01*
X152550500Y-110583767D01*
X152550500Y-110416233D01*
X152517816Y-110251918D01*
X152453703Y-110097137D01*
X152408700Y-110029786D01*
X152360626Y-109957837D01*
X152242162Y-109839373D01*
X152102860Y-109746295D01*
X151963135Y-109688419D01*
X151922907Y-109661539D01*
X151305081Y-109043713D01*
X158199500Y-109043713D01*
X158199500Y-109256286D01*
X158231422Y-109457838D01*
X158232754Y-109466243D01*
X158291837Y-109648082D01*
X158298444Y-109668414D01*
X158394951Y-109857820D01*
X158519890Y-110029786D01*
X158670213Y-110180109D01*
X158842179Y-110305048D01*
X158842181Y-110305049D01*
X158842184Y-110305051D01*
X159031588Y-110401557D01*
X159233757Y-110467246D01*
X159443713Y-110500500D01*
X159443714Y-110500500D01*
X159656286Y-110500500D01*
X159656287Y-110500500D01*
X159866243Y-110467246D01*
X160068412Y-110401557D01*
X160257816Y-110305051D01*
X160338685Y-110246297D01*
X160429786Y-110180109D01*
X160429788Y-110180106D01*
X160429792Y-110180104D01*
X160580104Y-110029792D01*
X160580106Y-110029788D01*
X160580109Y-110029786D01*
X160705048Y-109857820D01*
X160705047Y-109857820D01*
X160705051Y-109857816D01*
X160801557Y-109668412D01*
X160867246Y-109466243D01*
X160900500Y-109256287D01*
X160900500Y-109043713D01*
X164699500Y-109043713D01*
X164699500Y-109256286D01*
X164731422Y-109457838D01*
X164732754Y-109466243D01*
X164791837Y-109648082D01*
X164798444Y-109668414D01*
X164894951Y-109857820D01*
X165019890Y-110029786D01*
X165170213Y-110180109D01*
X165342179Y-110305048D01*
X165342181Y-110305049D01*
X165342184Y-110305051D01*
X165531588Y-110401557D01*
X165733757Y-110467246D01*
X165943713Y-110500500D01*
X165943714Y-110500500D01*
X166156286Y-110500500D01*
X166156287Y-110500500D01*
X166366243Y-110467246D01*
X166568412Y-110401557D01*
X166757816Y-110305051D01*
X166838685Y-110246297D01*
X166929786Y-110180109D01*
X166929788Y-110180106D01*
X166929792Y-110180104D01*
X167080104Y-110029792D01*
X167080106Y-110029788D01*
X167080109Y-110029786D01*
X167205048Y-109857820D01*
X167205047Y-109857820D01*
X167205051Y-109857816D01*
X167301557Y-109668412D01*
X167367246Y-109466243D01*
X167400500Y-109256287D01*
X167400500Y-109043713D01*
X167367246Y-108833757D01*
X167301557Y-108631588D01*
X167205051Y-108442184D01*
X167205049Y-108442181D01*
X167205048Y-108442179D01*
X167080109Y-108270213D01*
X166929786Y-108119890D01*
X166757820Y-107994951D01*
X166568414Y-107898444D01*
X166568413Y-107898443D01*
X166568412Y-107898443D01*
X166366243Y-107832754D01*
X166366241Y-107832753D01*
X166366240Y-107832753D01*
X166204957Y-107807208D01*
X166156287Y-107799500D01*
X165943713Y-107799500D01*
X165895042Y-107807208D01*
X165733760Y-107832753D01*
X165531585Y-107898444D01*
X165342179Y-107994951D01*
X165170213Y-108119890D01*
X165019890Y-108270213D01*
X164894951Y-108442179D01*
X164798444Y-108631585D01*
X164732753Y-108833760D01*
X164699500Y-109043713D01*
X160900500Y-109043713D01*
X160867246Y-108833757D01*
X160801557Y-108631588D01*
X160705051Y-108442184D01*
X160705049Y-108442181D01*
X160705048Y-108442179D01*
X160580109Y-108270213D01*
X160429786Y-108119890D01*
X160257820Y-107994951D01*
X160068414Y-107898444D01*
X160068413Y-107898443D01*
X160068412Y-107898443D01*
X159866243Y-107832754D01*
X159866241Y-107832753D01*
X159866240Y-107832753D01*
X159704957Y-107807208D01*
X159656287Y-107799500D01*
X159443713Y-107799500D01*
X159395042Y-107807208D01*
X159233760Y-107832753D01*
X159031585Y-107898444D01*
X158842179Y-107994951D01*
X158670213Y-108119890D01*
X158519890Y-108270213D01*
X158394951Y-108442179D01*
X158298444Y-108631585D01*
X158232753Y-108833760D01*
X158199500Y-109043713D01*
X151305081Y-109043713D01*
X150438459Y-108177091D01*
X150411580Y-108136864D01*
X150353703Y-107997137D01*
X150322537Y-107950494D01*
X150260626Y-107857837D01*
X150142162Y-107739373D01*
X150002860Y-107646295D01*
X149848082Y-107582184D01*
X149848074Y-107582182D01*
X149683771Y-107549500D01*
X149683767Y-107549500D01*
X149516233Y-107549500D01*
X149516228Y-107549500D01*
X149351925Y-107582182D01*
X149351917Y-107582184D01*
X149197139Y-107646295D01*
X149057837Y-107739373D01*
X148939373Y-107857837D01*
X148846295Y-107997139D01*
X148782184Y-108151917D01*
X148782182Y-108151925D01*
X148749500Y-108316228D01*
X135926689Y-108316228D01*
X135925502Y-108310260D01*
X135925501Y-108310258D01*
X135925501Y-108310256D01*
X135876465Y-108191873D01*
X135876464Y-108191872D01*
X135876461Y-108191866D01*
X135805277Y-108085332D01*
X135805276Y-108085331D01*
X135714669Y-107994724D01*
X134180654Y-106460708D01*
X134147169Y-106399385D01*
X134146718Y-106397218D01*
X134117817Y-106251925D01*
X134117816Y-106251918D01*
X134053703Y-106097137D01*
X134022537Y-106050494D01*
X133960626Y-105957837D01*
X133842162Y-105839373D01*
X133702860Y-105746295D01*
X133548082Y-105682184D01*
X133548074Y-105682182D01*
X133383771Y-105649500D01*
X133383767Y-105649500D01*
X133216233Y-105649500D01*
X133216228Y-105649500D01*
X133051925Y-105682182D01*
X133051917Y-105682184D01*
X132897139Y-105746295D01*
X132757837Y-105839373D01*
X132639373Y-105957837D01*
X132546295Y-106097139D01*
X132482184Y-106251917D01*
X132482182Y-106251925D01*
X132449500Y-106416228D01*
X116300000Y-106416228D01*
X116300000Y-102773085D01*
X116319685Y-102706046D01*
X116372489Y-102660291D01*
X116441647Y-102650347D01*
X116505203Y-102679372D01*
X116528991Y-102707110D01*
X116549054Y-102739039D01*
X116759175Y-103002523D01*
X116997477Y-103240825D01*
X117260961Y-103450946D01*
X117546314Y-103630246D01*
X117849949Y-103776469D01*
X118088848Y-103860063D01*
X118168034Y-103887772D01*
X118168046Y-103887776D01*
X118496606Y-103962767D01*
X118831492Y-104000499D01*
X118831493Y-104000500D01*
X118831496Y-104000500D01*
X119168507Y-104000500D01*
X119168507Y-104000499D01*
X119503394Y-103962767D01*
X119831954Y-103887776D01*
X120150051Y-103776469D01*
X120453686Y-103630246D01*
X120739039Y-103450946D01*
X121002523Y-103240825D01*
X121240825Y-103002523D01*
X121450946Y-102739039D01*
X121510844Y-102643713D01*
X123399500Y-102643713D01*
X123399500Y-102856287D01*
X123409534Y-102919644D01*
X123422661Y-103002523D01*
X123432754Y-103066243D01*
X123497738Y-103266243D01*
X123498444Y-103268414D01*
X123594951Y-103457820D01*
X123719890Y-103629786D01*
X123870213Y-103780109D01*
X124042179Y-103905048D01*
X124042181Y-103905049D01*
X124042184Y-103905051D01*
X124231588Y-104001557D01*
X124433757Y-104067246D01*
X124643713Y-104100500D01*
X124643714Y-104100500D01*
X124856286Y-104100500D01*
X124856287Y-104100500D01*
X125066243Y-104067246D01*
X125268412Y-104001557D01*
X125457816Y-103905051D01*
X125536502Y-103847883D01*
X125629786Y-103780109D01*
X125629788Y-103780106D01*
X125629792Y-103780104D01*
X125780104Y-103629792D01*
X125780106Y-103629788D01*
X125780109Y-103629786D01*
X125905048Y-103457820D01*
X125905047Y-103457820D01*
X125905051Y-103457816D01*
X126001557Y-103268412D01*
X126067246Y-103066243D01*
X126100500Y-102856287D01*
X126100500Y-102643713D01*
X129899500Y-102643713D01*
X129899500Y-102856287D01*
X129909534Y-102919644D01*
X129922661Y-103002523D01*
X129932754Y-103066243D01*
X129997738Y-103266243D01*
X129998444Y-103268414D01*
X130094951Y-103457820D01*
X130219890Y-103629786D01*
X130370213Y-103780109D01*
X130542179Y-103905048D01*
X130542181Y-103905049D01*
X130542184Y-103905051D01*
X130731588Y-104001557D01*
X130933757Y-104067246D01*
X131143713Y-104100500D01*
X131143714Y-104100500D01*
X131356286Y-104100500D01*
X131356287Y-104100500D01*
X131566243Y-104067246D01*
X131768412Y-104001557D01*
X131957816Y-103905051D01*
X132036502Y-103847883D01*
X132129786Y-103780109D01*
X132129788Y-103780106D01*
X132129792Y-103780104D01*
X132280104Y-103629792D01*
X132280106Y-103629788D01*
X132280109Y-103629786D01*
X132407915Y-103453875D01*
X132409259Y-103454851D01*
X132455705Y-103412834D01*
X132509618Y-103400500D01*
X133928805Y-103400500D01*
X133995844Y-103420185D01*
X134039290Y-103468205D01*
X134084950Y-103557817D01*
X134084956Y-103557826D01*
X134209890Y-103729786D01*
X134360213Y-103880109D01*
X134532179Y-104005048D01*
X134532181Y-104005049D01*
X134532184Y-104005051D01*
X134721588Y-104101557D01*
X134923757Y-104167246D01*
X135133713Y-104200500D01*
X135133714Y-104200500D01*
X135346286Y-104200500D01*
X135346287Y-104200500D01*
X135556243Y-104167246D01*
X135758412Y-104101557D01*
X135947816Y-104005051D01*
X136006014Y-103962768D01*
X136119786Y-103880109D01*
X136119788Y-103880106D01*
X136119792Y-103880104D01*
X136270104Y-103729792D01*
X136270106Y-103729788D01*
X136270109Y-103729786D01*
X136395048Y-103557820D01*
X136395050Y-103557817D01*
X136395051Y-103557816D01*
X136399514Y-103549054D01*
X136447488Y-103498259D01*
X136515308Y-103481463D01*
X136581444Y-103503999D01*
X136620486Y-103549056D01*
X136624951Y-103557820D01*
X136749890Y-103729786D01*
X136900213Y-103880109D01*
X137072179Y-104005048D01*
X137072181Y-104005049D01*
X137072184Y-104005051D01*
X137261588Y-104101557D01*
X137463757Y-104167246D01*
X137673713Y-104200500D01*
X137673714Y-104200500D01*
X137886286Y-104200500D01*
X137886287Y-104200500D01*
X138096243Y-104167246D01*
X138298412Y-104101557D01*
X138487816Y-104005051D01*
X138546014Y-103962768D01*
X138659786Y-103880109D01*
X138659788Y-103880106D01*
X138659792Y-103880104D01*
X138810104Y-103729792D01*
X138810106Y-103729788D01*
X138810109Y-103729786D01*
X138935048Y-103557820D01*
X138935050Y-103557817D01*
X138935051Y-103557816D01*
X139031557Y-103368412D01*
X139097246Y-103166243D01*
X139130500Y-102956287D01*
X139130500Y-102743713D01*
X141509500Y-102743713D01*
X141509500Y-102956286D01*
X141525338Y-103056287D01*
X141542754Y-103166243D01*
X141566987Y-103240825D01*
X141608444Y-103368414D01*
X141704951Y-103557820D01*
X141829890Y-103729786D01*
X141980213Y-103880109D01*
X142152179Y-104005048D01*
X142152181Y-104005049D01*
X142152184Y-104005051D01*
X142341588Y-104101557D01*
X142543757Y-104167246D01*
X142753713Y-104200500D01*
X142753714Y-104200500D01*
X142966286Y-104200500D01*
X142966287Y-104200500D01*
X143176243Y-104167246D01*
X143378412Y-104101557D01*
X143567816Y-104005051D01*
X143705459Y-103905048D01*
X143739784Y-103880110D01*
X143739784Y-103880109D01*
X143739792Y-103880104D01*
X143853329Y-103766566D01*
X143914648Y-103733084D01*
X143984340Y-103738068D01*
X144040274Y-103779939D01*
X144057189Y-103810917D01*
X144106202Y-103942328D01*
X144106206Y-103942335D01*
X144192452Y-104057544D01*
X144192455Y-104057547D01*
X144307664Y-104143793D01*
X144307671Y-104143797D01*
X144442517Y-104194091D01*
X144442516Y-104194091D01*
X144449444Y-104194835D01*
X144502127Y-104200500D01*
X146297872Y-104200499D01*
X146357483Y-104194091D01*
X146492331Y-104143796D01*
X146607546Y-104057546D01*
X146693796Y-103942331D01*
X146744091Y-103807483D01*
X146750500Y-103747873D01*
X146750499Y-102843713D01*
X149559500Y-102843713D01*
X149559500Y-103056287D01*
X149592754Y-103266243D01*
X149655001Y-103457820D01*
X149658444Y-103468414D01*
X149754951Y-103657820D01*
X149879890Y-103829786D01*
X150030213Y-103980109D01*
X150202179Y-104105048D01*
X150202181Y-104105049D01*
X150202184Y-104105051D01*
X150391588Y-104201557D01*
X150593757Y-104267246D01*
X150803713Y-104300500D01*
X150803714Y-104300500D01*
X151016286Y-104300500D01*
X151016287Y-104300500D01*
X151226243Y-104267246D01*
X151428412Y-104201557D01*
X151617816Y-104105051D01*
X151639789Y-104089086D01*
X151789786Y-103980109D01*
X151789788Y-103980106D01*
X151789792Y-103980104D01*
X151940104Y-103829792D01*
X151940106Y-103829788D01*
X151940109Y-103829786D01*
X152065048Y-103657820D01*
X152065047Y-103657820D01*
X152065051Y-103657816D01*
X152069514Y-103649054D01*
X152117488Y-103598259D01*
X152185308Y-103581463D01*
X152251444Y-103603999D01*
X152290486Y-103649056D01*
X152294951Y-103657820D01*
X152419890Y-103829786D01*
X152570213Y-103980109D01*
X152742179Y-104105048D01*
X152742181Y-104105049D01*
X152742184Y-104105051D01*
X152931588Y-104201557D01*
X153133757Y-104267246D01*
X153343713Y-104300500D01*
X153343714Y-104300500D01*
X153556286Y-104300500D01*
X153556287Y-104300500D01*
X153766243Y-104267246D01*
X153968412Y-104201557D01*
X154157816Y-104105051D01*
X154223200Y-104057547D01*
X154329784Y-103980110D01*
X154329784Y-103980109D01*
X154329792Y-103980104D01*
X154443329Y-103866566D01*
X154504648Y-103833084D01*
X154574340Y-103838068D01*
X154630274Y-103879939D01*
X154647189Y-103910917D01*
X154696202Y-104042328D01*
X154696206Y-104042335D01*
X154782452Y-104157544D01*
X154782455Y-104157547D01*
X154897664Y-104243793D01*
X154897671Y-104243797D01*
X155032517Y-104294091D01*
X155032516Y-104294091D01*
X155039444Y-104294835D01*
X155092127Y-104300500D01*
X156887872Y-104300499D01*
X156947483Y-104294091D01*
X157082331Y-104243796D01*
X157197546Y-104157546D01*
X157283796Y-104042331D01*
X157334091Y-103907483D01*
X157340500Y-103847873D01*
X157340499Y-102052128D01*
X157334091Y-101992517D01*
X157332810Y-101989083D01*
X157283797Y-101857671D01*
X157283793Y-101857664D01*
X157197547Y-101742455D01*
X157197544Y-101742452D01*
X157082335Y-101656206D01*
X157082328Y-101656202D01*
X156947482Y-101605908D01*
X156947483Y-101605908D01*
X156887883Y-101599501D01*
X156887881Y-101599500D01*
X156887873Y-101599500D01*
X156887864Y-101599500D01*
X155092129Y-101599500D01*
X155092123Y-101599501D01*
X155032516Y-101605908D01*
X154897671Y-101656202D01*
X154897664Y-101656206D01*
X154782455Y-101742452D01*
X154782452Y-101742455D01*
X154696206Y-101857664D01*
X154696203Y-101857669D01*
X154647189Y-101989083D01*
X154605317Y-102045016D01*
X154539853Y-102069433D01*
X154471580Y-102054581D01*
X154443326Y-102033430D01*
X154329786Y-101919890D01*
X154157820Y-101794951D01*
X153968414Y-101698444D01*
X153968413Y-101698443D01*
X153968412Y-101698443D01*
X153766243Y-101632754D01*
X153766241Y-101632753D01*
X153766240Y-101632753D01*
X153604957Y-101607208D01*
X153556287Y-101599500D01*
X153343713Y-101599500D01*
X153295042Y-101607208D01*
X153133760Y-101632753D01*
X152931585Y-101698444D01*
X152742179Y-101794951D01*
X152570213Y-101919890D01*
X152419890Y-102070213D01*
X152294949Y-102242182D01*
X152290484Y-102250946D01*
X152242509Y-102301742D01*
X152174688Y-102318536D01*
X152108553Y-102295998D01*
X152069516Y-102250946D01*
X152065050Y-102242182D01*
X151940109Y-102070213D01*
X151789786Y-101919890D01*
X151617820Y-101794951D01*
X151428414Y-101698444D01*
X151428413Y-101698443D01*
X151428412Y-101698443D01*
X151226243Y-101632754D01*
X151226241Y-101632753D01*
X151226240Y-101632753D01*
X151064957Y-101607208D01*
X151016287Y-101599500D01*
X150803713Y-101599500D01*
X150755042Y-101607208D01*
X150593760Y-101632753D01*
X150391585Y-101698444D01*
X150202179Y-101794951D01*
X150030213Y-101919890D01*
X149879890Y-102070213D01*
X149754951Y-102242179D01*
X149658444Y-102431585D01*
X149592753Y-102633760D01*
X149570686Y-102773085D01*
X149559500Y-102843713D01*
X146750499Y-102843713D01*
X146750499Y-101952128D01*
X146744091Y-101892517D01*
X146742810Y-101889083D01*
X146693797Y-101757671D01*
X146693793Y-101757664D01*
X146607547Y-101642455D01*
X146607544Y-101642452D01*
X146492335Y-101556206D01*
X146492328Y-101556202D01*
X146357482Y-101505908D01*
X146357483Y-101505908D01*
X146297883Y-101499501D01*
X146297881Y-101499500D01*
X146297873Y-101499500D01*
X146297864Y-101499500D01*
X144502129Y-101499500D01*
X144502123Y-101499501D01*
X144442516Y-101505908D01*
X144307671Y-101556202D01*
X144307664Y-101556206D01*
X144192455Y-101642452D01*
X144192452Y-101642455D01*
X144106206Y-101757664D01*
X144106203Y-101757669D01*
X144057189Y-101889083D01*
X144015317Y-101945016D01*
X143949853Y-101969433D01*
X143881580Y-101954581D01*
X143853326Y-101933430D01*
X143739786Y-101819890D01*
X143567820Y-101694951D01*
X143378414Y-101598444D01*
X143378413Y-101598443D01*
X143378412Y-101598443D01*
X143176243Y-101532754D01*
X143176241Y-101532753D01*
X143176240Y-101532753D01*
X143014957Y-101507208D01*
X142966287Y-101499500D01*
X142753713Y-101499500D01*
X142705042Y-101507208D01*
X142543760Y-101532753D01*
X142341585Y-101598444D01*
X142152179Y-101694951D01*
X141980213Y-101819890D01*
X141829890Y-101970213D01*
X141704951Y-102142179D01*
X141608444Y-102331585D01*
X141542753Y-102533760D01*
X141509500Y-102743713D01*
X139130500Y-102743713D01*
X139097246Y-102533757D01*
X139031557Y-102331588D01*
X138935051Y-102142184D01*
X138935049Y-102142181D01*
X138935048Y-102142179D01*
X138810109Y-101970213D01*
X138659786Y-101819890D01*
X138487820Y-101694951D01*
X138298414Y-101598444D01*
X138298413Y-101598443D01*
X138298412Y-101598443D01*
X138096243Y-101532754D01*
X138096241Y-101532753D01*
X138096240Y-101532753D01*
X137934957Y-101507208D01*
X137886287Y-101499500D01*
X137673713Y-101499500D01*
X137625042Y-101507208D01*
X137463760Y-101532753D01*
X137261585Y-101598444D01*
X137072179Y-101694951D01*
X136900213Y-101819890D01*
X136749890Y-101970213D01*
X136624949Y-102142182D01*
X136620484Y-102150946D01*
X136572509Y-102201742D01*
X136504688Y-102218536D01*
X136438553Y-102195998D01*
X136399516Y-102150946D01*
X136395050Y-102142182D01*
X136270109Y-101970213D01*
X136119786Y-101819890D01*
X135947820Y-101694951D01*
X135758414Y-101598444D01*
X135758413Y-101598443D01*
X135758412Y-101598443D01*
X135556243Y-101532754D01*
X135556241Y-101532753D01*
X135556240Y-101532753D01*
X135394957Y-101507208D01*
X135346287Y-101499500D01*
X135133713Y-101499500D01*
X135085042Y-101507208D01*
X134923760Y-101532753D01*
X134721585Y-101598444D01*
X134532179Y-101694951D01*
X134360213Y-101819890D01*
X134209892Y-101970211D01*
X134153097Y-102048385D01*
X134097767Y-102091051D01*
X134052779Y-102099500D01*
X132509618Y-102099500D01*
X132442579Y-102079815D01*
X132408900Y-102045408D01*
X132407915Y-102046125D01*
X132280109Y-101870213D01*
X132129786Y-101719890D01*
X131957820Y-101594951D01*
X131768414Y-101498444D01*
X131768413Y-101498443D01*
X131768412Y-101498443D01*
X131566243Y-101432754D01*
X131566241Y-101432753D01*
X131566240Y-101432753D01*
X131404957Y-101407208D01*
X131356287Y-101399500D01*
X131143713Y-101399500D01*
X131095042Y-101407208D01*
X130933760Y-101432753D01*
X130731585Y-101498444D01*
X130542179Y-101594951D01*
X130370213Y-101719890D01*
X130219890Y-101870213D01*
X130094951Y-102042179D01*
X129998444Y-102231585D01*
X129932753Y-102433760D01*
X129901077Y-102633757D01*
X129899500Y-102643713D01*
X126100500Y-102643713D01*
X126067246Y-102433757D01*
X126001557Y-102231588D01*
X125905051Y-102042184D01*
X125905049Y-102042181D01*
X125905048Y-102042179D01*
X125780109Y-101870213D01*
X125629786Y-101719890D01*
X125457820Y-101594951D01*
X125268414Y-101498444D01*
X125268413Y-101498443D01*
X125268412Y-101498443D01*
X125066243Y-101432754D01*
X125066241Y-101432753D01*
X125066240Y-101432753D01*
X124904957Y-101407208D01*
X124856287Y-101399500D01*
X124643713Y-101399500D01*
X124595042Y-101407208D01*
X124433760Y-101432753D01*
X124231585Y-101498444D01*
X124042179Y-101594951D01*
X123870213Y-101719890D01*
X123719890Y-101870213D01*
X123594951Y-102042179D01*
X123498444Y-102231585D01*
X123432753Y-102433760D01*
X123401077Y-102633757D01*
X123399500Y-102643713D01*
X121510844Y-102643713D01*
X121630246Y-102453686D01*
X121776469Y-102150051D01*
X121887776Y-101831954D01*
X121962767Y-101503394D01*
X122000500Y-101168504D01*
X122000500Y-100831496D01*
X121962767Y-100496606D01*
X121887776Y-100168046D01*
X121776469Y-99849949D01*
X121630246Y-99546314D01*
X121450946Y-99260961D01*
X121240825Y-98997477D01*
X121002523Y-98759175D01*
X120829189Y-98620946D01*
X120789050Y-98563759D01*
X120786200Y-98493947D01*
X120821545Y-98433677D01*
X120883864Y-98402084D01*
X120906503Y-98400000D01*
X164093497Y-98400000D01*
X164160536Y-98419685D01*
G37*
%TD.AperFunction*%
%TD*%
M02*
