%TF.GenerationSoftware,KiCad,Pcbnew,10.0.4*%
%TF.CreationDate,2026-09-03T23:38:23+02:00*%
%TF.ProjectId,1STM,3153544d-2e6b-4696-9361-645f70636258,rev?*%
%TF.SameCoordinates,Original*%
%TF.FileFunction,Copper,L1,Top*%
%TF.FilePolarity,Positive*%
%FSLAX46Y46*%
G04 Gerber Fmt 4.6, Leading zero omitted, Abs format (unit mm)*
G04 Created by KiCad (PCBNEW 10.0.4) date 2026-09-03 23:38:23*
%MOMM*%
%LPD*%
G01*
G04 APERTURE LIST*
G04 Aperture macros list*
%AMRoundRect*
0 Rectangle with rounded corners*
0 $1 Rounding radius*
0 $2 $3 $4 $5 $6 $7 $8 $9 X,Y pos of 4 corners*
0 Add a 4 corners polygon primitive as box body*
4,1,4,$2,$3,$4,$5,$6,$7,$8,$9,$2,$3,0*
0 Add four circle primitives for the rounded corners*
1,1,$1+$1,$2,$3*
1,1,$1+$1,$4,$5*
1,1,$1+$1,$6,$7*
1,1,$1+$1,$8,$9*
0 Add four rect primitives between the rounded corners*
20,1,$1+$1,$2,$3,$4,$5,0*
20,1,$1+$1,$4,$5,$6,$7,0*
20,1,$1+$1,$6,$7,$8,$9,0*
20,1,$1+$1,$8,$9,$2,$3,0*%
G04 Aperture macros list end*
%TA.AperFunction,SMDPad,CuDef*%
%ADD10RoundRect,0.250000X-0.450000X0.262500X-0.450000X-0.262500X0.450000X-0.262500X0.450000X0.262500X0*%
%TD*%
%TA.AperFunction,ComponentPad*%
%ADD11R,1.700000X1.700000*%
%TD*%
%TA.AperFunction,ComponentPad*%
%ADD12C,1.700000*%
%TD*%
%TA.AperFunction,SMDPad,CuDef*%
%ADD13RoundRect,0.250000X0.950000X-0.750000X0.950000X0.750000X-0.950000X0.750000X-0.950000X-0.750000X0*%
%TD*%
%TA.AperFunction,SMDPad,CuDef*%
%ADD14RoundRect,0.225000X0.250000X-0.225000X0.250000X0.225000X-0.250000X0.225000X-0.250000X-0.225000X0*%
%TD*%
%TA.AperFunction,SMDPad,CuDef*%
%ADD15RoundRect,0.250000X0.625000X-0.375000X0.625000X0.375000X-0.625000X0.375000X-0.625000X-0.375000X0*%
%TD*%
%TA.AperFunction,SMDPad,CuDef*%
%ADD16RoundRect,0.250000X0.450000X-0.262500X0.450000X0.262500X-0.450000X0.262500X-0.450000X-0.262500X0*%
%TD*%
%TA.AperFunction,SMDPad,CuDef*%
%ADD17RoundRect,0.150000X0.512500X0.150000X-0.512500X0.150000X-0.512500X-0.150000X0.512500X-0.150000X0*%
%TD*%
%TA.AperFunction,SMDPad,CuDef*%
%ADD18RoundRect,0.062500X-0.375000X-0.062500X0.375000X-0.062500X0.375000X0.062500X-0.375000X0.062500X0*%
%TD*%
%TA.AperFunction,SMDPad,CuDef*%
%ADD19RoundRect,0.062500X-0.062500X-0.375000X0.062500X-0.375000X0.062500X0.375000X-0.062500X0.375000X0*%
%TD*%
%TA.AperFunction,HeatsinkPad*%
%ADD20R,5.600000X5.600000*%
%TD*%
%TA.AperFunction,SMDPad,CuDef*%
%ADD21RoundRect,0.250000X-0.262500X-0.450000X0.262500X-0.450000X0.262500X0.450000X-0.262500X0.450000X0*%
%TD*%
%TA.AperFunction,SMDPad,CuDef*%
%ADD22RoundRect,0.225000X-0.250000X0.225000X-0.250000X-0.225000X0.250000X-0.225000X0.250000X0.225000X0*%
%TD*%
%TA.AperFunction,SMDPad,CuDef*%
%ADD23RoundRect,0.250000X0.475000X-0.250000X0.475000X0.250000X-0.475000X0.250000X-0.475000X-0.250000X0*%
%TD*%
%TA.AperFunction,SMDPad,CuDef*%
%ADD24RoundRect,0.250000X-0.475000X0.250000X-0.475000X-0.250000X0.475000X-0.250000X0.475000X0.250000X0*%
%TD*%
%TA.AperFunction,SMDPad,CuDef*%
%ADD25RoundRect,0.150000X0.425000X-0.150000X0.425000X0.150000X-0.425000X0.150000X-0.425000X-0.150000X0*%
%TD*%
%TA.AperFunction,SMDPad,CuDef*%
%ADD26RoundRect,0.075000X0.500000X-0.075000X0.500000X0.075000X-0.500000X0.075000X-0.500000X-0.075000X0*%
%TD*%
%TA.AperFunction,ComponentPad*%
%ADD27O,2.100000X1.000000*%
%TD*%
%TA.AperFunction,ComponentPad*%
%ADD28O,1.800000X1.000000*%
%TD*%
%TA.AperFunction,SMDPad,CuDef*%
%ADD29RoundRect,0.225000X0.225000X0.250000X-0.225000X0.250000X-0.225000X-0.250000X0.225000X-0.250000X0*%
%TD*%
%TA.AperFunction,SMDPad,CuDef*%
%ADD30RoundRect,0.225000X-0.225000X-0.250000X0.225000X-0.250000X0.225000X0.250000X-0.225000X0.250000X0*%
%TD*%
%TA.AperFunction,ViaPad*%
%ADD31C,5.000000*%
%TD*%
%TA.AperFunction,ViaPad*%
%ADD32C,0.700000*%
%TD*%
%TA.AperFunction,Conductor*%
%ADD33C,0.300000*%
%TD*%
%TA.AperFunction,Conductor*%
%ADD34C,0.500000*%
%TD*%
%TA.AperFunction,Conductor*%
%ADD35C,0.200000*%
%TD*%
G04 APERTURE END LIST*
D10*
%TO.P,R4,1*%
%TO.N,GND*%
X147100000Y-108475000D03*
%TO.P,R4,2*%
%TO.N,Net-(U1-BOOT0)*%
X147100000Y-110300000D03*
%TD*%
D11*
%TO.P,J4,1,Pin_1_1*%
%TO.N,/I2S2_CK*%
X150660000Y-131200000D03*
D12*
%TO.P,J4,2,Pin_2_2*%
%TO.N,/I2S2_WS*%
X153200000Y-131200000D03*
%TO.P,J4,3,Pin_3_3*%
%TO.N,/I2S2_SD*%
X155740000Y-131200000D03*
%TD*%
D11*
%TO.P,J3,1,Pin_1_1*%
%TO.N,/SPI1_SCK*%
X145400000Y-131400000D03*
D12*
%TO.P,J3,2,Pin_2_2*%
%TO.N,SPI1_MOSI*%
X142860000Y-131400000D03*
%TO.P,J3,3,Pin_3_3*%
%TO.N,SPI1_MISO*%
X140320000Y-131400000D03*
%TO.P,J3,4,Pin_4_4*%
%TO.N,/SPI1_NSS*%
X137780000Y-131400000D03*
%TD*%
D13*
%TO.P,Y1,1,1_1*%
%TO.N,OSC_OUT*%
X131900000Y-117100000D03*
%TO.P,Y1,2,2_2*%
%TO.N,OSC_IN*%
X131900000Y-113400000D03*
%TD*%
D14*
%TO.P,C8,1*%
%TO.N,GND*%
X121100000Y-108900000D03*
%TO.P,C8,2*%
%TO.N,NRST*%
X121100000Y-107350000D03*
%TD*%
D10*
%TO.P,R9,1*%
%TO.N,Net-(D1-K)*%
X119890000Y-124700000D03*
%TO.P,R9,2*%
%TO.N,USR_LED*%
X119890000Y-126525000D03*
%TD*%
D15*
%TO.P,D1,1,K_1*%
%TO.N,Net-(D1-K)*%
X119900000Y-122100000D03*
%TO.P,D1,2,A_2*%
%TO.N,+3.3V*%
X119900000Y-119300000D03*
%TD*%
D16*
%TO.P,R1,1*%
%TO.N,Net-(J1-CC2)*%
X156700000Y-114225000D03*
%TO.P,R1,2*%
%TO.N,GND*%
X156700000Y-112400000D03*
%TD*%
D17*
%TO.P,U2,1,VIN_1*%
%TO.N,+5V*%
X163200000Y-126500000D03*
%TO.P,U2,2,GND_2*%
%TO.N,GND*%
X163200000Y-125550000D03*
%TO.P,U2,3,EN_3*%
%TO.N,+5V*%
X163200000Y-124600000D03*
%TO.P,U2,4,NC_4*%
%TO.N,unconnected-(U2-NC-Pad4)*%
X160925000Y-124600000D03*
%TO.P,U2,5,OUT_5*%
%TO.N,+3.3V*%
X160925000Y-126500000D03*
%TD*%
D15*
%TO.P,D2,1,K_1*%
%TO.N,Net-(D2-K)*%
X123690000Y-122125000D03*
%TO.P,D2,2,A_2*%
%TO.N,+3.3V*%
X123690000Y-119325000D03*
%TD*%
D18*
%TO.P,U1,1,VBAT_1*%
%TO.N,+3.3V*%
X142962500Y-113550000D03*
%TO.P,U1,2,PC13_2*%
%TO.N,/GPIO (IRQ)*%
X142962500Y-114050000D03*
%TO.P,U1,3,PC14_3*%
%TO.N,/GPIO (CE)*%
X142962500Y-114550000D03*
%TO.P,U1,4,PC15_4*%
%TO.N,unconnected-(U1-PC15-Pad4)*%
X142962500Y-115050000D03*
%TO.P,U1,5,PH0_5*%
%TO.N,OSC_IN*%
X142962500Y-115550000D03*
%TO.P,U1,6,PH1_6*%
%TO.N,OSC_OUT*%
X142962500Y-116050000D03*
%TO.P,U1,7,NRST_7*%
%TO.N,NRST*%
X142962500Y-116550000D03*
%TO.P,U1,8,VSSA_8*%
%TO.N,GND*%
X142962500Y-117050000D03*
%TO.P,U1,9,VDDA_9*%
%TO.N,+3.3V*%
X142962500Y-117550000D03*
%TO.P,U1,10,PA0_10*%
%TO.N,unconnected-(U1-PA0-Pad10)*%
X142962500Y-118050000D03*
%TO.P,U1,11,PA1_11*%
%TO.N,unconnected-(U1-PA1-Pad11)*%
X142962500Y-118550000D03*
%TO.P,U1,12,PA2_12*%
%TO.N,unconnected-(U1-PA2-Pad12)*%
X142962500Y-119050000D03*
D19*
%TO.P,U1,13,PA3_13*%
%TO.N,unconnected-(U1-PA3-Pad13)*%
X143650000Y-119737500D03*
%TO.P,U1,14,PA4_14*%
%TO.N,/SPI1_NSS*%
X144150000Y-119737500D03*
%TO.P,U1,15,PA5_15*%
%TO.N,/SPI1_SCK*%
X144650000Y-119737500D03*
%TO.P,U1,16,PA6_16*%
%TO.N,SPI1_MISO*%
X145150000Y-119737500D03*
%TO.P,U1,17,PA7_17*%
%TO.N,SPI1_MOSI*%
X145650000Y-119737500D03*
%TO.P,U1,18,PB0_18*%
%TO.N,unconnected-(U1-PB0-Pad18)*%
X146150000Y-119737500D03*
%TO.P,U1,19,PB1_19*%
%TO.N,unconnected-(U1-PB1-Pad19)*%
X146650000Y-119737500D03*
%TO.P,U1,20,PB2_20*%
%TO.N,unconnected-(U1-PB2-Pad20)*%
X147150000Y-119737500D03*
%TO.P,U1,21,PB10_21*%
%TO.N,/I2S2_CK*%
X147650000Y-119737500D03*
%TO.P,U1,22,VCAP_1_22*%
%TO.N,Net-(U1-VCAP_1)*%
X148150000Y-119737500D03*
%TO.P,U1,23,VSS_23*%
%TO.N,GND*%
X148650000Y-119737500D03*
%TO.P,U1,24,VDD_24*%
%TO.N,+3.3V*%
X149150000Y-119737500D03*
D18*
%TO.P,U1,25,PB12_25*%
%TO.N,unconnected-(U1-PB12-Pad25)*%
X149837500Y-119050000D03*
%TO.P,U1,26,PB13_26*%
%TO.N,unconnected-(U1-PB13-Pad26)*%
X149837500Y-118550000D03*
%TO.P,U1,27,PB14_27*%
%TO.N,unconnected-(U1-PB14-Pad27)*%
X149837500Y-118050000D03*
%TO.P,U1,28,PB15_28*%
%TO.N,/I2S2_SD*%
X149837500Y-117550000D03*
%TO.P,U1,29,PA8_29*%
%TO.N,USR_LED*%
X149837500Y-117050000D03*
%TO.P,U1,30,PA9_30*%
%TO.N,USR_SW*%
X149837500Y-116550000D03*
%TO.P,U1,31,PA10_31*%
%TO.N,unconnected-(U1-PA10-Pad31)*%
X149837500Y-116050000D03*
%TO.P,U1,32,PA11_32*%
%TO.N,D-_USB*%
X149837500Y-115550000D03*
%TO.P,U1,33,PA12_33*%
%TO.N,D+_USB*%
X149837500Y-115050000D03*
%TO.P,U1,34,PA13_34*%
%TO.N,/SWDIO*%
X149837500Y-114550000D03*
%TO.P,U1,35,VSS_35*%
%TO.N,GND*%
X149837500Y-114050000D03*
%TO.P,U1,36,VDD_36*%
%TO.N,+3.3V*%
X149837500Y-113550000D03*
D19*
%TO.P,U1,37,PA14_37*%
%TO.N,/SWCLK*%
X149150000Y-112862500D03*
%TO.P,U1,38,PA15_38*%
%TO.N,I2S3_WS*%
X148650000Y-112862500D03*
%TO.P,U1,39,PB3_39*%
%TO.N,/I2S3_CK*%
X148150000Y-112862500D03*
%TO.P,U1,40,PB4_40*%
%TO.N,unconnected-(U1-PB4-Pad40)*%
X147650000Y-112862500D03*
%TO.P,U1,41,PB5_41*%
%TO.N,/I2S3_SD*%
X147150000Y-112862500D03*
%TO.P,U1,42,PB6_42*%
%TO.N,unconnected-(U1-PB6-Pad42)*%
X146650000Y-112862500D03*
%TO.P,U1,43,PB7_43*%
%TO.N,unconnected-(U1-PB7-Pad43)*%
X146150000Y-112862500D03*
%TO.P,U1,44,BOOT0_44*%
%TO.N,Net-(U1-BOOT0)*%
X145650000Y-112862500D03*
%TO.P,U1,45,PB8_45*%
%TO.N,unconnected-(U1-PB8-Pad45)*%
X145150000Y-112862500D03*
%TO.P,U1,46,PB9_46*%
%TO.N,/I2S2_WS*%
X144650000Y-112862500D03*
%TO.P,U1,47,VSS_47*%
%TO.N,GND*%
X144150000Y-112862500D03*
%TO.P,U1,48,VDD_48*%
%TO.N,+3.3V*%
X143650000Y-112862500D03*
D20*
%TO.P,U1,49,VSS_49*%
%TO.N,GND*%
X146400000Y-116300000D03*
%TD*%
D10*
%TO.P,R2,1*%
%TO.N,Net-(J1-CC1)*%
X156700000Y-117075000D03*
%TO.P,R2,2*%
%TO.N,GND*%
X156700000Y-118900000D03*
%TD*%
D21*
%TO.P,R7,1*%
%TO.N,USR_SW*%
X154575000Y-110100000D03*
%TO.P,R7,2*%
%TO.N,Net-(R7-Pad2)*%
X156400000Y-110100000D03*
%TD*%
D12*
%TO.P,SW1,1,1_1*%
%TO.N,NRST*%
X124750000Y-102750000D03*
X131250000Y-102750000D03*
%TO.P,SW1,2,2_2*%
%TO.N,GND*%
X124750000Y-107250000D03*
X131250000Y-107250000D03*
%TD*%
D11*
%TO.P,J2,1,Pin_1_1*%
%TO.N,+3.3V*%
X145400000Y-102850000D03*
D12*
%TO.P,J2,2,Pin_2_2*%
%TO.N,/SWDIO*%
X142860000Y-102850000D03*
%TO.P,J2,3,Pin_3_3*%
%TO.N,GND*%
X140320000Y-102850000D03*
%TO.P,J2,4,Pin_4_4*%
%TO.N,/SWCLK*%
X137780000Y-102850000D03*
%TO.P,J2,5,Pin_5_5*%
%TO.N,NRST*%
X135240000Y-102850000D03*
%TD*%
D14*
%TO.P,C6,1*%
%TO.N,GND*%
X165662500Y-126050000D03*
%TO.P,C6,2*%
%TO.N,+5V*%
X165662500Y-124500000D03*
%TD*%
D22*
%TO.P,C7,1*%
%TO.N,GND*%
X158300000Y-125450000D03*
%TO.P,C7,2*%
%TO.N,+3.3V*%
X158300000Y-127000000D03*
%TD*%
D23*
%TO.P,C1,1*%
%TO.N,GND*%
X146200000Y-124200000D03*
%TO.P,C1,2*%
%TO.N,Net-(U1-VCAP_1)*%
X146200000Y-122300000D03*
%TD*%
D11*
%TO.P,J5,1,Pin_1_1*%
%TO.N,/I2S3_CK*%
X155990000Y-102950000D03*
D12*
%TO.P,J5,2,Pin_2_2*%
%TO.N,I2S3_WS*%
X153450000Y-102950000D03*
%TO.P,J5,3,Pin_3_3*%
%TO.N,/I2S3_SD*%
X150910000Y-102950000D03*
%TD*%
D24*
%TO.P,C10,1*%
%TO.N,OSC_IN*%
X135200000Y-112400000D03*
%TO.P,C10,2*%
%TO.N,GND*%
X135200000Y-114300000D03*
%TD*%
%TO.P,C9,1*%
%TO.N,GND*%
X135200000Y-116200000D03*
%TO.P,C9,2*%
%TO.N,OSC_OUT*%
X135200000Y-118100000D03*
%TD*%
D25*
%TO.P,J1,A1,GND_A1*%
%TO.N,GND*%
X161200000Y-119050000D03*
%TO.P,J1,A4,VBUS_A4*%
%TO.N,+5V*%
X161200000Y-118250000D03*
D26*
%TO.P,J1,A5,CC1_A5*%
%TO.N,Net-(J1-CC1)*%
X161200000Y-117100000D03*
%TO.P,J1,A6,D+_A6*%
%TO.N,D+_USB*%
X161200000Y-116100000D03*
%TO.P,J1,A7,D-_A7*%
%TO.N,D-_USB*%
X161200000Y-115600000D03*
%TO.P,J1,A8,SBU1_A8*%
%TO.N,unconnected-(J1-SBU1-PadA8)*%
X161200000Y-114600000D03*
D25*
%TO.P,J1,A9,VBUS_A9*%
%TO.N,+5V*%
X161200000Y-113450000D03*
%TO.P,J1,A12,GND_A12*%
%TO.N,GND*%
X161200000Y-112650000D03*
%TO.P,J1,B1,GND_B1*%
X161200000Y-112650000D03*
%TO.P,J1,B4,VBUS_B4*%
%TO.N,+5V*%
X161200000Y-113450000D03*
D26*
%TO.P,J1,B5,CC2_B5*%
%TO.N,Net-(J1-CC2)*%
X161200000Y-114100000D03*
%TO.P,J1,B6,D+_B6*%
%TO.N,D+_USB*%
X161200000Y-115100000D03*
%TO.P,J1,B7,D-_B7*%
%TO.N,D-_USB*%
X161200000Y-116600000D03*
%TO.P,J1,B8,SBU2_B8*%
%TO.N,unconnected-(J1-SBU2-PadB8)*%
X161200000Y-117600000D03*
D25*
%TO.P,J1,B9,VBUS_B9*%
%TO.N,+5V*%
X161200000Y-118250000D03*
%TO.P,J1,B12,GND_B12*%
%TO.N,GND*%
X161200000Y-119050000D03*
D27*
%TO.P,J1,SH,SHIELD_SH*%
X161775000Y-120170000D03*
D28*
X165955000Y-120170000D03*
D27*
X161775000Y-111530000D03*
D28*
X165955000Y-111530000D03*
%TD*%
D11*
%TO.P,J6,1,Pin_1_1*%
%TO.N,/GPIO (IRQ)*%
X129360000Y-131600000D03*
D12*
%TO.P,J6,2,Pin_2_2*%
%TO.N,/GPIO (CE)*%
X131900000Y-131600000D03*
%TD*%
D22*
%TO.P,C3,1*%
%TO.N,+3.3V*%
X152400000Y-113000000D03*
%TO.P,C3,2*%
%TO.N,GND*%
X152400000Y-114550000D03*
%TD*%
D29*
%TO.P,C2,1*%
%TO.N,+3.3V*%
X149750000Y-122300000D03*
%TO.P,C2,2*%
%TO.N,GND*%
X148200000Y-122300000D03*
%TD*%
D30*
%TO.P,C4,1*%
%TO.N,+3.3V*%
X143150000Y-110300000D03*
%TO.P,C4,2*%
%TO.N,GND*%
X144700000Y-110300000D03*
%TD*%
D21*
%TO.P,R5,1*%
%TO.N,NRST*%
X135275000Y-108100000D03*
%TO.P,R5,2*%
%TO.N,+3.3V*%
X137100000Y-108100000D03*
%TD*%
D10*
%TO.P,R8,1*%
%TO.N,Net-(D2-K)*%
X123690000Y-124800000D03*
%TO.P,R8,2*%
%TO.N,GND*%
X123690000Y-126625000D03*
%TD*%
D12*
%TO.P,SW2,1,1_1*%
%TO.N,Net-(R7-Pad2)*%
X166050000Y-109150000D03*
X159550000Y-109150000D03*
%TO.P,SW2,2,2_2*%
%TO.N,GND*%
X166050000Y-104650000D03*
X159550000Y-104650000D03*
%TD*%
D14*
%TO.P,C5,1*%
%TO.N,+3.3V*%
X140500000Y-118500000D03*
%TO.P,C5,2*%
%TO.N,GND*%
X140500000Y-116950000D03*
%TD*%
D31*
%TO.N,*%
X119000000Y-131000000D03*
X119000000Y-101000000D03*
X166000000Y-101000000D03*
X166000000Y-131000000D03*
D32*
%TO.N,GND*%
X135200000Y-115300000D03*
X158300000Y-123500000D03*
X141700000Y-110200000D03*
X138300000Y-119100000D03*
X125700000Y-126600000D03*
X149500000Y-124700000D03*
X164900000Y-126812500D03*
X145300000Y-107700000D03*
X146400000Y-116300000D03*
%TO.N,NRST*%
X135300000Y-109400000D03*
X130700000Y-120200000D03*
X133300000Y-106500000D03*
X127950000Y-120150000D03*
%TO.N,+3.3V*%
X149600000Y-108400000D03*
X140000000Y-110000000D03*
X127900000Y-121900000D03*
X130700000Y-121900000D03*
X154600000Y-123200000D03*
X156200000Y-121600000D03*
X151700000Y-110500000D03*
X141000000Y-111000000D03*
%TO.N,USR_SW*%
X154700000Y-114900000D03*
X154700000Y-116800000D03*
%TD*%
%TO.N,GND*%
D33*
X149837500Y-114050000D02*
X151900000Y-114050000D01*
D34*
X161200000Y-119050000D02*
X156850000Y-119050000D01*
D35*
X144150000Y-112862500D02*
X144100000Y-112812500D01*
D33*
X125675000Y-126625000D02*
X125700000Y-126600000D01*
D35*
X140600000Y-117050000D02*
X140500000Y-116950000D01*
D33*
X144150000Y-110850000D02*
X144700000Y-110300000D01*
X151900000Y-114050000D02*
X152400000Y-114550000D01*
D34*
X146200000Y-124200000D02*
X149000000Y-124200000D01*
X135200000Y-115300000D02*
X135200000Y-116200000D01*
X165162500Y-125550000D02*
X165662500Y-126050000D01*
X148200000Y-123400000D02*
X149000000Y-124200000D01*
X141700000Y-110200000D02*
X142650000Y-109250000D01*
X145300000Y-107700000D02*
X146075000Y-108475000D01*
X144700000Y-110000000D02*
X144700000Y-110300000D01*
X143950000Y-109250000D02*
X144700000Y-110000000D01*
D33*
X144150000Y-112862500D02*
X144150000Y-110850000D01*
D34*
X123100000Y-108900000D02*
X124750000Y-107250000D01*
D35*
X140500000Y-116950000D02*
X140450000Y-116950000D01*
D34*
X142650000Y-109250000D02*
X143950000Y-109250000D01*
D33*
X148650000Y-114050000D02*
X146400000Y-116300000D01*
X148650000Y-121850000D02*
X148650000Y-119737500D01*
D34*
X146075000Y-108475000D02*
X147100000Y-108475000D01*
X149000000Y-124200000D02*
X149500000Y-124700000D01*
X135200000Y-114300000D02*
X135200000Y-115300000D01*
X140450000Y-116950000D02*
X138300000Y-119100000D01*
D33*
X142962500Y-117050000D02*
X140600000Y-117050000D01*
D34*
X123690000Y-126625000D02*
X125675000Y-126625000D01*
X121100000Y-108900000D02*
X123100000Y-108900000D01*
D33*
X148200000Y-122300000D02*
X148650000Y-121850000D01*
D34*
X148200000Y-122300000D02*
X148200000Y-123400000D01*
X164900000Y-126812500D02*
X165662500Y-126050000D01*
D35*
X156850000Y-119050000D02*
X156700000Y-118900000D01*
D34*
X163200000Y-125550000D02*
X165162500Y-125550000D01*
D33*
X149837500Y-114050000D02*
X148650000Y-114050000D01*
D34*
X161200000Y-112650000D02*
X157150000Y-112650000D01*
X158300000Y-125450000D02*
X158300000Y-123500000D01*
%TO.N,Net-(U1-BOOT0)*%
D35*
X146500000Y-110900000D02*
X147100000Y-110300000D01*
X145650000Y-112410614D02*
X146500000Y-111560614D01*
X145650000Y-112862500D02*
X145650000Y-112410614D01*
X146500000Y-111560614D02*
X146500000Y-110900000D01*
%TO.N,/I2S2_CK*%
X150660000Y-130360000D02*
X150660000Y-131200000D01*
X144400000Y-122202130D02*
X144400000Y-128702942D01*
X144400000Y-128702942D02*
X145147058Y-129450000D01*
X146002130Y-120600000D02*
X144400000Y-122202130D01*
X147300000Y-120600000D02*
X146002130Y-120600000D01*
X149750000Y-129450000D02*
X150660000Y-130360000D01*
X147650000Y-120250000D02*
X147300000Y-120600000D01*
X145147058Y-129450000D02*
X149750000Y-129450000D01*
X147650000Y-119737500D02*
X147650000Y-120250000D01*
%TO.N,/I2S2_WS*%
X130434315Y-110700000D02*
X140300000Y-110700000D01*
X128210000Y-130450000D02*
X128960000Y-129700000D01*
X139134314Y-132900000D02*
X128360000Y-132900000D01*
X153200000Y-131200000D02*
X151050000Y-133350000D01*
X141050000Y-109930761D02*
X142280761Y-108700000D01*
X139584314Y-133350000D02*
X139134314Y-132900000D01*
X142280761Y-108700000D02*
X145200000Y-108700000D01*
X128960000Y-112174314D02*
X130434315Y-110700000D01*
X144650000Y-112350000D02*
X144650000Y-112862500D01*
X151050000Y-133350000D02*
X139584314Y-133350000D01*
X128960000Y-129700000D02*
X128960000Y-112174314D01*
X145800000Y-109300000D02*
X145800000Y-111200000D01*
X128360000Y-132900000D02*
X128210000Y-132750000D01*
X145800000Y-111200000D02*
X144650000Y-112350000D01*
X145200000Y-108700000D02*
X145800000Y-109300000D01*
X128210000Y-132750000D02*
X128210000Y-130450000D01*
X140300000Y-110700000D02*
X141050000Y-109950000D01*
X141050000Y-109950000D02*
X141050000Y-109930761D01*
%TO.N,/I2S2_SD*%
X150289386Y-117550000D02*
X149837500Y-117550000D01*
X155740000Y-131200000D02*
X156490000Y-130450000D01*
X156490000Y-130450000D02*
X156490000Y-123750615D01*
X156490000Y-123750615D02*
X150289386Y-117550000D01*
%TO.N,/SPI1_SCK*%
X143200000Y-129200000D02*
X145400000Y-131400000D01*
X144650000Y-119737500D02*
X144650000Y-120255072D01*
X144650000Y-120255072D02*
X143200000Y-121705072D01*
X143200000Y-121705072D02*
X143200000Y-129200000D01*
%TO.N,SPI1_MOSI*%
X145650000Y-120386444D02*
X144000000Y-122036444D01*
X141710000Y-130250000D02*
X142860000Y-131400000D01*
X147050000Y-132950000D02*
X139750000Y-132950000D01*
X147200000Y-132800000D02*
X147050000Y-132950000D01*
X147200000Y-130000000D02*
X147200000Y-132800000D01*
X145650000Y-119737500D02*
X145650000Y-120386444D01*
X139750000Y-132950000D02*
X139170000Y-132370000D01*
X144000000Y-128868628D02*
X144981372Y-129850000D01*
X139843654Y-130250000D02*
X141710000Y-130250000D01*
X147050000Y-129850000D02*
X147200000Y-130000000D01*
X139170000Y-130923654D02*
X139843654Y-130250000D01*
X144000000Y-122036444D02*
X144000000Y-128868628D01*
X144981372Y-129850000D02*
X147050000Y-129850000D01*
X139170000Y-132370000D02*
X139170000Y-130923654D01*
%TO.N,SPI1_MISO*%
X143600000Y-121870758D02*
X145150000Y-120320758D01*
X146650000Y-130250000D02*
X144815686Y-130250000D01*
X145150000Y-120320758D02*
X145150000Y-119737500D01*
X146650000Y-132550000D02*
X146800000Y-132400000D01*
X140320000Y-131400000D02*
X141470000Y-132550000D01*
X143600000Y-129034314D02*
X143600000Y-121870758D01*
X146800000Y-130400000D02*
X146650000Y-130250000D01*
X146800000Y-132400000D02*
X146800000Y-130400000D01*
X141470000Y-132550000D02*
X146650000Y-132550000D01*
X144815686Y-130250000D02*
X143600000Y-129034314D01*
%TO.N,/SPI1_NSS*%
X137780000Y-131220000D02*
X137780000Y-131400000D01*
X142800000Y-129300000D02*
X142250000Y-129850000D01*
X144150000Y-120189386D02*
X142800000Y-121539386D01*
X144150000Y-119737500D02*
X144150000Y-120189386D01*
X142800000Y-121539386D02*
X142800000Y-129300000D01*
X139150000Y-129850000D02*
X137780000Y-131220000D01*
X142250000Y-129850000D02*
X139150000Y-129850000D01*
%TO.N,OSC_OUT*%
X134200000Y-117100000D02*
X135200000Y-118100000D01*
X142444928Y-116050000D02*
X142962500Y-116050000D01*
X142194928Y-115800000D02*
X142444928Y-116050000D01*
X135500000Y-118100000D02*
X137800000Y-115800000D01*
X135200000Y-118100000D02*
X135500000Y-118100000D01*
X137800000Y-115800000D02*
X142194928Y-115800000D01*
X131900000Y-117100000D02*
X134200000Y-117100000D01*
%TO.N,OSC_IN*%
X142510614Y-115550000D02*
X142962500Y-115550000D01*
X131900000Y-113400000D02*
X134200000Y-113400000D01*
X134200000Y-113400000D02*
X135200000Y-112400000D01*
X135200000Y-112790256D02*
X137809744Y-115400000D01*
X137809744Y-115400000D02*
X142360614Y-115400000D01*
X135200000Y-112400000D02*
X135200000Y-112790256D01*
X142360614Y-115400000D02*
X142510614Y-115550000D01*
%TO.N,NRST*%
X130700000Y-120200000D02*
X136026304Y-120200000D01*
D33*
X131250000Y-104450000D02*
X131250000Y-102750000D01*
X135300000Y-108125000D02*
X135275000Y-108100000D01*
D35*
X127950000Y-120150000D02*
X128560000Y-119540000D01*
X124750000Y-102750000D02*
X131250000Y-102750000D01*
X142379242Y-116550000D02*
X142962500Y-116550000D01*
D33*
X135300000Y-109400000D02*
X135300000Y-108125000D01*
D35*
X130768628Y-109800000D02*
X133575000Y-109800000D01*
D33*
X133300000Y-106500000D02*
X131250000Y-104450000D01*
D35*
X128560000Y-112008628D02*
X130768628Y-109800000D01*
X121100000Y-107350000D02*
X121100000Y-106400000D01*
X140026304Y-116200000D02*
X142029242Y-116200000D01*
X136026304Y-120200000D02*
X140026304Y-116200000D01*
X133575000Y-109800000D02*
X135275000Y-108100000D01*
X128560000Y-119540000D02*
X128560000Y-112008628D01*
X121100000Y-106400000D02*
X124750000Y-102750000D01*
X131350000Y-102850000D02*
X131250000Y-102750000D01*
X142029242Y-116200000D02*
X142379242Y-116550000D01*
%TO.N,Net-(D1-K)*%
X119900000Y-124690000D02*
X119890000Y-124700000D01*
D33*
X119900000Y-122100000D02*
X119900000Y-124690000D01*
%TO.N,USR_LED*%
D35*
X154816346Y-133750000D02*
X127115000Y-133750000D01*
X156890000Y-131676346D02*
X154816346Y-133750000D01*
X150355071Y-117050000D02*
X156890000Y-123584929D01*
X156890000Y-123584929D02*
X156890000Y-131676346D01*
X149837500Y-117050000D02*
X150355071Y-117050000D01*
X127115000Y-133750000D02*
X119890000Y-126525000D01*
%TO.N,+3.3V*%
D34*
X141700000Y-105300000D02*
X142325000Y-105925000D01*
X158300000Y-127000000D02*
X159000000Y-127700000D01*
X134715622Y-106950000D02*
X134312500Y-107353122D01*
D33*
X149150000Y-121950000D02*
X149150000Y-119737500D01*
X143650000Y-112862500D02*
X143650000Y-110800000D01*
D34*
X133400000Y-104500000D02*
X134200000Y-105300000D01*
X137100000Y-121900000D02*
X140500000Y-118500000D01*
X154100000Y-123700000D02*
X150400000Y-123700000D01*
D33*
X140500000Y-118500000D02*
X141450000Y-117550000D01*
D34*
X128010000Y-111780810D02*
X128010000Y-117790000D01*
X157300000Y-122700000D02*
X158631371Y-122700000D01*
X151700000Y-112300000D02*
X152400000Y-113000000D01*
X150400000Y-123700000D02*
X149750000Y-123050000D01*
X137100000Y-108100000D02*
X140150000Y-108100000D01*
D35*
X140500000Y-118500000D02*
X140500000Y-118300000D01*
D33*
X142962500Y-113550000D02*
X143650000Y-112862500D01*
D34*
X141000000Y-111000000D02*
X141200000Y-111200000D01*
X134312500Y-108187500D02*
X133250000Y-109250000D01*
X125325000Y-119325000D02*
X123690000Y-119325000D01*
X159000000Y-127700000D02*
X166300000Y-127700000D01*
X134312500Y-107353122D02*
X134312500Y-108187500D01*
X127900000Y-121900000D02*
X125325000Y-119325000D01*
X140150000Y-108100000D02*
X142325000Y-105925000D01*
D35*
X119900000Y-119300000D02*
X120100000Y-119300000D01*
D34*
X140000000Y-110000000D02*
X140000000Y-108250000D01*
X167350000Y-123350000D02*
X167350000Y-108050000D01*
X147125000Y-105925000D02*
X149600000Y-108400000D01*
X126475000Y-119325000D02*
X123690000Y-119325000D01*
X120125000Y-119325000D02*
X123690000Y-119325000D01*
X160925000Y-126500000D02*
X159600000Y-126500000D01*
X167000000Y-127000000D02*
X167000000Y-123700000D01*
X166300000Y-127700000D02*
X167000000Y-127000000D01*
X167000000Y-123700000D02*
X167350000Y-123350000D01*
X151700000Y-110500000D02*
X151700000Y-112300000D01*
X166100000Y-106800000D02*
X164049188Y-106800000D01*
D35*
X149750000Y-122300000D02*
X149500000Y-122300000D01*
D34*
X134200000Y-105300000D02*
X141700000Y-105300000D01*
X133250000Y-109250000D02*
X130540810Y-109250000D01*
X142325000Y-105925000D02*
X145400000Y-102850000D01*
D35*
X143200000Y-110300000D02*
X143150000Y-110300000D01*
D34*
X140000000Y-108250000D02*
X140150000Y-108100000D01*
X135950000Y-106950000D02*
X134715622Y-106950000D01*
X164049188Y-106800000D02*
X157249188Y-100000000D01*
D33*
X149500000Y-122300000D02*
X149150000Y-121950000D01*
X143650000Y-110800000D02*
X143150000Y-110300000D01*
D34*
X154600000Y-123200000D02*
X154100000Y-123700000D01*
D35*
X120100000Y-119300000D02*
X120125000Y-119325000D01*
D34*
X137100000Y-108100000D02*
X135950000Y-106950000D01*
X130700000Y-121900000D02*
X137100000Y-121900000D01*
X130540810Y-109250000D02*
X128010000Y-111780810D01*
X156200000Y-121600000D02*
X157300000Y-122700000D01*
X159600000Y-126500000D02*
X158800000Y-126500000D01*
X134400000Y-100000000D02*
X133400000Y-101000000D01*
X158800000Y-126500000D02*
X158300000Y-127000000D01*
X158631371Y-122700000D02*
X159600000Y-123668629D01*
D33*
X151850000Y-113550000D02*
X152400000Y-113000000D01*
D35*
X143400000Y-110500000D02*
X143200000Y-110300000D01*
D34*
X133400000Y-101000000D02*
X133400000Y-104500000D01*
D33*
X149837500Y-113550000D02*
X151850000Y-113550000D01*
D34*
X149750000Y-123050000D02*
X149750000Y-122300000D01*
X128010000Y-117790000D02*
X126475000Y-119325000D01*
D33*
X141450000Y-117550000D02*
X142962500Y-117550000D01*
D34*
X142325000Y-105925000D02*
X147125000Y-105925000D01*
X157249188Y-100000000D02*
X134400000Y-100000000D01*
X141200000Y-111200000D02*
X142250000Y-111200000D01*
X167350000Y-108050000D02*
X166100000Y-106800000D01*
X159600000Y-123668629D02*
X159600000Y-126500000D01*
X142250000Y-111200000D02*
X143150000Y-110300000D01*
%TO.N,Net-(J1-CC2)*%
D35*
X156775000Y-114100000D02*
X156700000Y-114025000D01*
X161200000Y-114100000D02*
X156775000Y-114100000D01*
%TO.N,+5V*%
D34*
X163200000Y-114875001D02*
X163300000Y-114975001D01*
X162537501Y-124600000D02*
X163200000Y-124600000D01*
D35*
X161200000Y-118250000D02*
X161335000Y-118115000D01*
D34*
X163300000Y-124500000D02*
X163200000Y-124600000D01*
X162087500Y-125050001D02*
X162537501Y-124600000D01*
D35*
X165562500Y-124600000D02*
X165662500Y-124500000D01*
D34*
X162634816Y-126500000D02*
X162087500Y-125952684D01*
D33*
X163100000Y-116924999D02*
X161774999Y-118250000D01*
D34*
X163200000Y-124600000D02*
X165562500Y-124600000D01*
X163300000Y-114975001D02*
X163300000Y-124500000D01*
D33*
X161774999Y-113450000D02*
X163200000Y-114875001D01*
D34*
X162087500Y-125952684D02*
X162087500Y-125050001D01*
X162846948Y-126500000D02*
X162634816Y-126500000D01*
D35*
X161774999Y-118250000D02*
X161200000Y-118250000D01*
X163200000Y-126500000D02*
X162846948Y-126500000D01*
%TO.N,Net-(D2-K)*%
D33*
X123690000Y-122125000D02*
X123690000Y-124800000D01*
%TO.N,/GPIO (IRQ)*%
D35*
X142510614Y-114050000D02*
X139560614Y-111100000D01*
X130600000Y-111100000D02*
X129360000Y-112340000D01*
X142962500Y-114050000D02*
X142510614Y-114050000D01*
X129360000Y-112340000D02*
X129360000Y-131600000D01*
X139560614Y-111100000D02*
X130600000Y-111100000D01*
%TO.N,/GPIO (CE)*%
X129760000Y-112540000D02*
X129760000Y-129460000D01*
X130700000Y-111600000D02*
X129760000Y-112540000D01*
X139494928Y-111600000D02*
X130700000Y-111600000D01*
X142444928Y-114550000D02*
X139494928Y-111600000D01*
X142962500Y-114550000D02*
X142444928Y-114550000D01*
X129760000Y-129460000D02*
X131900000Y-131600000D01*
%TO.N,Net-(U1-VCAP_1)*%
X146000000Y-122400000D02*
X146100000Y-122500000D01*
X148150000Y-120850000D02*
X146700000Y-122300000D01*
X148150000Y-119737500D02*
X148150000Y-120850000D01*
X146700000Y-122300000D02*
X146000000Y-122300000D01*
%TO.N,USR_SW*%
D33*
X154575000Y-114775000D02*
X154575000Y-110100000D01*
X154700000Y-116800000D02*
X154700000Y-116600000D01*
X154450000Y-116550000D02*
X154700000Y-116800000D01*
X154700000Y-114900000D02*
X154575000Y-114775000D01*
X149837500Y-116550000D02*
X154450000Y-116550000D01*
%TO.N,D-_USB*%
D35*
X149837500Y-115550000D02*
X151044932Y-115550000D01*
X160325000Y-115867590D02*
X160325000Y-116332410D01*
X160592590Y-115600000D02*
X160325000Y-115867590D01*
X151594933Y-116100000D02*
X153205070Y-116099999D01*
X161200000Y-115600000D02*
X160592590Y-115600000D01*
X159500000Y-116000000D02*
X160100000Y-116600000D01*
X160592590Y-116600000D02*
X161200000Y-116600000D01*
X153205070Y-116099999D02*
X153305067Y-116000000D01*
X153305067Y-116000000D02*
X159500000Y-116000000D01*
X160325000Y-116332410D02*
X160592590Y-116600000D01*
X160100000Y-116600000D02*
X161200000Y-116600000D01*
X151044932Y-115550000D02*
X151594933Y-116100000D01*
%TO.N,D+_USB*%
X162075000Y-115925000D02*
X161900000Y-116100000D01*
X159500000Y-115600000D02*
X160000000Y-115100000D01*
X149837500Y-115050000D02*
X151110618Y-115050000D01*
X153039382Y-115700000D02*
X153139381Y-115600000D01*
X161900000Y-116100000D02*
X161200000Y-116100000D01*
X161200000Y-115100000D02*
X161807410Y-115100000D01*
X153139381Y-115600000D02*
X159500000Y-115600000D01*
X162075000Y-115367590D02*
X162075000Y-115925000D01*
X160000000Y-115100000D02*
X161200000Y-115100000D01*
X151760618Y-115700000D02*
X153039382Y-115700000D01*
X151110618Y-115050000D02*
X151760618Y-115700000D01*
X161807410Y-115100000D02*
X162075000Y-115367590D01*
%TO.N,/SWDIO*%
X157940000Y-104691372D02*
X157031370Y-105600000D01*
X156165686Y-105600000D02*
X153600000Y-108165686D01*
X151176304Y-114550000D02*
X149837500Y-114550000D01*
X153600000Y-114573696D02*
X152873696Y-115300000D01*
X153600000Y-108165686D02*
X153600000Y-114573696D01*
X152873696Y-115300000D02*
X151926304Y-115300000D01*
X157031370Y-105600000D02*
X156165686Y-105600000D01*
X142890000Y-102850000D02*
X142890000Y-102310000D01*
X157940000Y-101468630D02*
X157940000Y-104691372D01*
X142890000Y-102310000D02*
X144400000Y-100800000D01*
X157271370Y-100800000D02*
X157940000Y-101468630D01*
X144400000Y-100800000D02*
X157271370Y-100800000D01*
X151926304Y-115300000D02*
X151176304Y-114550000D01*
%TO.N,/SWCLK*%
X156865685Y-105200000D02*
X156000000Y-105200000D01*
X144010000Y-101970000D02*
X144780000Y-101200000D01*
X149150000Y-112050000D02*
X149150000Y-112862500D01*
X144010000Y-103356346D02*
X144010000Y-101970000D01*
X157540000Y-104525686D02*
X156865685Y-105200000D01*
X137810000Y-102850000D02*
X138960000Y-104000000D01*
X144780000Y-101200000D02*
X157105685Y-101200000D01*
X157540000Y-101634315D02*
X157540000Y-104525686D01*
X157105685Y-101200000D02*
X157540000Y-101634315D01*
X143366346Y-104000000D02*
X144010000Y-103356346D01*
X156000000Y-105200000D02*
X149150000Y-112050000D01*
X138960000Y-104000000D02*
X143366346Y-104000000D01*
%TO.N,I2S3_WS*%
X153450000Y-102950000D02*
X154600000Y-101800000D01*
X157140000Y-104360000D02*
X156700000Y-104800000D01*
X156700000Y-104800000D02*
X155800000Y-104800000D01*
X155800000Y-104800000D02*
X148650000Y-111950000D01*
X148650000Y-111950000D02*
X148650000Y-112862500D01*
X154600000Y-101800000D02*
X157140000Y-101800000D01*
X157140000Y-101800000D02*
X157140000Y-104360000D01*
%TO.N,/I2S3_CK*%
X148150000Y-111884314D02*
X148150000Y-112862500D01*
X155990000Y-102950000D02*
X155990000Y-104044314D01*
X155990000Y-104044314D02*
X148150000Y-111884314D01*
%TO.N,/I2S3_SD*%
X153000000Y-106468628D02*
X147150000Y-112318628D01*
X150910000Y-102950000D02*
X153000000Y-105040000D01*
X147150000Y-112318628D02*
X147150000Y-112862500D01*
X153000000Y-105040000D02*
X153000000Y-106468628D01*
%TO.N,Net-(J1-CC1)*%
X161200000Y-117100000D02*
X156725000Y-117100000D01*
X156725000Y-117100000D02*
X156700000Y-117075000D01*
%TO.N,Net-(R7-Pad2)*%
X157050000Y-109450000D02*
X156400000Y-110100000D01*
D33*
X166050000Y-109150000D02*
X159550000Y-109150000D01*
D35*
X160150000Y-109450000D02*
X157050000Y-109450000D01*
%TD*%
%TA.AperFunction,Conductor*%
%TO.N,GND*%
G36*
X164160536Y-98419685D02*
G01*
X164206291Y-98472489D01*
X164216235Y-98541647D01*
X164187210Y-98605203D01*
X164170810Y-98620947D01*
X163997477Y-98759174D01*
X163759174Y-98997477D01*
X163549053Y-99260962D01*
X163369752Y-99546316D01*
X163223532Y-99849945D01*
X163112227Y-100168034D01*
X163112223Y-100168046D01*
X163037233Y-100496602D01*
X163037231Y-100496618D01*
X162999500Y-100831491D01*
X162999500Y-101168508D01*
X163037231Y-101503381D01*
X163037233Y-101503397D01*
X163112223Y-101831953D01*
X163112227Y-101831965D01*
X163223532Y-102150054D01*
X163369752Y-102453683D01*
X163369754Y-102453686D01*
X163549054Y-102739039D01*
X163759175Y-103002523D01*
X163997477Y-103240825D01*
X164260961Y-103450946D01*
X164546314Y-103630246D01*
X164546316Y-103630247D01*
X164603564Y-103657816D01*
X164849949Y-103776469D01*
X165025989Y-103838068D01*
X165168034Y-103887772D01*
X165168046Y-103887776D01*
X165496606Y-103962767D01*
X165831492Y-104000499D01*
X165831493Y-104000500D01*
X165831496Y-104000500D01*
X166168507Y-104000500D01*
X166168507Y-104000499D01*
X166503394Y-103962767D01*
X166831954Y-103887776D01*
X167150051Y-103776469D01*
X167453686Y-103630246D01*
X167739039Y-103450946D01*
X168002523Y-103240825D01*
X168240825Y-103002523D01*
X168379053Y-102829189D01*
X168436241Y-102789050D01*
X168506053Y-102786200D01*
X168566323Y-102821545D01*
X168597916Y-102883864D01*
X168600000Y-102906503D01*
X168600000Y-129093496D01*
X168580315Y-129160535D01*
X168527511Y-129206290D01*
X168458353Y-129216234D01*
X168394797Y-129187209D01*
X168379053Y-129170809D01*
X168240825Y-128997477D01*
X168002522Y-128759174D01*
X167872773Y-128655703D01*
X167739039Y-128549054D01*
X167453686Y-128369754D01*
X167453683Y-128369752D01*
X167150057Y-128223533D01*
X167105034Y-128207779D01*
X167048259Y-128167057D01*
X167022512Y-128102104D01*
X167035969Y-128033543D01*
X167058306Y-128003060D01*
X167582951Y-127478416D01*
X167665084Y-127355495D01*
X167721658Y-127218913D01*
X167731769Y-127168081D01*
X167750500Y-127073918D01*
X167750500Y-124062230D01*
X167770185Y-123995191D01*
X167786814Y-123974553D01*
X167932952Y-123828416D01*
X167990584Y-123742162D01*
X168015084Y-123705495D01*
X168045133Y-123632951D01*
X168071659Y-123568912D01*
X168100500Y-123423917D01*
X168100500Y-123276082D01*
X168100500Y-107976082D01*
X168100500Y-107976079D01*
X168071659Y-107831092D01*
X168071658Y-107831091D01*
X168071658Y-107831087D01*
X168058574Y-107799500D01*
X168015086Y-107694508D01*
X167951933Y-107599992D01*
X167951933Y-107599991D01*
X167951931Y-107599990D01*
X167932952Y-107571584D01*
X166578416Y-106217048D01*
X166492401Y-106159576D01*
X166455495Y-106134916D01*
X166455493Y-106134915D01*
X166455490Y-106134913D01*
X166318917Y-106078343D01*
X166318907Y-106078340D01*
X166173920Y-106049500D01*
X166173918Y-106049500D01*
X164411417Y-106049500D01*
X164344378Y-106029815D01*
X164323736Y-106013181D01*
X157727609Y-99417052D01*
X157727602Y-99417046D01*
X157653917Y-99367812D01*
X157653917Y-99367813D01*
X157604679Y-99334913D01*
X157468105Y-99278343D01*
X157468095Y-99278340D01*
X157323108Y-99249500D01*
X157323106Y-99249500D01*
X134326082Y-99249500D01*
X134326076Y-99249500D01*
X134297242Y-99255234D01*
X134297243Y-99255235D01*
X134181093Y-99278339D01*
X134181083Y-99278342D01*
X134101081Y-99311479D01*
X134101082Y-99311480D01*
X134044505Y-99334915D01*
X133962372Y-99389795D01*
X133921585Y-99417047D01*
X133921581Y-99417050D01*
X132817048Y-100521583D01*
X132796478Y-100552369D01*
X132776045Y-100582951D01*
X132734919Y-100644499D01*
X132734912Y-100644511D01*
X132678343Y-100781082D01*
X132678340Y-100781092D01*
X132649500Y-100926079D01*
X132649500Y-102005444D01*
X132629815Y-102072483D01*
X132577011Y-102118238D01*
X132507853Y-102128182D01*
X132444297Y-102099157D01*
X132415016Y-102061740D01*
X132405050Y-102042182D01*
X132280109Y-101870213D01*
X132129786Y-101719890D01*
X131957820Y-101594951D01*
X131768414Y-101498444D01*
X131768413Y-101498443D01*
X131768412Y-101498443D01*
X131566243Y-101432754D01*
X131566241Y-101432753D01*
X131566240Y-101432753D01*
X131404957Y-101407208D01*
X131356287Y-101399500D01*
X131143713Y-101399500D01*
X131095042Y-101407208D01*
X130933760Y-101432753D01*
X130731585Y-101498444D01*
X130542179Y-101594951D01*
X130370213Y-101719890D01*
X130219890Y-101870213D01*
X130094948Y-102042184D01*
X130094947Y-102042185D01*
X130074765Y-102081795D01*
X130026791Y-102132591D01*
X129964281Y-102149500D01*
X126035719Y-102149500D01*
X125968680Y-102129815D01*
X125925235Y-102081795D01*
X125905052Y-102042185D01*
X125905051Y-102042184D01*
X125780109Y-101870213D01*
X125629786Y-101719890D01*
X125457820Y-101594951D01*
X125268414Y-101498444D01*
X125268413Y-101498443D01*
X125268412Y-101498443D01*
X125066243Y-101432754D01*
X125066241Y-101432753D01*
X125066240Y-101432753D01*
X124904957Y-101407208D01*
X124856287Y-101399500D01*
X124643713Y-101399500D01*
X124595042Y-101407208D01*
X124433760Y-101432753D01*
X124231585Y-101498444D01*
X124042179Y-101594951D01*
X123870213Y-101719890D01*
X123719890Y-101870213D01*
X123594951Y-102042179D01*
X123498444Y-102231585D01*
X123432753Y-102433760D01*
X123424107Y-102488349D01*
X123399500Y-102643713D01*
X123399500Y-102856287D01*
X123415338Y-102956286D01*
X123432754Y-103066244D01*
X123432754Y-103066247D01*
X123446491Y-103108523D01*
X123448486Y-103178364D01*
X123416241Y-103234522D01*
X120731286Y-105919478D01*
X120619481Y-106031282D01*
X120619480Y-106031284D01*
X120581460Y-106097137D01*
X120559650Y-106134913D01*
X120541267Y-106166754D01*
X120540423Y-106168215D01*
X120499499Y-106320943D01*
X120499499Y-106320945D01*
X120499499Y-106419575D01*
X120479814Y-106486614D01*
X120440597Y-106525113D01*
X120396957Y-106552030D01*
X120277029Y-106671959D01*
X120188001Y-106816294D01*
X120187996Y-106816305D01*
X120134651Y-106977290D01*
X120124500Y-107076647D01*
X120124500Y-107623337D01*
X120124501Y-107623355D01*
X120134650Y-107722707D01*
X120134651Y-107722710D01*
X120187996Y-107883694D01*
X120188001Y-107883705D01*
X120277029Y-108028040D01*
X120277032Y-108028044D01*
X120396955Y-108147967D01*
X120396959Y-108147970D01*
X120541294Y-108236998D01*
X120541297Y-108236999D01*
X120541303Y-108237003D01*
X120702292Y-108290349D01*
X120801655Y-108300500D01*
X121398344Y-108300499D01*
X121398352Y-108300498D01*
X121398355Y-108300498D01*
X121452760Y-108294940D01*
X121497708Y-108290349D01*
X121658697Y-108237003D01*
X121803044Y-108147968D01*
X121922968Y-108028044D01*
X122012003Y-107883697D01*
X122065349Y-107722708D01*
X122075500Y-107623345D01*
X122075499Y-107076656D01*
X122071975Y-107042162D01*
X122065349Y-106977292D01*
X122065348Y-106977289D01*
X122061338Y-106965187D01*
X122012003Y-106816303D01*
X122011999Y-106816297D01*
X122011998Y-106816294D01*
X121922970Y-106671959D01*
X121922967Y-106671955D01*
X121887804Y-106636792D01*
X121854319Y-106575469D01*
X121859303Y-106505777D01*
X121887804Y-106461430D01*
X123068715Y-105280519D01*
X124265478Y-104083755D01*
X124326799Y-104050272D01*
X124391473Y-104053506D01*
X124433757Y-104067246D01*
X124643713Y-104100500D01*
X124643714Y-104100500D01*
X124856286Y-104100500D01*
X124856287Y-104100500D01*
X125066243Y-104067246D01*
X125268412Y-104001557D01*
X125457816Y-103905051D01*
X125536517Y-103847872D01*
X125629786Y-103780109D01*
X125629788Y-103780106D01*
X125629792Y-103780104D01*
X125780104Y-103629792D01*
X125780106Y-103629788D01*
X125780109Y-103629786D01*
X125871497Y-103503999D01*
X125905051Y-103457816D01*
X125905349Y-103457230D01*
X125925235Y-103418205D01*
X125973209Y-103367409D01*
X126035719Y-103350500D01*
X129964281Y-103350500D01*
X130031320Y-103370185D01*
X130074765Y-103418205D01*
X130094947Y-103457814D01*
X130094948Y-103457815D01*
X130219890Y-103629786D01*
X130219896Y-103629792D01*
X130370208Y-103780104D01*
X130542184Y-103905051D01*
X130542188Y-103905053D01*
X130546126Y-103907914D01*
X130545146Y-103909262D01*
X130587160Y-103955690D01*
X130599500Y-104009617D01*
X130599500Y-104514070D01*
X130614959Y-104591783D01*
X130614959Y-104591785D01*
X130623538Y-104634916D01*
X130624499Y-104639744D01*
X130673535Y-104758127D01*
X130744030Y-104863632D01*
X130744726Y-104864673D01*
X130744727Y-104864674D01*
X132419345Y-106539291D01*
X132452830Y-106600614D01*
X132453281Y-106602781D01*
X132482182Y-106748074D01*
X132482184Y-106748082D01*
X132546295Y-106902860D01*
X132639373Y-107042162D01*
X132757837Y-107160626D01*
X132850494Y-107222537D01*
X132897137Y-107253703D01*
X133051918Y-107317816D01*
X133196958Y-107346666D01*
X133216228Y-107350499D01*
X133216232Y-107350500D01*
X133216233Y-107350500D01*
X133383766Y-107350500D01*
X133383767Y-107350500D01*
X133413809Y-107344524D01*
X133483398Y-107350750D01*
X133538576Y-107393612D01*
X133561822Y-107459501D01*
X133562000Y-107466141D01*
X133562000Y-107825270D01*
X133542315Y-107892309D01*
X133525681Y-107912951D01*
X132975451Y-108463181D01*
X132914128Y-108496666D01*
X132887770Y-108499500D01*
X130466890Y-108499500D01*
X130321902Y-108528340D01*
X130321892Y-108528343D01*
X130185319Y-108584913D01*
X130185314Y-108584916D01*
X130162726Y-108600008D01*
X130162727Y-108600009D01*
X130062389Y-108667051D01*
X130062388Y-108667052D01*
X127427047Y-111302394D01*
X127427045Y-111302396D01*
X127391571Y-111355491D01*
X127391569Y-111355494D01*
X127344919Y-111425309D01*
X127344912Y-111425321D01*
X127288343Y-111561892D01*
X127288340Y-111561902D01*
X127259500Y-111706889D01*
X127259500Y-117427770D01*
X127239815Y-117494809D01*
X127223181Y-117515451D01*
X126200451Y-118538181D01*
X126139128Y-118571666D01*
X126112770Y-118574500D01*
X125034378Y-118574500D01*
X124967339Y-118554815D01*
X124928839Y-118515597D01*
X124907712Y-118481344D01*
X124783656Y-118357288D01*
X124639221Y-118268200D01*
X124634336Y-118265187D01*
X124634331Y-118265185D01*
X124617078Y-118259468D01*
X124467797Y-118210001D01*
X124467795Y-118210000D01*
X124365010Y-118199500D01*
X123014998Y-118199500D01*
X123014981Y-118199501D01*
X122912203Y-118210000D01*
X122912200Y-118210001D01*
X122745668Y-118265185D01*
X122745663Y-118265187D01*
X122596342Y-118357289D01*
X122472289Y-118481342D01*
X122472288Y-118481344D01*
X122459055Y-118502799D01*
X122451161Y-118515597D01*
X122399213Y-118562321D01*
X122345622Y-118574500D01*
X121259798Y-118574500D01*
X121192759Y-118554815D01*
X121154259Y-118515597D01*
X121117712Y-118456344D01*
X120993656Y-118332288D01*
X120844334Y-118240186D01*
X120677797Y-118185001D01*
X120677795Y-118185000D01*
X120575010Y-118174500D01*
X119224998Y-118174500D01*
X119224981Y-118174501D01*
X119122203Y-118185000D01*
X119122200Y-118185001D01*
X118955668Y-118240185D01*
X118955663Y-118240187D01*
X118806342Y-118332289D01*
X118682289Y-118456342D01*
X118590187Y-118605663D01*
X118590185Y-118605668D01*
X118571506Y-118662039D01*
X118535001Y-118772203D01*
X118535001Y-118772204D01*
X118535000Y-118772204D01*
X118524500Y-118874983D01*
X118524500Y-119725001D01*
X118524501Y-119725019D01*
X118535000Y-119827796D01*
X118535001Y-119827799D01*
X118559562Y-119901918D01*
X118590186Y-119994334D01*
X118682288Y-120143656D01*
X118806344Y-120267712D01*
X118955666Y-120359814D01*
X119122203Y-120414999D01*
X119224991Y-120425500D01*
X120575008Y-120425499D01*
X120677797Y-120414999D01*
X120844334Y-120359814D01*
X120993656Y-120267712D01*
X121117712Y-120143656D01*
X121123420Y-120134402D01*
X121175368Y-120087678D01*
X121228958Y-120075500D01*
X122345622Y-120075500D01*
X122412661Y-120095185D01*
X122451159Y-120134401D01*
X122472288Y-120168656D01*
X122596344Y-120292712D01*
X122745666Y-120384814D01*
X122912203Y-120439999D01*
X123014991Y-120450500D01*
X124365008Y-120450499D01*
X124467797Y-120439999D01*
X124634334Y-120384814D01*
X124783656Y-120292712D01*
X124907712Y-120168656D01*
X124907719Y-120168644D01*
X124909405Y-120166513D01*
X124910947Y-120165420D01*
X124912819Y-120163549D01*
X124913138Y-120163868D01*
X124966421Y-120126129D01*
X125036220Y-120122981D01*
X125094362Y-120155730D01*
X127061539Y-122122907D01*
X127088419Y-122163135D01*
X127146295Y-122302860D01*
X127239373Y-122442162D01*
X127357837Y-122560626D01*
X127440500Y-122615859D01*
X127497137Y-122653703D01*
X127497138Y-122653703D01*
X127497139Y-122653704D01*
X127512192Y-122659939D01*
X127651918Y-122717816D01*
X127811553Y-122749569D01*
X127816228Y-122750499D01*
X127816232Y-122750500D01*
X127816233Y-122750500D01*
X127983768Y-122750500D01*
X127983769Y-122750499D01*
X128148082Y-122717816D01*
X128188046Y-122701261D01*
X128257515Y-122693792D01*
X128319995Y-122725066D01*
X128355648Y-122785154D01*
X128359500Y-122815822D01*
X128359500Y-129399902D01*
X128339815Y-129466941D01*
X128323181Y-129487583D01*
X127729481Y-130081282D01*
X127729479Y-130081285D01*
X127712716Y-130110321D01*
X127690706Y-130148443D01*
X127650423Y-130218215D01*
X127609499Y-130370943D01*
X127609499Y-130370945D01*
X127609499Y-130539046D01*
X127609500Y-130539059D01*
X127609500Y-132663330D01*
X127609499Y-132663348D01*
X127609499Y-132829054D01*
X127609498Y-132829054D01*
X127652527Y-132989636D01*
X127650186Y-132990263D01*
X127652383Y-133010676D01*
X127657052Y-133043147D01*
X127656101Y-133045229D01*
X127656346Y-133047505D01*
X127641660Y-133076849D01*
X127628027Y-133106703D01*
X127626101Y-133107940D01*
X127625077Y-133109987D01*
X127596865Y-133126728D01*
X127569249Y-133144477D01*
X127566226Y-133144911D01*
X127564991Y-133145645D01*
X127534314Y-133149500D01*
X127415097Y-133149500D01*
X127348058Y-133129815D01*
X127327416Y-133113181D01*
X121126818Y-126912583D01*
X121093333Y-126851260D01*
X121090499Y-126824911D01*
X121090499Y-126212492D01*
X121084223Y-126151058D01*
X121079999Y-126109703D01*
X121079998Y-126109700D01*
X121075105Y-126094933D01*
X121024814Y-125943166D01*
X120932712Y-125793844D01*
X120839049Y-125700181D01*
X120805564Y-125638858D01*
X120810548Y-125569166D01*
X120839049Y-125524819D01*
X120880365Y-125483503D01*
X120932712Y-125431156D01*
X121024814Y-125281834D01*
X121079999Y-125115297D01*
X121090500Y-125012509D01*
X121090499Y-124387492D01*
X121079999Y-124284703D01*
X121024814Y-124118166D01*
X120932712Y-123968844D01*
X120808656Y-123844788D01*
X120659334Y-123752686D01*
X120659333Y-123752685D01*
X120659332Y-123752685D01*
X120635493Y-123744785D01*
X120578049Y-123705011D01*
X120551228Y-123640494D01*
X120550500Y-123627080D01*
X120550500Y-123339981D01*
X120570185Y-123272942D01*
X120622989Y-123227187D01*
X120661899Y-123216623D01*
X120662391Y-123216572D01*
X120677797Y-123214999D01*
X120844334Y-123159814D01*
X120993656Y-123067712D01*
X121117712Y-122943656D01*
X121209814Y-122794334D01*
X121264999Y-122627797D01*
X121275500Y-122525009D01*
X121275499Y-121699983D01*
X122314500Y-121699983D01*
X122314500Y-122550001D01*
X122314501Y-122550019D01*
X122325000Y-122652796D01*
X122325001Y-122652799D01*
X122371901Y-122794331D01*
X122380186Y-122819334D01*
X122472288Y-122968656D01*
X122596344Y-123092712D01*
X122745666Y-123184814D01*
X122912203Y-123239999D01*
X122928101Y-123241623D01*
X122992793Y-123268018D01*
X123032945Y-123325198D01*
X123039500Y-123364981D01*
X123039500Y-123723767D01*
X123019815Y-123790806D01*
X122967011Y-123836561D01*
X122954506Y-123841472D01*
X122920671Y-123852684D01*
X122920663Y-123852687D01*
X122771342Y-123944789D01*
X122647289Y-124068842D01*
X122555187Y-124218163D01*
X122555186Y-124218166D01*
X122500001Y-124384703D01*
X122500001Y-124384704D01*
X122500000Y-124384704D01*
X122489500Y-124487483D01*
X122489500Y-125112501D01*
X122489501Y-125112519D01*
X122500000Y-125215296D01*
X122500001Y-125215299D01*
X122555185Y-125381831D01*
X122555187Y-125381836D01*
X122568272Y-125403050D01*
X122647288Y-125531156D01*
X122771344Y-125655212D01*
X122920666Y-125747314D01*
X123087203Y-125802499D01*
X123189991Y-125813000D01*
X124190008Y-125812999D01*
X124190016Y-125812998D01*
X124190019Y-125812998D01*
X124246302Y-125807248D01*
X124292797Y-125802499D01*
X124459334Y-125747314D01*
X124608656Y-125655212D01*
X124732712Y-125531156D01*
X124824814Y-125381834D01*
X124879999Y-125215297D01*
X124890500Y-125112509D01*
X124890499Y-124487492D01*
X124879999Y-124384703D01*
X124824814Y-124218166D01*
X124732712Y-124068844D01*
X124608656Y-123944788D01*
X124500924Y-123878339D01*
X124459336Y-123852687D01*
X124459335Y-123852686D01*
X124459334Y-123852686D01*
X124459328Y-123852684D01*
X124425494Y-123841472D01*
X124368050Y-123801699D01*
X124341228Y-123737183D01*
X124340500Y-123723767D01*
X124340500Y-123364981D01*
X124360185Y-123297942D01*
X124412989Y-123252187D01*
X124451899Y-123241623D01*
X124452391Y-123241572D01*
X124467797Y-123239999D01*
X124634334Y-123184814D01*
X124783656Y-123092712D01*
X124907712Y-122968656D01*
X124999814Y-122819334D01*
X125054999Y-122652797D01*
X125065500Y-122550009D01*
X125065499Y-121699992D01*
X125054999Y-121597203D01*
X124999814Y-121430666D01*
X124907712Y-121281344D01*
X124783656Y-121157288D01*
X124666260Y-121084878D01*
X124634336Y-121065187D01*
X124634331Y-121065185D01*
X124632862Y-121064698D01*
X124467797Y-121010001D01*
X124467795Y-121010000D01*
X124365010Y-120999500D01*
X123014998Y-120999500D01*
X123014981Y-120999501D01*
X122912203Y-121010000D01*
X122912200Y-121010001D01*
X122745668Y-121065185D01*
X122745663Y-121065187D01*
X122596342Y-121157289D01*
X122472289Y-121281342D01*
X122380187Y-121430663D01*
X122380185Y-121430668D01*
X122370356Y-121460331D01*
X122325001Y-121597203D01*
X122325001Y-121597204D01*
X122325000Y-121597204D01*
X122314500Y-121699983D01*
X121275499Y-121699983D01*
X121275499Y-121674992D01*
X121269722Y-121618443D01*
X121264999Y-121572203D01*
X121264998Y-121572200D01*
X121227928Y-121460331D01*
X121209814Y-121405666D01*
X121117712Y-121256344D01*
X120993656Y-121132288D01*
X120844334Y-121040186D01*
X120677797Y-120985001D01*
X120677795Y-120985000D01*
X120575010Y-120974500D01*
X119224998Y-120974500D01*
X119224981Y-120974501D01*
X119122203Y-120985000D01*
X119122200Y-120985001D01*
X118955668Y-121040185D01*
X118955663Y-121040187D01*
X118806342Y-121132289D01*
X118682289Y-121256342D01*
X118590187Y-121405663D01*
X118590186Y-121405666D01*
X118535001Y-121572203D01*
X118535001Y-121572204D01*
X118535000Y-121572204D01*
X118524500Y-121674983D01*
X118524500Y-122525001D01*
X118524501Y-122525008D01*
X118535000Y-122627796D01*
X118535001Y-122627799D01*
X118590185Y-122794331D01*
X118590187Y-122794336D01*
X118603440Y-122815822D01*
X118682288Y-122943656D01*
X118806344Y-123067712D01*
X118955666Y-123159814D01*
X119122203Y-123214999D01*
X119138101Y-123216623D01*
X119202793Y-123243018D01*
X119242945Y-123300198D01*
X119249500Y-123339981D01*
X119249500Y-123620453D01*
X119229815Y-123687492D01*
X119177011Y-123733247D01*
X119164505Y-123738159D01*
X119120666Y-123752686D01*
X118971342Y-123844789D01*
X118847289Y-123968842D01*
X118755187Y-124118163D01*
X118755186Y-124118166D01*
X118700001Y-124284703D01*
X118700001Y-124284704D01*
X118700000Y-124284704D01*
X118689500Y-124387483D01*
X118689500Y-125012501D01*
X118689501Y-125012519D01*
X118700000Y-125115296D01*
X118700001Y-125115299D01*
X118733137Y-125215295D01*
X118755186Y-125281834D01*
X118847060Y-125430787D01*
X118847289Y-125431157D01*
X118940951Y-125524819D01*
X118974436Y-125586142D01*
X118969452Y-125655834D01*
X118940951Y-125700181D01*
X118847289Y-125793842D01*
X118755187Y-125943163D01*
X118755185Y-125943168D01*
X118731985Y-126013182D01*
X118700001Y-126109703D01*
X118700001Y-126109704D01*
X118700000Y-126109704D01*
X118689500Y-126212483D01*
X118689500Y-126837501D01*
X118689501Y-126837519D01*
X118700000Y-126940296D01*
X118700001Y-126940299D01*
X118744279Y-127073918D01*
X118755186Y-127106834D01*
X118847288Y-127256156D01*
X118971344Y-127380212D01*
X119120666Y-127472314D01*
X119287203Y-127527499D01*
X119389991Y-127538000D01*
X120002402Y-127537999D01*
X120069441Y-127557683D01*
X120090083Y-127574318D01*
X120837404Y-128321639D01*
X120870889Y-128382962D01*
X120865905Y-128452654D01*
X120824033Y-128508587D01*
X120758569Y-128533004D01*
X120690296Y-128518152D01*
X120683751Y-128514314D01*
X120453683Y-128369752D01*
X120150054Y-128223532D01*
X119831965Y-128112227D01*
X119831953Y-128112223D01*
X119503397Y-128037233D01*
X119503381Y-128037231D01*
X119168508Y-127999500D01*
X119168504Y-127999500D01*
X118831496Y-127999500D01*
X118831491Y-127999500D01*
X118496618Y-128037231D01*
X118496602Y-128037233D01*
X118168046Y-128112223D01*
X118168034Y-128112227D01*
X117849945Y-128223532D01*
X117546316Y-128369752D01*
X117260962Y-128549053D01*
X116997477Y-128759174D01*
X116759174Y-128997477D01*
X116549053Y-129260962D01*
X116528994Y-129292886D01*
X116476659Y-129339177D01*
X116407606Y-129349825D01*
X116343757Y-129321450D01*
X116305385Y-129263060D01*
X116300000Y-129226914D01*
X116300000Y-102773085D01*
X116319685Y-102706046D01*
X116372489Y-102660291D01*
X116441647Y-102650347D01*
X116505203Y-102679372D01*
X116528991Y-102707110D01*
X116549054Y-102739039D01*
X116759175Y-103002523D01*
X116997477Y-103240825D01*
X117260961Y-103450946D01*
X117546314Y-103630246D01*
X117546316Y-103630247D01*
X117603564Y-103657816D01*
X117849949Y-103776469D01*
X118025989Y-103838068D01*
X118168034Y-103887772D01*
X118168046Y-103887776D01*
X118496606Y-103962767D01*
X118831492Y-104000499D01*
X118831493Y-104000500D01*
X118831496Y-104000500D01*
X119168507Y-104000500D01*
X119168507Y-104000499D01*
X119503394Y-103962767D01*
X119831954Y-103887776D01*
X120150051Y-103776469D01*
X120453686Y-103630246D01*
X120739039Y-103450946D01*
X121002523Y-103240825D01*
X121240825Y-103002523D01*
X121450946Y-102739039D01*
X121630246Y-102453686D01*
X121776469Y-102150051D01*
X121887776Y-101831954D01*
X121962767Y-101503394D01*
X122000500Y-101168504D01*
X122000500Y-100831496D01*
X121962767Y-100496606D01*
X121887776Y-100168046D01*
X121776469Y-99849949D01*
X121630246Y-99546314D01*
X121450946Y-99260961D01*
X121240825Y-98997477D01*
X121002523Y-98759175D01*
X120829189Y-98620946D01*
X120789050Y-98563759D01*
X120786200Y-98493947D01*
X120821545Y-98433677D01*
X120883864Y-98402084D01*
X120906503Y-98400000D01*
X164093497Y-98400000D01*
X164160536Y-98419685D01*
G37*
%TD.AperFunction*%
%TA.AperFunction,Conductor*%
G36*
X148418834Y-121532914D02*
G01*
X148474767Y-121574786D01*
X148499184Y-121640250D01*
X148499500Y-121649096D01*
X148499500Y-122014071D01*
X148519985Y-122117051D01*
X148521183Y-122123073D01*
X148524499Y-122139744D01*
X148573535Y-122258127D01*
X148644723Y-122364669D01*
X148763182Y-122483128D01*
X148796666Y-122544449D01*
X148799500Y-122570804D01*
X148799500Y-122598334D01*
X148799501Y-122598356D01*
X148809650Y-122697707D01*
X148809651Y-122697710D01*
X148862996Y-122858694D01*
X148863001Y-122858705D01*
X148952029Y-123003040D01*
X148952032Y-123003044D01*
X148963181Y-123014193D01*
X148996666Y-123075516D01*
X148999500Y-123101874D01*
X148999500Y-123123918D01*
X148999500Y-123123920D01*
X148999499Y-123123920D01*
X149028340Y-123268907D01*
X149028343Y-123268917D01*
X149084914Y-123405491D01*
X149084916Y-123405495D01*
X149097225Y-123423917D01*
X149114986Y-123450499D01*
X149167049Y-123528418D01*
X149921578Y-124282947D01*
X149921585Y-124282953D01*
X149989517Y-124328343D01*
X149989518Y-124328343D01*
X150044508Y-124365086D01*
X150181082Y-124421656D01*
X150181087Y-124421658D01*
X150181091Y-124421658D01*
X150181092Y-124421659D01*
X150326079Y-124450500D01*
X150326082Y-124450500D01*
X154173920Y-124450500D01*
X154271462Y-124431096D01*
X154318913Y-124421658D01*
X154408128Y-124384704D01*
X154455491Y-124365086D01*
X154455492Y-124365085D01*
X154455495Y-124365084D01*
X154510482Y-124328343D01*
X154578416Y-124282952D01*
X154822910Y-124038456D01*
X154863130Y-124011582D01*
X155002863Y-123953703D01*
X155142162Y-123860626D01*
X155260626Y-123742162D01*
X155325560Y-123644980D01*
X155379170Y-123600177D01*
X155448495Y-123591470D01*
X155511523Y-123621624D01*
X155516342Y-123626192D01*
X155853181Y-123963030D01*
X155886666Y-124024353D01*
X155889500Y-124050711D01*
X155889500Y-129725500D01*
X155869815Y-129792539D01*
X155817011Y-129838294D01*
X155765500Y-129849500D01*
X155633713Y-129849500D01*
X155590502Y-129856344D01*
X155423760Y-129882753D01*
X155221585Y-129948444D01*
X155032179Y-130044951D01*
X154860213Y-130169890D01*
X154709890Y-130320213D01*
X154584949Y-130492182D01*
X154580484Y-130500946D01*
X154532509Y-130551742D01*
X154464688Y-130568536D01*
X154398553Y-130545998D01*
X154359516Y-130500946D01*
X154355050Y-130492182D01*
X154230109Y-130320213D01*
X154079786Y-130169890D01*
X153907820Y-130044951D01*
X153718414Y-129948444D01*
X153718413Y-129948443D01*
X153718412Y-129948443D01*
X153516243Y-129882754D01*
X153516241Y-129882753D01*
X153516240Y-129882753D01*
X153349498Y-129856344D01*
X153306287Y-129849500D01*
X153093713Y-129849500D01*
X153050502Y-129856344D01*
X152883760Y-129882753D01*
X152681585Y-129948444D01*
X152492179Y-130044951D01*
X152320215Y-130169889D01*
X152206673Y-130283431D01*
X152145350Y-130316915D01*
X152075658Y-130311931D01*
X152019725Y-130270059D01*
X152002810Y-130239082D01*
X151953797Y-130107671D01*
X151953793Y-130107664D01*
X151867547Y-129992455D01*
X151867544Y-129992452D01*
X151752335Y-129906206D01*
X151752328Y-129906202D01*
X151617482Y-129855908D01*
X151617483Y-129855908D01*
X151557883Y-129849501D01*
X151557881Y-129849500D01*
X151557873Y-129849500D01*
X151557865Y-129849500D01*
X151050097Y-129849500D01*
X150983058Y-129829815D01*
X150962416Y-129813181D01*
X150237590Y-129088355D01*
X150237588Y-129088352D01*
X150118717Y-128969481D01*
X150118709Y-128969475D01*
X149999106Y-128900423D01*
X149999106Y-128900422D01*
X149999101Y-128900421D01*
X149993058Y-128896932D01*
X149981786Y-128890423D01*
X149943603Y-128880192D01*
X149829057Y-128849499D01*
X149670943Y-128849499D01*
X149663347Y-128849499D01*
X149663331Y-128849500D01*
X145447156Y-128849500D01*
X145380117Y-128829815D01*
X145359475Y-128813181D01*
X145036819Y-128490525D01*
X145003334Y-128429202D01*
X145000500Y-128402844D01*
X145000500Y-123186230D01*
X145020185Y-123119191D01*
X145072989Y-123073436D01*
X145142147Y-123063492D01*
X145205703Y-123092517D01*
X145212181Y-123098549D01*
X145256344Y-123142712D01*
X145405666Y-123234814D01*
X145572203Y-123289999D01*
X145674991Y-123300500D01*
X146725008Y-123300499D01*
X146725016Y-123300498D01*
X146725019Y-123300498D01*
X146781302Y-123294748D01*
X146827797Y-123289999D01*
X146994334Y-123234814D01*
X147143656Y-123142712D01*
X147267712Y-123018656D01*
X147359814Y-122869334D01*
X147414999Y-122702797D01*
X147425500Y-122600009D01*
X147425499Y-122475096D01*
X147445183Y-122408057D01*
X147461813Y-122387420D01*
X148287820Y-121561414D01*
X148349142Y-121527930D01*
X148418834Y-121532914D01*
G37*
%TD.AperFunction*%
%TA.AperFunction,Conductor*%
G36*
X165026016Y-125355196D02*
G01*
X165042185Y-125354897D01*
X165074552Y-125368960D01*
X165103803Y-125387003D01*
X165264792Y-125440349D01*
X165364155Y-125450500D01*
X165960844Y-125450499D01*
X165960852Y-125450498D01*
X165960855Y-125450498D01*
X166015260Y-125444940D01*
X166060208Y-125440349D01*
X166086496Y-125431637D01*
X166156323Y-125429236D01*
X166216366Y-125464967D01*
X166247559Y-125527487D01*
X166249500Y-125549344D01*
X166249500Y-126637770D01*
X166229815Y-126704809D01*
X166213181Y-126725451D01*
X166025451Y-126913181D01*
X165964128Y-126946666D01*
X165937770Y-126949500D01*
X164468037Y-126949500D01*
X164400998Y-126929815D01*
X164355243Y-126877011D01*
X164345299Y-126807853D01*
X164348960Y-126790906D01*
X164349578Y-126788775D01*
X164360098Y-126752569D01*
X164363000Y-126715694D01*
X164363000Y-126284306D01*
X164360098Y-126247431D01*
X164349947Y-126212492D01*
X164314245Y-126089606D01*
X164314244Y-126089603D01*
X164314244Y-126089602D01*
X164230581Y-125948135D01*
X164230579Y-125948133D01*
X164230576Y-125948129D01*
X164114370Y-125831923D01*
X164114362Y-125831917D01*
X163972896Y-125748255D01*
X163972893Y-125748254D01*
X163815073Y-125702402D01*
X163815067Y-125702401D01*
X163778201Y-125699500D01*
X163778194Y-125699500D01*
X162962000Y-125699500D01*
X162953314Y-125696949D01*
X162944353Y-125698238D01*
X162920312Y-125687259D01*
X162894961Y-125679815D01*
X162889033Y-125672974D01*
X162880797Y-125669213D01*
X162866507Y-125646978D01*
X162849206Y-125627011D01*
X162846918Y-125616496D01*
X162843023Y-125610435D01*
X162838000Y-125575500D01*
X162838000Y-125524500D01*
X162857685Y-125457461D01*
X162910489Y-125411706D01*
X162962000Y-125400500D01*
X163778186Y-125400500D01*
X163778194Y-125400500D01*
X163815069Y-125397598D01*
X163815071Y-125397597D01*
X163815073Y-125397597D01*
X163960233Y-125355424D01*
X163994828Y-125350500D01*
X165009457Y-125350500D01*
X165026016Y-125355196D01*
G37*
%TD.AperFunction*%
%TA.AperFunction,Conductor*%
G36*
X158336180Y-123470185D02*
G01*
X158356822Y-123486819D01*
X158813181Y-123943177D01*
X158846666Y-124004500D01*
X158849500Y-124030858D01*
X158849500Y-125625500D01*
X158829815Y-125692539D01*
X158777011Y-125738294D01*
X158732060Y-125748072D01*
X158732142Y-125748903D01*
X158726079Y-125749499D01*
X158581092Y-125778340D01*
X158581086Y-125778342D01*
X158444508Y-125834914D01*
X158444496Y-125834921D01*
X158395270Y-125867811D01*
X158395271Y-125867812D01*
X158321585Y-125917047D01*
X158321580Y-125917051D01*
X158225448Y-126013182D01*
X158164125Y-126046666D01*
X158137769Y-126049500D01*
X158001663Y-126049500D01*
X158001644Y-126049501D01*
X157902292Y-126059650D01*
X157902289Y-126059651D01*
X157741305Y-126112996D01*
X157741300Y-126112998D01*
X157679597Y-126151058D01*
X157612204Y-126169498D01*
X157545541Y-126148575D01*
X157500771Y-126094933D01*
X157490500Y-126045519D01*
X157490500Y-123574500D01*
X157510185Y-123507461D01*
X157562989Y-123461706D01*
X157614500Y-123450500D01*
X158269141Y-123450500D01*
X158336180Y-123470185D01*
G37*
%TD.AperFunction*%
%TA.AperFunction,Conductor*%
G36*
X153945478Y-117220185D02*
G01*
X153981541Y-117255609D01*
X154039373Y-117342162D01*
X154157837Y-117460626D01*
X154208996Y-117494809D01*
X154297137Y-117553703D01*
X154297138Y-117553703D01*
X154297139Y-117553704D01*
X154332201Y-117568227D01*
X154451918Y-117617816D01*
X154610703Y-117649400D01*
X154616228Y-117650499D01*
X154616232Y-117650500D01*
X154616233Y-117650500D01*
X154783768Y-117650500D01*
X154783769Y-117650499D01*
X154948082Y-117617816D01*
X155102863Y-117553703D01*
X155242162Y-117460626D01*
X155297907Y-117404880D01*
X155359228Y-117371397D01*
X155428920Y-117376381D01*
X155484853Y-117418252D01*
X155508945Y-117479960D01*
X155510001Y-117490297D01*
X155510001Y-117490299D01*
X155550659Y-117612996D01*
X155565186Y-117656834D01*
X155657288Y-117806156D01*
X155781344Y-117930212D01*
X155930666Y-118022314D01*
X156097203Y-118077499D01*
X156199991Y-118088000D01*
X157200008Y-118087999D01*
X157200016Y-118087998D01*
X157200019Y-118087998D01*
X157256302Y-118082248D01*
X157302797Y-118077499D01*
X157469334Y-118022314D01*
X157618656Y-117930212D01*
X157742712Y-117806156D01*
X157771549Y-117759402D01*
X157823497Y-117712679D01*
X157877088Y-117700500D01*
X160014146Y-117700500D01*
X160041105Y-117708416D01*
X160068797Y-117713193D01*
X160074180Y-117718128D01*
X160081185Y-117720185D01*
X160099581Y-117741415D01*
X160120299Y-117760409D01*
X160123191Y-117768662D01*
X160126940Y-117772989D01*
X160134055Y-117792912D01*
X160136058Y-117800519D01*
X160139313Y-117825236D01*
X160148260Y-117846836D01*
X160150399Y-117854955D01*
X160149645Y-117881830D01*
X160152519Y-117908564D01*
X160149567Y-117921137D01*
X160127402Y-117997430D01*
X160127401Y-117997436D01*
X160124500Y-118034298D01*
X160124500Y-118465701D01*
X160127401Y-118502567D01*
X160127402Y-118502573D01*
X160173254Y-118660393D01*
X160173255Y-118660396D01*
X160173256Y-118660398D01*
X160178539Y-118669331D01*
X160256917Y-118801862D01*
X160256923Y-118801870D01*
X160373129Y-118918076D01*
X160373133Y-118918079D01*
X160373135Y-118918081D01*
X160514602Y-119001744D01*
X160549776Y-119011963D01*
X160672426Y-119047597D01*
X160672429Y-119047597D01*
X160672431Y-119047598D01*
X160709306Y-119050500D01*
X160709314Y-119050500D01*
X161690686Y-119050500D01*
X161690694Y-119050500D01*
X161727569Y-119047598D01*
X161763196Y-119037247D01*
X161833063Y-119037445D01*
X161885472Y-119068642D01*
X161977335Y-119160505D01*
X161977336Y-119160506D01*
X161977338Y-119160507D01*
X162037249Y-119195096D01*
X162097164Y-119229688D01*
X162230817Y-119265500D01*
X162230819Y-119265500D01*
X162369181Y-119265500D01*
X162369183Y-119265500D01*
X162393407Y-119259009D01*
X162463254Y-119260670D01*
X162521117Y-119299831D01*
X162548623Y-119364059D01*
X162549500Y-119378783D01*
X162549500Y-123719593D01*
X162543202Y-123741041D01*
X162541529Y-123763334D01*
X162533548Y-123773916D01*
X162529815Y-123786632D01*
X162512922Y-123801269D01*
X162499461Y-123819121D01*
X162482735Y-123827426D01*
X162477011Y-123832387D01*
X162468425Y-123835926D01*
X162464292Y-123837450D01*
X162427102Y-123848256D01*
X162413981Y-123856014D01*
X162403444Y-123859903D01*
X162397471Y-123860309D01*
X162384712Y-123865187D01*
X162318593Y-123878339D01*
X162318584Y-123878342D01*
X162238582Y-123911479D01*
X162238583Y-123911480D01*
X162182007Y-123934915D01*
X162135032Y-123966303D01*
X162063017Y-124014421D01*
X161996339Y-124035298D01*
X161928959Y-124016813D01*
X161906446Y-123998999D01*
X161839370Y-123931923D01*
X161839362Y-123931917D01*
X161719555Y-123861064D01*
X161697898Y-123848256D01*
X161697897Y-123848255D01*
X161697896Y-123848255D01*
X161697893Y-123848254D01*
X161540073Y-123802402D01*
X161540067Y-123802401D01*
X161503201Y-123799500D01*
X161503194Y-123799500D01*
X160474500Y-123799500D01*
X160407461Y-123779815D01*
X160361706Y-123727011D01*
X160350500Y-123675500D01*
X160350500Y-123594708D01*
X160321659Y-123449721D01*
X160321658Y-123449720D01*
X160321658Y-123449716D01*
X160321656Y-123449711D01*
X160265087Y-123313140D01*
X160265080Y-123313127D01*
X160182952Y-123190214D01*
X160135448Y-123142710D01*
X160078416Y-123085678D01*
X159843464Y-122850726D01*
X159109792Y-122117052D01*
X159109791Y-122117051D01*
X159025800Y-122060931D01*
X159025799Y-122060930D01*
X158986871Y-122034919D01*
X158986859Y-122034912D01*
X158850288Y-121978343D01*
X158850278Y-121978340D01*
X158705291Y-121949500D01*
X158705289Y-121949500D01*
X157662230Y-121949500D01*
X157595191Y-121929815D01*
X157574549Y-121913181D01*
X157038459Y-121377091D01*
X157011580Y-121336864D01*
X156953703Y-121197137D01*
X156916092Y-121140849D01*
X156860626Y-121057837D01*
X156742162Y-120939373D01*
X156602860Y-120846295D01*
X156448082Y-120782184D01*
X156448074Y-120782182D01*
X156283771Y-120749500D01*
X156283767Y-120749500D01*
X156116233Y-120749500D01*
X156116228Y-120749500D01*
X155951925Y-120782182D01*
X155951917Y-120782184D01*
X155797139Y-120846295D01*
X155657837Y-120939373D01*
X155539376Y-121057834D01*
X155539373Y-121057838D01*
X155492247Y-121128368D01*
X155438635Y-121173173D01*
X155369310Y-121181880D01*
X155306282Y-121151726D01*
X155301464Y-121147158D01*
X151566487Y-117412181D01*
X151533002Y-117350858D01*
X151537986Y-117281166D01*
X151579858Y-117225233D01*
X151645322Y-117200816D01*
X151654168Y-117200500D01*
X153878439Y-117200500D01*
X153945478Y-117220185D01*
G37*
%TD.AperFunction*%
%TA.AperFunction,Conductor*%
G36*
X164857421Y-109820185D02*
G01*
X164891099Y-109854591D01*
X164892085Y-109853875D01*
X165019890Y-110029786D01*
X165170213Y-110180109D01*
X165342179Y-110305048D01*
X165342181Y-110305049D01*
X165342184Y-110305051D01*
X165531588Y-110401557D01*
X165733757Y-110467246D01*
X165943713Y-110500500D01*
X165943714Y-110500500D01*
X166156286Y-110500500D01*
X166156287Y-110500500D01*
X166366243Y-110467246D01*
X166437183Y-110444195D01*
X166507023Y-110442201D01*
X166566856Y-110478281D01*
X166597684Y-110540982D01*
X166599500Y-110562127D01*
X166599500Y-122987770D01*
X166579815Y-123054809D01*
X166563181Y-123075451D01*
X166417048Y-123221583D01*
X166397728Y-123250499D01*
X166376045Y-123282951D01*
X166334919Y-123344499D01*
X166334912Y-123344511D01*
X166278343Y-123481082D01*
X166278341Y-123481088D01*
X166277575Y-123484943D01*
X166276616Y-123486774D01*
X166276573Y-123486919D01*
X166276545Y-123486910D01*
X166245188Y-123546853D01*
X166184471Y-123581425D01*
X166116955Y-123578454D01*
X166060211Y-123559651D01*
X165960846Y-123549500D01*
X165364162Y-123549500D01*
X165364144Y-123549501D01*
X165264792Y-123559650D01*
X165264789Y-123559651D01*
X165103805Y-123612996D01*
X165103794Y-123613001D01*
X164959459Y-123702029D01*
X164959455Y-123702032D01*
X164848307Y-123813181D01*
X164786984Y-123846666D01*
X164760626Y-123849500D01*
X164174500Y-123849500D01*
X164107461Y-123829815D01*
X164061706Y-123777011D01*
X164050500Y-123725500D01*
X164050500Y-114901080D01*
X164021659Y-114756093D01*
X164021658Y-114756092D01*
X164021658Y-114756088D01*
X164020360Y-114752954D01*
X163965087Y-114619512D01*
X163965080Y-114619499D01*
X163882952Y-114496586D01*
X163836964Y-114450598D01*
X163781090Y-114394724D01*
X163678416Y-114292049D01*
X163555494Y-114209917D01*
X163472409Y-114175502D01*
X163413285Y-114151012D01*
X163413642Y-114150149D01*
X163367344Y-114122399D01*
X162711738Y-113466793D01*
X162678253Y-113405470D01*
X162683237Y-113335778D01*
X162711742Y-113291427D01*
X162720505Y-113282665D01*
X162789688Y-113162836D01*
X162825500Y-113029183D01*
X162825500Y-112890817D01*
X162789688Y-112757164D01*
X162747554Y-112684186D01*
X162720507Y-112637338D01*
X162720503Y-112637333D01*
X162622666Y-112539496D01*
X162622661Y-112539492D01*
X162502838Y-112470313D01*
X162502837Y-112470312D01*
X162502836Y-112470312D01*
X162369183Y-112434500D01*
X162230817Y-112434500D01*
X162097164Y-112470312D01*
X162097161Y-112470313D01*
X161977338Y-112539492D01*
X161977333Y-112539496D01*
X161885470Y-112631358D01*
X161824147Y-112664842D01*
X161763195Y-112662752D01*
X161727573Y-112652402D01*
X161727567Y-112652401D01*
X161690701Y-112649500D01*
X161690694Y-112649500D01*
X160709306Y-112649500D01*
X160709298Y-112649500D01*
X160672432Y-112652401D01*
X160672426Y-112652402D01*
X160514606Y-112698254D01*
X160514603Y-112698255D01*
X160373137Y-112781917D01*
X160373129Y-112781923D01*
X160256923Y-112898129D01*
X160256917Y-112898137D01*
X160173255Y-113039603D01*
X160173254Y-113039606D01*
X160127402Y-113197426D01*
X160127401Y-113197432D01*
X160124500Y-113234298D01*
X160124500Y-113375500D01*
X160104815Y-113442539D01*
X160052011Y-113488294D01*
X160000500Y-113499500D01*
X157799730Y-113499500D01*
X157732691Y-113479815D01*
X157712049Y-113463181D01*
X157618657Y-113369789D01*
X157618656Y-113369788D01*
X157491609Y-113291425D01*
X157469336Y-113277687D01*
X157469331Y-113277685D01*
X157467862Y-113277198D01*
X157302797Y-113222501D01*
X157302795Y-113222500D01*
X157200010Y-113212000D01*
X156199998Y-113212000D01*
X156199980Y-113212001D01*
X156097203Y-113222500D01*
X156097200Y-113222501D01*
X155930668Y-113277685D01*
X155930663Y-113277687D01*
X155781342Y-113369789D01*
X155657289Y-113493842D01*
X155565187Y-113643163D01*
X155565185Y-113643168D01*
X155558371Y-113663732D01*
X155510001Y-113809703D01*
X155510001Y-113809704D01*
X155510000Y-113809704D01*
X155499500Y-113912483D01*
X155499500Y-114197350D01*
X155493261Y-114218596D01*
X155491681Y-114240686D01*
X155483608Y-114251468D01*
X155479815Y-114264389D01*
X155463083Y-114278887D01*
X155449809Y-114296619D01*
X155437187Y-114301326D01*
X155427011Y-114310144D01*
X155405093Y-114313295D01*
X155384344Y-114321034D01*
X155371184Y-114318171D01*
X155357853Y-114320088D01*
X155337708Y-114310888D01*
X155316071Y-114306181D01*
X155298346Y-114292912D01*
X155294297Y-114291063D01*
X155287831Y-114285043D01*
X155261817Y-114259029D01*
X155228333Y-114197705D01*
X155225500Y-114171349D01*
X155225500Y-111261667D01*
X155245185Y-111194628D01*
X155284405Y-111156127D01*
X155306156Y-111142712D01*
X155399819Y-111049049D01*
X155461142Y-111015564D01*
X155530834Y-111020548D01*
X155575181Y-111049049D01*
X155668844Y-111142712D01*
X155818166Y-111234814D01*
X155984703Y-111289999D01*
X156087491Y-111300500D01*
X156712508Y-111300499D01*
X156712516Y-111300498D01*
X156712519Y-111300498D01*
X156768802Y-111294748D01*
X156815297Y-111289999D01*
X156981834Y-111234814D01*
X157131156Y-111142712D01*
X157255212Y-111018656D01*
X157347314Y-110869334D01*
X157402499Y-110702797D01*
X157413000Y-110600009D01*
X157412999Y-110174499D01*
X157432683Y-110107461D01*
X157485487Y-110061706D01*
X157536999Y-110050500D01*
X158489242Y-110050500D01*
X158556281Y-110070185D01*
X158576923Y-110086819D01*
X158670213Y-110180109D01*
X158842179Y-110305048D01*
X158842181Y-110305049D01*
X158842184Y-110305051D01*
X159031588Y-110401557D01*
X159233757Y-110467246D01*
X159443713Y-110500500D01*
X159443714Y-110500500D01*
X159656286Y-110500500D01*
X159656287Y-110500500D01*
X159866243Y-110467246D01*
X160068412Y-110401557D01*
X160257816Y-110305051D01*
X160330949Y-110251917D01*
X160429786Y-110180109D01*
X160429788Y-110180106D01*
X160429792Y-110180104D01*
X160580104Y-110029792D01*
X160580106Y-110029788D01*
X160580109Y-110029786D01*
X160707915Y-109853875D01*
X160709259Y-109854851D01*
X160755705Y-109812834D01*
X160809618Y-109800500D01*
X164790382Y-109800500D01*
X164857421Y-109820185D01*
G37*
%TD.AperFunction*%
%TA.AperFunction,Conductor*%
G36*
X141059103Y-116820185D02*
G01*
X141104858Y-116872989D01*
X141114802Y-116942147D01*
X141085777Y-117005703D01*
X141060955Y-117027602D01*
X141035328Y-117044724D01*
X140566871Y-117513181D01*
X140505548Y-117546666D01*
X140479190Y-117549500D01*
X140201663Y-117549500D01*
X140201644Y-117549501D01*
X140102292Y-117559650D01*
X140102289Y-117559651D01*
X139941305Y-117612996D01*
X139941294Y-117613001D01*
X139796959Y-117702029D01*
X139796955Y-117702032D01*
X139677032Y-117821955D01*
X139677029Y-117821959D01*
X139588001Y-117966294D01*
X139587996Y-117966305D01*
X139534651Y-118127290D01*
X139524500Y-118226647D01*
X139524500Y-118362770D01*
X139504815Y-118429809D01*
X139488181Y-118450451D01*
X136825451Y-121113181D01*
X136764128Y-121146666D01*
X136737770Y-121149500D01*
X131218605Y-121149500D01*
X131189143Y-121140849D01*
X131159129Y-121134306D01*
X131155919Y-121131093D01*
X131151566Y-121129815D01*
X131131462Y-121106613D01*
X131109746Y-121084878D01*
X131108782Y-121080440D01*
X131105811Y-121077011D01*
X131101440Y-121046615D01*
X131094925Y-121016599D01*
X131096513Y-121012346D01*
X131095867Y-121007853D01*
X131108626Y-120979914D01*
X131119371Y-120951145D01*
X131123590Y-120947147D01*
X131124892Y-120944297D01*
X131144339Y-120926200D01*
X131146979Y-120924225D01*
X131242162Y-120860626D01*
X131272257Y-120830530D01*
X131279385Y-120825200D01*
X131304124Y-120815985D01*
X131327293Y-120803334D01*
X131342470Y-120801702D01*
X131344860Y-120800812D01*
X131346805Y-120801236D01*
X131353651Y-120800500D01*
X135939635Y-120800500D01*
X135939651Y-120800501D01*
X135947247Y-120800501D01*
X136105358Y-120800501D01*
X136105361Y-120800501D01*
X136258089Y-120759577D01*
X136344691Y-120709577D01*
X136395020Y-120680520D01*
X136506824Y-120568716D01*
X136506824Y-120568714D01*
X136517028Y-120558511D01*
X136517031Y-120558506D01*
X140238720Y-116836819D01*
X140300043Y-116803334D01*
X140326401Y-116800500D01*
X140992064Y-116800500D01*
X141059103Y-116820185D01*
G37*
%TD.AperFunction*%
%TA.AperFunction,Conductor*%
G36*
X144178496Y-113652129D02*
G01*
X144208126Y-113658206D01*
X144215117Y-113662699D01*
X144216558Y-113663115D01*
X144217576Y-113664279D01*
X144225485Y-113669362D01*
X144278024Y-113709676D01*
X144303571Y-113729279D01*
X144440528Y-113786009D01*
X144550599Y-113800500D01*
X144749400Y-113800499D01*
X144749401Y-113800499D01*
X144766087Y-113798302D01*
X144859472Y-113786009D01*
X144859475Y-113786007D01*
X144867326Y-113783905D01*
X144868210Y-113787207D01*
X144921925Y-113781392D01*
X144932514Y-113784501D01*
X144932674Y-113783905D01*
X144940524Y-113786008D01*
X144940526Y-113786008D01*
X144940528Y-113786009D01*
X145050599Y-113800500D01*
X145249400Y-113800499D01*
X145249401Y-113800499D01*
X145266087Y-113798302D01*
X145359472Y-113786009D01*
X145359475Y-113786007D01*
X145367326Y-113783905D01*
X145368210Y-113787207D01*
X145421925Y-113781392D01*
X145432514Y-113784501D01*
X145432674Y-113783905D01*
X145440524Y-113786008D01*
X145440526Y-113786008D01*
X145440528Y-113786009D01*
X145550599Y-113800500D01*
X145749400Y-113800499D01*
X145749401Y-113800499D01*
X145766087Y-113798302D01*
X145859472Y-113786009D01*
X145859475Y-113786007D01*
X145867326Y-113783905D01*
X145868210Y-113787207D01*
X145921925Y-113781392D01*
X145932514Y-113784501D01*
X145932674Y-113783905D01*
X145940524Y-113786008D01*
X145940526Y-113786008D01*
X145940528Y-113786009D01*
X146050599Y-113800500D01*
X146249400Y-113800499D01*
X146249401Y-113800499D01*
X146266087Y-113798302D01*
X146359472Y-113786009D01*
X146359475Y-113786007D01*
X146367326Y-113783905D01*
X146368210Y-113787207D01*
X146421925Y-113781392D01*
X146432514Y-113784501D01*
X146432674Y-113783905D01*
X146440524Y-113786008D01*
X146440526Y-113786008D01*
X146440528Y-113786009D01*
X146550599Y-113800500D01*
X146749400Y-113800499D01*
X146749401Y-113800499D01*
X146766087Y-113798302D01*
X146859472Y-113786009D01*
X146859475Y-113786007D01*
X146867326Y-113783905D01*
X146868210Y-113787207D01*
X146921925Y-113781392D01*
X146932514Y-113784501D01*
X146932674Y-113783905D01*
X146940524Y-113786008D01*
X146940526Y-113786008D01*
X146940528Y-113786009D01*
X147050599Y-113800500D01*
X147249400Y-113800499D01*
X147249401Y-113800499D01*
X147266087Y-113798302D01*
X147359472Y-113786009D01*
X147359475Y-113786007D01*
X147367326Y-113783905D01*
X147368210Y-113787207D01*
X147421925Y-113781392D01*
X147432514Y-113784501D01*
X147432674Y-113783905D01*
X147440524Y-113786008D01*
X147440526Y-113786008D01*
X147440528Y-113786009D01*
X147550599Y-113800500D01*
X147749400Y-113800499D01*
X147749401Y-113800499D01*
X147766087Y-113798302D01*
X147859472Y-113786009D01*
X147859475Y-113786007D01*
X147867326Y-113783905D01*
X147868210Y-113787207D01*
X147921925Y-113781392D01*
X147932514Y-113784501D01*
X147932674Y-113783905D01*
X147940524Y-113786008D01*
X147940526Y-113786008D01*
X147940528Y-113786009D01*
X148050599Y-113800500D01*
X148249400Y-113800499D01*
X148249401Y-113800499D01*
X148266087Y-113798302D01*
X148359472Y-113786009D01*
X148359475Y-113786007D01*
X148367326Y-113783905D01*
X148368210Y-113787207D01*
X148421925Y-113781392D01*
X148432514Y-113784501D01*
X148432674Y-113783905D01*
X148440524Y-113786008D01*
X148440526Y-113786008D01*
X148440528Y-113786009D01*
X148550599Y-113800500D01*
X148749400Y-113800499D01*
X148827261Y-113790249D01*
X148896296Y-113801015D01*
X148947451Y-113845669D01*
X148953651Y-113855220D01*
X148970721Y-113896429D01*
X149033607Y-113978384D01*
X149036267Y-113982481D01*
X149044924Y-114011471D01*
X149055831Y-114039683D01*
X149054820Y-114044609D01*
X149056260Y-114049429D01*
X149047869Y-114078500D01*
X149041792Y-114108128D01*
X149037299Y-114115118D01*
X149036884Y-114116559D01*
X149035719Y-114117577D01*
X149030637Y-114125486D01*
X148970721Y-114203570D01*
X148970719Y-114203573D01*
X148913991Y-114340527D01*
X148913990Y-114340529D01*
X148899500Y-114450598D01*
X148899500Y-114649403D01*
X148913989Y-114759468D01*
X148916094Y-114767322D01*
X148912814Y-114768200D01*
X148918581Y-114822073D01*
X148915517Y-114832522D01*
X148916095Y-114832677D01*
X148913990Y-114840529D01*
X148899500Y-114950598D01*
X148899500Y-115149403D01*
X148913989Y-115259468D01*
X148916094Y-115267322D01*
X148912814Y-115268200D01*
X148918581Y-115322073D01*
X148915517Y-115332522D01*
X148916095Y-115332677D01*
X148913990Y-115340529D01*
X148899500Y-115450598D01*
X148899500Y-115649403D01*
X148913989Y-115759468D01*
X148916094Y-115767322D01*
X148912814Y-115768200D01*
X148918581Y-115822073D01*
X148915517Y-115832522D01*
X148916095Y-115832677D01*
X148913990Y-115840529D01*
X148899500Y-115950598D01*
X148899500Y-116149403D01*
X148913989Y-116259468D01*
X148916094Y-116267322D01*
X148912814Y-116268200D01*
X148918581Y-116322073D01*
X148915517Y-116332522D01*
X148916095Y-116332677D01*
X148913990Y-116340529D01*
X148899500Y-116450598D01*
X148899500Y-116649403D01*
X148913989Y-116759468D01*
X148916094Y-116767322D01*
X148912814Y-116768200D01*
X148918581Y-116822073D01*
X148915517Y-116832522D01*
X148916095Y-116832677D01*
X148913990Y-116840529D01*
X148899500Y-116950598D01*
X148899500Y-117149403D01*
X148913989Y-117259468D01*
X148916094Y-117267322D01*
X148912814Y-117268200D01*
X148918581Y-117322073D01*
X148915517Y-117332522D01*
X148916095Y-117332677D01*
X148913990Y-117340529D01*
X148899500Y-117450598D01*
X148899500Y-117649403D01*
X148913989Y-117759468D01*
X148916094Y-117767322D01*
X148912814Y-117768200D01*
X148918581Y-117822073D01*
X148915517Y-117832522D01*
X148916095Y-117832677D01*
X148913990Y-117840529D01*
X148899500Y-117950598D01*
X148899500Y-118149403D01*
X148913989Y-118259468D01*
X148916094Y-118267322D01*
X148912814Y-118268200D01*
X148918581Y-118322073D01*
X148915517Y-118332522D01*
X148916095Y-118332677D01*
X148913990Y-118340529D01*
X148899500Y-118450598D01*
X148899500Y-118649403D01*
X148909750Y-118727263D01*
X148898983Y-118796298D01*
X148854330Y-118847452D01*
X148844781Y-118853650D01*
X148803571Y-118870721D01*
X148721615Y-118933607D01*
X148717519Y-118936267D01*
X148688530Y-118944923D01*
X148660317Y-118955831D01*
X148655390Y-118954820D01*
X148650570Y-118956260D01*
X148621497Y-118947868D01*
X148591872Y-118941792D01*
X148584882Y-118937299D01*
X148583441Y-118936884D01*
X148582422Y-118935719D01*
X148574514Y-118930637D01*
X148496429Y-118870721D01*
X148496426Y-118870719D01*
X148359472Y-118813991D01*
X148359470Y-118813990D01*
X148249401Y-118799500D01*
X148050596Y-118799500D01*
X147940531Y-118813989D01*
X147932678Y-118816094D01*
X147931802Y-118812824D01*
X147877853Y-118818567D01*
X147867477Y-118815518D01*
X147867323Y-118816095D01*
X147859470Y-118813990D01*
X147749401Y-118799500D01*
X147550596Y-118799500D01*
X147440531Y-118813989D01*
X147432678Y-118816094D01*
X147431802Y-118812824D01*
X147377853Y-118818567D01*
X147367477Y-118815518D01*
X147367323Y-118816095D01*
X147359470Y-118813990D01*
X147249401Y-118799500D01*
X147050596Y-118799500D01*
X146940531Y-118813989D01*
X146932678Y-118816094D01*
X146931802Y-118812824D01*
X146877853Y-118818567D01*
X146867477Y-118815518D01*
X146867323Y-118816095D01*
X146859470Y-118813990D01*
X146749401Y-118799500D01*
X146550596Y-118799500D01*
X146440531Y-118813989D01*
X146432678Y-118816094D01*
X146431802Y-118812824D01*
X146377853Y-118818567D01*
X146367477Y-118815518D01*
X146367323Y-118816095D01*
X146359470Y-118813990D01*
X146249401Y-118799500D01*
X146050596Y-118799500D01*
X145940531Y-118813989D01*
X145932678Y-118816094D01*
X145931802Y-118812824D01*
X145877853Y-118818567D01*
X145867477Y-118815518D01*
X145867323Y-118816095D01*
X145859470Y-118813990D01*
X145749401Y-118799500D01*
X145550596Y-118799500D01*
X145440531Y-118813989D01*
X145432678Y-118816094D01*
X145431802Y-118812824D01*
X145377853Y-118818567D01*
X145367477Y-118815518D01*
X145367323Y-118816095D01*
X145359470Y-118813990D01*
X145249401Y-118799500D01*
X145050596Y-118799500D01*
X144940531Y-118813989D01*
X144932678Y-118816094D01*
X144931802Y-118812824D01*
X144877853Y-118818567D01*
X144867477Y-118815518D01*
X144867323Y-118816095D01*
X144859470Y-118813990D01*
X144749401Y-118799500D01*
X144550596Y-118799500D01*
X144440531Y-118813989D01*
X144432678Y-118816094D01*
X144431802Y-118812824D01*
X144377853Y-118818567D01*
X144367477Y-118815518D01*
X144367323Y-118816095D01*
X144359470Y-118813990D01*
X144249401Y-118799500D01*
X144050598Y-118799500D01*
X144037953Y-118801165D01*
X143968918Y-118790395D01*
X143916665Y-118744012D01*
X143897784Y-118676742D01*
X143898836Y-118662039D01*
X143899053Y-118660393D01*
X143900500Y-118649401D01*
X143900499Y-118450600D01*
X143900479Y-118450451D01*
X143895698Y-118414132D01*
X143886009Y-118340528D01*
X143886008Y-118340525D01*
X143883905Y-118332674D01*
X143887207Y-118331789D01*
X143881392Y-118278075D01*
X143884501Y-118267485D01*
X143883905Y-118267326D01*
X143886008Y-118259475D01*
X143886008Y-118259474D01*
X143886009Y-118259472D01*
X143900500Y-118149401D01*
X143900499Y-117950600D01*
X143886009Y-117840528D01*
X143886008Y-117840525D01*
X143883905Y-117832674D01*
X143887207Y-117831789D01*
X143881392Y-117778075D01*
X143884501Y-117767485D01*
X143883905Y-117767326D01*
X143886008Y-117759475D01*
X143886008Y-117759474D01*
X143886009Y-117759472D01*
X143900500Y-117649401D01*
X143900499Y-117450600D01*
X143900499Y-117450598D01*
X143900499Y-117450596D01*
X143886011Y-117340536D01*
X143886009Y-117340529D01*
X143886009Y-117340528D01*
X143829279Y-117203571D01*
X143769360Y-117125484D01*
X143744168Y-117060318D01*
X143758206Y-116991873D01*
X143769356Y-116974521D01*
X143829279Y-116896429D01*
X143886009Y-116759472D01*
X143900500Y-116649401D01*
X143900499Y-116450600D01*
X143886009Y-116340528D01*
X143886008Y-116340525D01*
X143883905Y-116332674D01*
X143887207Y-116331789D01*
X143881392Y-116278075D01*
X143884501Y-116267485D01*
X143883905Y-116267326D01*
X143886008Y-116259475D01*
X143886008Y-116259474D01*
X143886009Y-116259472D01*
X143900500Y-116149401D01*
X143900499Y-115950600D01*
X143886009Y-115840528D01*
X143886008Y-115840525D01*
X143883905Y-115832674D01*
X143887207Y-115831789D01*
X143881392Y-115778075D01*
X143884501Y-115767485D01*
X143883905Y-115767326D01*
X143886008Y-115759475D01*
X143886008Y-115759474D01*
X143886009Y-115759472D01*
X143900500Y-115649401D01*
X143900499Y-115450600D01*
X143886009Y-115340528D01*
X143886008Y-115340525D01*
X143883905Y-115332674D01*
X143887207Y-115331789D01*
X143881392Y-115278075D01*
X143884501Y-115267485D01*
X143883905Y-115267326D01*
X143886008Y-115259475D01*
X143886008Y-115259474D01*
X143886009Y-115259472D01*
X143900500Y-115149401D01*
X143900499Y-114950600D01*
X143886009Y-114840528D01*
X143886008Y-114840525D01*
X143883905Y-114832674D01*
X143887207Y-114831789D01*
X143881392Y-114778075D01*
X143884501Y-114767485D01*
X143883905Y-114767326D01*
X143886008Y-114759475D01*
X143886008Y-114759474D01*
X143886009Y-114759472D01*
X143900500Y-114649401D01*
X143900499Y-114450600D01*
X143886009Y-114340528D01*
X143886008Y-114340525D01*
X143883905Y-114332674D01*
X143887207Y-114331789D01*
X143881392Y-114278075D01*
X143884501Y-114267485D01*
X143883905Y-114267326D01*
X143886008Y-114259475D01*
X143886008Y-114259474D01*
X143886009Y-114259472D01*
X143900500Y-114149401D01*
X143900499Y-113950600D01*
X143899149Y-113940348D01*
X143890249Y-113872737D01*
X143901015Y-113803702D01*
X143945669Y-113752547D01*
X143955213Y-113746351D01*
X143996429Y-113729279D01*
X144078398Y-113666381D01*
X144082480Y-113663732D01*
X144111464Y-113655076D01*
X144139681Y-113644168D01*
X144144608Y-113645178D01*
X144149429Y-113643739D01*
X144178496Y-113652129D01*
G37*
%TD.AperFunction*%
%TA.AperFunction,Conductor*%
G36*
X135048205Y-113503542D02*
G01*
X135092552Y-113532043D01*
X137067955Y-115507446D01*
X137101440Y-115568769D01*
X137096456Y-115638461D01*
X137067955Y-115682808D01*
X135687583Y-117063181D01*
X135626260Y-117096666D01*
X135599902Y-117099500D01*
X135100098Y-117099500D01*
X135033059Y-117079815D01*
X135012417Y-117063181D01*
X134687590Y-116738355D01*
X134687588Y-116738352D01*
X134568717Y-116619481D01*
X134568716Y-116619480D01*
X134464960Y-116559577D01*
X134464959Y-116559576D01*
X134431783Y-116540422D01*
X134375881Y-116525443D01*
X134279057Y-116499499D01*
X134120943Y-116499499D01*
X134113347Y-116499499D01*
X134113331Y-116499500D01*
X133724499Y-116499500D01*
X133657460Y-116479815D01*
X133611705Y-116427011D01*
X133600499Y-116375500D01*
X133600499Y-116299998D01*
X133600498Y-116299981D01*
X133589999Y-116197203D01*
X133589998Y-116197200D01*
X133534814Y-116030666D01*
X133442712Y-115881344D01*
X133318656Y-115757288D01*
X133197904Y-115682808D01*
X133169336Y-115665187D01*
X133169331Y-115665185D01*
X133121695Y-115649400D01*
X133002797Y-115610001D01*
X133002795Y-115610000D01*
X132900010Y-115599500D01*
X130899998Y-115599500D01*
X130899981Y-115599501D01*
X130797203Y-115610000D01*
X130797200Y-115610001D01*
X130630668Y-115665185D01*
X130630659Y-115665190D01*
X130549596Y-115715189D01*
X130482203Y-115733629D01*
X130415540Y-115712706D01*
X130370771Y-115659063D01*
X130360500Y-115609650D01*
X130360500Y-114890349D01*
X130380185Y-114823310D01*
X130432989Y-114777555D01*
X130502147Y-114767611D01*
X130549594Y-114784809D01*
X130630666Y-114834814D01*
X130797203Y-114889999D01*
X130899991Y-114900500D01*
X132900008Y-114900499D01*
X133002797Y-114889999D01*
X133169334Y-114834814D01*
X133318656Y-114742712D01*
X133442712Y-114618656D01*
X133534814Y-114469334D01*
X133589999Y-114302797D01*
X133600500Y-114200009D01*
X133600500Y-114124500D01*
X133620185Y-114057461D01*
X133672989Y-114011706D01*
X133724500Y-114000500D01*
X134113331Y-114000500D01*
X134113347Y-114000501D01*
X134120943Y-114000501D01*
X134279054Y-114000501D01*
X134279057Y-114000501D01*
X134431785Y-113959577D01*
X134492538Y-113924501D01*
X134568716Y-113880520D01*
X134680520Y-113768716D01*
X134680520Y-113768714D01*
X134690724Y-113758511D01*
X134690727Y-113758506D01*
X134917193Y-113532040D01*
X134978513Y-113498558D01*
X135048205Y-113503542D01*
G37*
%TD.AperFunction*%
%TA.AperFunction,Conductor*%
G36*
X152966366Y-113960826D02*
G01*
X152997559Y-114023346D01*
X152999500Y-114045202D01*
X152999500Y-114273599D01*
X152979815Y-114340638D01*
X152963181Y-114361280D01*
X152661280Y-114663181D01*
X152599957Y-114696666D01*
X152573599Y-114699500D01*
X152226401Y-114699500D01*
X152159362Y-114679815D01*
X152138720Y-114663181D01*
X151879570Y-114404031D01*
X151846085Y-114342708D01*
X151851069Y-114273016D01*
X151892941Y-114217083D01*
X151943059Y-114194733D01*
X152039744Y-114175501D01*
X152158127Y-114126465D01*
X152191663Y-114104057D01*
X152264669Y-114055277D01*
X152337250Y-113982694D01*
X152341738Y-113978980D01*
X152368695Y-113967395D01*
X152394450Y-113953333D01*
X152403748Y-113952333D01*
X152405932Y-113951395D01*
X152408496Y-113951822D01*
X152420809Y-113950499D01*
X152698338Y-113950499D01*
X152698344Y-113950499D01*
X152698352Y-113950498D01*
X152698355Y-113950498D01*
X152752760Y-113944940D01*
X152797708Y-113940349D01*
X152836496Y-113927495D01*
X152906324Y-113925094D01*
X152966366Y-113960826D01*
G37*
%TD.AperFunction*%
%TA.AperFunction,Conductor*%
G36*
X144966942Y-109320185D02*
G01*
X144987584Y-109336819D01*
X145163181Y-109512416D01*
X145196666Y-109573739D01*
X145199500Y-109600097D01*
X145199500Y-110899902D01*
X145179815Y-110966941D01*
X145163181Y-110987583D01*
X144512181Y-111638583D01*
X144450858Y-111672068D01*
X144381166Y-111667084D01*
X144325233Y-111625212D01*
X144300816Y-111559748D01*
X144300500Y-111550902D01*
X144300500Y-110735928D01*
X144275502Y-110610261D01*
X144275501Y-110610260D01*
X144275501Y-110610256D01*
X144226465Y-110491873D01*
X144217383Y-110478281D01*
X144203725Y-110457839D01*
X144155275Y-110385328D01*
X144136818Y-110366871D01*
X144103333Y-110305548D01*
X144100499Y-110279190D01*
X144100499Y-110001662D01*
X144100498Y-110001644D01*
X144090349Y-109902292D01*
X144090348Y-109902289D01*
X144074629Y-109854851D01*
X144037003Y-109741303D01*
X144036999Y-109741297D01*
X144036998Y-109741294D01*
X143947970Y-109596959D01*
X143947967Y-109596955D01*
X143863193Y-109512181D01*
X143829708Y-109450858D01*
X143834692Y-109381166D01*
X143876564Y-109325233D01*
X143942028Y-109300816D01*
X143950874Y-109300500D01*
X144899903Y-109300500D01*
X144966942Y-109320185D01*
G37*
%TD.AperFunction*%
%TA.AperFunction,Conductor*%
G36*
X142114973Y-109805415D02*
G01*
X142126284Y-109806224D01*
X142145673Y-109820739D01*
X142167344Y-109831556D01*
X142173141Y-109841301D01*
X142182217Y-109848096D01*
X142190680Y-109870786D01*
X142203064Y-109891605D01*
X142204962Y-109909077D01*
X142206634Y-109913560D01*
X142206488Y-109923126D01*
X142206876Y-109926693D01*
X142206731Y-109930869D01*
X142199500Y-110001655D01*
X142199500Y-110139917D01*
X142199426Y-110142057D01*
X142189076Y-110173269D01*
X142179815Y-110204809D01*
X142178135Y-110206264D01*
X142177435Y-110208376D01*
X142163181Y-110225451D01*
X141975451Y-110413181D01*
X141914128Y-110446666D01*
X141887770Y-110449500D01*
X141703650Y-110449500D01*
X141636611Y-110429815D01*
X141615969Y-110413181D01*
X141604072Y-110401284D01*
X141570587Y-110339961D01*
X141575571Y-110270269D01*
X141604070Y-110225924D01*
X141995272Y-109834723D01*
X142016525Y-109823118D01*
X142035369Y-109807898D01*
X142046641Y-109806673D01*
X142056592Y-109801240D01*
X142080751Y-109802967D01*
X142104830Y-109800352D01*
X142114973Y-109805415D01*
G37*
%TD.AperFunction*%
%TA.AperFunction,Conductor*%
G36*
X146829809Y-106695185D02*
G01*
X146850451Y-106711819D01*
X148761539Y-108622907D01*
X148788419Y-108663135D01*
X148846295Y-108802860D01*
X148939373Y-108942162D01*
X149057837Y-109060626D01*
X149121578Y-109103216D01*
X149197137Y-109153703D01*
X149197138Y-109153703D01*
X149197139Y-109153704D01*
X149197141Y-109153705D01*
X149215578Y-109161342D01*
X149269982Y-109205183D01*
X149292047Y-109271477D01*
X149274768Y-109339176D01*
X149255807Y-109363584D01*
X148512180Y-110107212D01*
X148450857Y-110140697D01*
X148381166Y-110135713D01*
X148325232Y-110093841D01*
X148300815Y-110028377D01*
X148300499Y-110019531D01*
X148300499Y-109987498D01*
X148300498Y-109987481D01*
X148289999Y-109884703D01*
X148289998Y-109884700D01*
X148285387Y-109870786D01*
X148234814Y-109718166D01*
X148142712Y-109568844D01*
X148018656Y-109444788D01*
X147869334Y-109352686D01*
X147702797Y-109297501D01*
X147702795Y-109297500D01*
X147600010Y-109287000D01*
X146599998Y-109287000D01*
X146599977Y-109287002D01*
X146528088Y-109294345D01*
X146499674Y-109289062D01*
X146470876Y-109286684D01*
X146465747Y-109282755D01*
X146459395Y-109281575D01*
X146438346Y-109261767D01*
X146415408Y-109244198D01*
X146411906Y-109236887D01*
X146408512Y-109233693D01*
X146398835Y-109213037D01*
X146397069Y-109208138D01*
X146390115Y-109182184D01*
X146359577Y-109068215D01*
X146330639Y-109018095D01*
X146280520Y-108931284D01*
X146168716Y-108819480D01*
X146168715Y-108819479D01*
X146164385Y-108815149D01*
X146164374Y-108815139D01*
X145687590Y-108338355D01*
X145687588Y-108338352D01*
X145568717Y-108219481D01*
X145568716Y-108219480D01*
X145481904Y-108169360D01*
X145481904Y-108169359D01*
X145481900Y-108169358D01*
X145431785Y-108140423D01*
X145279057Y-108099499D01*
X145120943Y-108099499D01*
X145113347Y-108099499D01*
X145113331Y-108099500D01*
X142367430Y-108099500D01*
X142367414Y-108099499D01*
X142359818Y-108099499D01*
X142201704Y-108099499D01*
X142125583Y-108119896D01*
X142048971Y-108140424D01*
X142048970Y-108140425D01*
X141998857Y-108169359D01*
X141998856Y-108169360D01*
X141957325Y-108193338D01*
X141912046Y-108219479D01*
X141912043Y-108219481D01*
X140962181Y-109169344D01*
X140900858Y-109202829D01*
X140831166Y-109197845D01*
X140775233Y-109155973D01*
X140750816Y-109090509D01*
X140750500Y-109081663D01*
X140750500Y-108612229D01*
X140770185Y-108545190D01*
X140786819Y-108524548D01*
X142599548Y-106711819D01*
X142660871Y-106678334D01*
X142687229Y-106675500D01*
X146762770Y-106675500D01*
X146829809Y-106695185D01*
G37*
%TD.AperFunction*%
%TA.AperFunction,Conductor*%
G36*
X158745703Y-102558328D02*
G01*
X158752181Y-102564360D01*
X163570768Y-107382948D01*
X163570772Y-107382951D01*
X163693686Y-107465080D01*
X163693699Y-107465087D01*
X163830270Y-107521656D01*
X163830275Y-107521658D01*
X163830279Y-107521658D01*
X163830280Y-107521659D01*
X163975267Y-107550500D01*
X163975270Y-107550500D01*
X164123105Y-107550500D01*
X165737770Y-107550500D01*
X165767210Y-107559144D01*
X165797197Y-107565668D01*
X165802212Y-107569422D01*
X165804809Y-107570185D01*
X165825451Y-107586819D01*
X165853138Y-107614506D01*
X165886623Y-107675829D01*
X165881639Y-107745521D01*
X165839767Y-107801454D01*
X165784856Y-107824660D01*
X165733759Y-107832753D01*
X165531585Y-107898444D01*
X165342179Y-107994951D01*
X165170213Y-108119890D01*
X165019890Y-108270213D01*
X164892085Y-108446125D01*
X164890740Y-108445148D01*
X164844295Y-108487166D01*
X164790382Y-108499500D01*
X160809618Y-108499500D01*
X160742579Y-108479815D01*
X160708900Y-108445408D01*
X160707915Y-108446125D01*
X160580109Y-108270213D01*
X160429786Y-108119890D01*
X160257820Y-107994951D01*
X160068414Y-107898444D01*
X160068413Y-107898443D01*
X160068412Y-107898443D01*
X159866243Y-107832754D01*
X159866241Y-107832753D01*
X159866240Y-107832753D01*
X159704957Y-107807208D01*
X159656287Y-107799500D01*
X159443713Y-107799500D01*
X159395042Y-107807208D01*
X159233760Y-107832753D01*
X159031585Y-107898444D01*
X158842179Y-107994951D01*
X158670213Y-108119890D01*
X158519890Y-108270213D01*
X158394951Y-108442179D01*
X158298444Y-108631585D01*
X158255479Y-108763818D01*
X158216041Y-108821494D01*
X158151683Y-108848692D01*
X158137548Y-108849500D01*
X157136669Y-108849500D01*
X157136653Y-108849499D01*
X157129057Y-108849499D01*
X156970943Y-108849499D01*
X156863587Y-108878265D01*
X156818210Y-108890424D01*
X156810706Y-108893533D01*
X156809534Y-108890704D01*
X156755749Y-108903736D01*
X156749082Y-108903236D01*
X156712510Y-108899500D01*
X156087498Y-108899500D01*
X156087480Y-108899501D01*
X155984703Y-108910000D01*
X155984700Y-108910001D01*
X155818168Y-108965185D01*
X155818163Y-108965187D01*
X155668842Y-109057289D01*
X155575181Y-109150951D01*
X155513858Y-109184436D01*
X155444166Y-109179452D01*
X155399819Y-109150951D01*
X155306157Y-109057289D01*
X155306156Y-109057288D01*
X155213388Y-109000069D01*
X155156836Y-108965187D01*
X155156831Y-108965185D01*
X155155362Y-108964698D01*
X154990297Y-108910001D01*
X154990295Y-108910000D01*
X154887516Y-108899500D01*
X154324500Y-108899500D01*
X154257461Y-108879815D01*
X154211706Y-108827011D01*
X154200500Y-108775500D01*
X154200500Y-108465783D01*
X154220185Y-108398744D01*
X154236819Y-108378102D01*
X156378102Y-106236819D01*
X156439425Y-106203334D01*
X156465783Y-106200500D01*
X156952312Y-106200500D01*
X157110427Y-106200501D01*
X157263154Y-106159577D01*
X157305868Y-106134916D01*
X157400086Y-106080520D01*
X157511890Y-105968716D01*
X157511890Y-105968715D01*
X157529326Y-105951279D01*
X157529327Y-105951276D01*
X158420519Y-105060089D01*
X158433409Y-105037762D01*
X158436863Y-105031782D01*
X158467673Y-104978416D01*
X158499577Y-104923156D01*
X158540500Y-104770429D01*
X158540500Y-102652041D01*
X158560185Y-102585002D01*
X158612989Y-102539247D01*
X158682147Y-102529303D01*
X158745703Y-102558328D01*
G37*
%TD.AperFunction*%
%TA.AperFunction,Conductor*%
G36*
X143367942Y-100770185D02*
G01*
X143413697Y-100822989D01*
X143423641Y-100892147D01*
X143394616Y-100955703D01*
X143388584Y-100962181D01*
X142887584Y-101463181D01*
X142826261Y-101496666D01*
X142799903Y-101499500D01*
X142753713Y-101499500D01*
X142705042Y-101507208D01*
X142543760Y-101532753D01*
X142341585Y-101598444D01*
X142152179Y-101694951D01*
X141980213Y-101819890D01*
X141829890Y-101970213D01*
X141704951Y-102142179D01*
X141608444Y-102331585D01*
X141542753Y-102533760D01*
X141509500Y-102743713D01*
X141509500Y-102956286D01*
X141526915Y-103066244D01*
X141542754Y-103166243D01*
X141564939Y-103234522D01*
X141565804Y-103237182D01*
X141567799Y-103307023D01*
X141531719Y-103366856D01*
X141469018Y-103397684D01*
X141447873Y-103399500D01*
X139260098Y-103399500D01*
X139230657Y-103390855D01*
X139200671Y-103384332D01*
X139195655Y-103380577D01*
X139193059Y-103379815D01*
X139172417Y-103363181D01*
X139121115Y-103311879D01*
X139087630Y-103250556D01*
X139090864Y-103185881D01*
X139097246Y-103166243D01*
X139130500Y-102956287D01*
X139130500Y-102743713D01*
X139097246Y-102533757D01*
X139031557Y-102331588D01*
X138935051Y-102142184D01*
X138935049Y-102142181D01*
X138935048Y-102142179D01*
X138810109Y-101970213D01*
X138659786Y-101819890D01*
X138487820Y-101694951D01*
X138298414Y-101598444D01*
X138298413Y-101598443D01*
X138298412Y-101598443D01*
X138096243Y-101532754D01*
X138096241Y-101532753D01*
X138096240Y-101532753D01*
X137934957Y-101507208D01*
X137886287Y-101499500D01*
X137673713Y-101499500D01*
X137625042Y-101507208D01*
X137463760Y-101532753D01*
X137261585Y-101598444D01*
X137072179Y-101694951D01*
X136900213Y-101819890D01*
X136749890Y-101970213D01*
X136624949Y-102142182D01*
X136620484Y-102150946D01*
X136572509Y-102201742D01*
X136504688Y-102218536D01*
X136438553Y-102195998D01*
X136399516Y-102150946D01*
X136395050Y-102142182D01*
X136270109Y-101970213D01*
X136119786Y-101819890D01*
X135947820Y-101694951D01*
X135758414Y-101598444D01*
X135758413Y-101598443D01*
X135758412Y-101598443D01*
X135556243Y-101532754D01*
X135556241Y-101532753D01*
X135556240Y-101532753D01*
X135394957Y-101507208D01*
X135346287Y-101499500D01*
X135133713Y-101499500D01*
X135085042Y-101507208D01*
X134923760Y-101532753D01*
X134721585Y-101598444D01*
X134532179Y-101694951D01*
X134360213Y-101819890D01*
X134356512Y-101823053D01*
X134355326Y-101821665D01*
X134300858Y-101851408D01*
X134231166Y-101846424D01*
X134175233Y-101804552D01*
X134150816Y-101739088D01*
X134150500Y-101730242D01*
X134150500Y-101362229D01*
X134170185Y-101295190D01*
X134186819Y-101274548D01*
X134674548Y-100786819D01*
X134735871Y-100753334D01*
X134762229Y-100750500D01*
X143300903Y-100750500D01*
X143367942Y-100770185D01*
G37*
%TD.AperFunction*%
%TD*%
M02*
