%TF.GenerationSoftware,KiCad,Pcbnew,10.0.4*%
%TF.CreationDate,2026-09-03T23:38:23+02:00*%
%TF.ProjectId,1STM,3153544d-2e6b-4696-9361-645f70636258,rev?*%
%TF.SameCoordinates,Original*%
%TF.FileFunction,Legend,Top*%
%TF.FilePolarity,Positive*%
%FSLAX46Y46*%
G04 Gerber Fmt 4.6, Leading zero omitted, Abs format (unit mm)*
G04 Created by KiCad (PCBNEW 10.0.4) date 2026-09-03 23:38:23*
%MOMM*%
%LPD*%
G01*
G04 APERTURE LIST*
%ADD10C,0.150000*%
%ADD11C,0.120000*%
G04 APERTURE END LIST*
D10*
X149204819Y-109554166D02*
X148728628Y-109887499D01*
X149204819Y-110125594D02*
X148204819Y-110125594D01*
X148204819Y-110125594D02*
X148204819Y-109744642D01*
X148204819Y-109744642D02*
X148252438Y-109649404D01*
X148252438Y-109649404D02*
X148300057Y-109601785D01*
X148300057Y-109601785D02*
X148395295Y-109554166D01*
X148395295Y-109554166D02*
X148538152Y-109554166D01*
X148538152Y-109554166D02*
X148633390Y-109601785D01*
X148633390Y-109601785D02*
X148681009Y-109649404D01*
X148681009Y-109649404D02*
X148728628Y-109744642D01*
X148728628Y-109744642D02*
X148728628Y-110125594D01*
X148538152Y-108697023D02*
X149204819Y-108697023D01*
X148157200Y-108935118D02*
X148871485Y-109173213D01*
X148871485Y-109173213D02*
X148871485Y-108554166D01*
X147734819Y-131533333D02*
X148449104Y-131533333D01*
X148449104Y-131533333D02*
X148591961Y-131580952D01*
X148591961Y-131580952D02*
X148687200Y-131676190D01*
X148687200Y-131676190D02*
X148734819Y-131819047D01*
X148734819Y-131819047D02*
X148734819Y-131914285D01*
X148068152Y-130628571D02*
X148734819Y-130628571D01*
X147687200Y-130866666D02*
X148401485Y-131104761D01*
X148401485Y-131104761D02*
X148401485Y-130485714D01*
X134254819Y-131733333D02*
X134969104Y-131733333D01*
X134969104Y-131733333D02*
X135111961Y-131780952D01*
X135111961Y-131780952D02*
X135207200Y-131876190D01*
X135207200Y-131876190D02*
X135254819Y-132019047D01*
X135254819Y-132019047D02*
X135254819Y-132114285D01*
X134254819Y-131352380D02*
X134254819Y-130733333D01*
X134254819Y-130733333D02*
X134635771Y-131066666D01*
X134635771Y-131066666D02*
X134635771Y-130923809D01*
X134635771Y-130923809D02*
X134683390Y-130828571D01*
X134683390Y-130828571D02*
X134731009Y-130780952D01*
X134731009Y-130780952D02*
X134826247Y-130733333D01*
X134826247Y-130733333D02*
X135064342Y-130733333D01*
X135064342Y-130733333D02*
X135159580Y-130780952D01*
X135159580Y-130780952D02*
X135207200Y-130828571D01*
X135207200Y-130828571D02*
X135254819Y-130923809D01*
X135254819Y-130923809D02*
X135254819Y-131209523D01*
X135254819Y-131209523D02*
X135207200Y-131304761D01*
X135207200Y-131304761D02*
X135159580Y-131352380D01*
X129078628Y-115726190D02*
X129554819Y-115726190D01*
X128554819Y-116059523D02*
X129078628Y-115726190D01*
X129078628Y-115726190D02*
X128554819Y-115392857D01*
X129554819Y-114535714D02*
X129554819Y-115107142D01*
X129554819Y-114821428D02*
X128554819Y-114821428D01*
X128554819Y-114821428D02*
X128697676Y-114916666D01*
X128697676Y-114916666D02*
X128792914Y-115011904D01*
X128792914Y-115011904D02*
X128840533Y-115107142D01*
X120029580Y-108291666D02*
X120077200Y-108339285D01*
X120077200Y-108339285D02*
X120124819Y-108482142D01*
X120124819Y-108482142D02*
X120124819Y-108577380D01*
X120124819Y-108577380D02*
X120077200Y-108720237D01*
X120077200Y-108720237D02*
X119981961Y-108815475D01*
X119981961Y-108815475D02*
X119886723Y-108863094D01*
X119886723Y-108863094D02*
X119696247Y-108910713D01*
X119696247Y-108910713D02*
X119553390Y-108910713D01*
X119553390Y-108910713D02*
X119362914Y-108863094D01*
X119362914Y-108863094D02*
X119267676Y-108815475D01*
X119267676Y-108815475D02*
X119172438Y-108720237D01*
X119172438Y-108720237D02*
X119124819Y-108577380D01*
X119124819Y-108577380D02*
X119124819Y-108482142D01*
X119124819Y-108482142D02*
X119172438Y-108339285D01*
X119172438Y-108339285D02*
X119220057Y-108291666D01*
X119553390Y-107720237D02*
X119505771Y-107815475D01*
X119505771Y-107815475D02*
X119458152Y-107863094D01*
X119458152Y-107863094D02*
X119362914Y-107910713D01*
X119362914Y-107910713D02*
X119315295Y-107910713D01*
X119315295Y-107910713D02*
X119220057Y-107863094D01*
X119220057Y-107863094D02*
X119172438Y-107815475D01*
X119172438Y-107815475D02*
X119124819Y-107720237D01*
X119124819Y-107720237D02*
X119124819Y-107529761D01*
X119124819Y-107529761D02*
X119172438Y-107434523D01*
X119172438Y-107434523D02*
X119220057Y-107386904D01*
X119220057Y-107386904D02*
X119315295Y-107339285D01*
X119315295Y-107339285D02*
X119362914Y-107339285D01*
X119362914Y-107339285D02*
X119458152Y-107386904D01*
X119458152Y-107386904D02*
X119505771Y-107434523D01*
X119505771Y-107434523D02*
X119553390Y-107529761D01*
X119553390Y-107529761D02*
X119553390Y-107720237D01*
X119553390Y-107720237D02*
X119601009Y-107815475D01*
X119601009Y-107815475D02*
X119648628Y-107863094D01*
X119648628Y-107863094D02*
X119743866Y-107910713D01*
X119743866Y-107910713D02*
X119934342Y-107910713D01*
X119934342Y-107910713D02*
X120029580Y-107863094D01*
X120029580Y-107863094D02*
X120077200Y-107815475D01*
X120077200Y-107815475D02*
X120124819Y-107720237D01*
X120124819Y-107720237D02*
X120124819Y-107529761D01*
X120124819Y-107529761D02*
X120077200Y-107434523D01*
X120077200Y-107434523D02*
X120029580Y-107386904D01*
X120029580Y-107386904D02*
X119934342Y-107339285D01*
X119934342Y-107339285D02*
X119743866Y-107339285D01*
X119743866Y-107339285D02*
X119648628Y-107386904D01*
X119648628Y-107386904D02*
X119601009Y-107434523D01*
X119601009Y-107434523D02*
X119553390Y-107529761D01*
X121994819Y-125779166D02*
X121518628Y-126112499D01*
X121994819Y-126350594D02*
X120994819Y-126350594D01*
X120994819Y-126350594D02*
X120994819Y-125969642D01*
X120994819Y-125969642D02*
X121042438Y-125874404D01*
X121042438Y-125874404D02*
X121090057Y-125826785D01*
X121090057Y-125826785D02*
X121185295Y-125779166D01*
X121185295Y-125779166D02*
X121328152Y-125779166D01*
X121328152Y-125779166D02*
X121423390Y-125826785D01*
X121423390Y-125826785D02*
X121471009Y-125874404D01*
X121471009Y-125874404D02*
X121518628Y-125969642D01*
X121518628Y-125969642D02*
X121518628Y-126350594D01*
X121994819Y-125302975D02*
X121994819Y-125112499D01*
X121994819Y-125112499D02*
X121947200Y-125017261D01*
X121947200Y-125017261D02*
X121899580Y-124969642D01*
X121899580Y-124969642D02*
X121756723Y-124874404D01*
X121756723Y-124874404D02*
X121566247Y-124826785D01*
X121566247Y-124826785D02*
X121185295Y-124826785D01*
X121185295Y-124826785D02*
X121090057Y-124874404D01*
X121090057Y-124874404D02*
X121042438Y-124922023D01*
X121042438Y-124922023D02*
X120994819Y-125017261D01*
X120994819Y-125017261D02*
X120994819Y-125207737D01*
X120994819Y-125207737D02*
X121042438Y-125302975D01*
X121042438Y-125302975D02*
X121090057Y-125350594D01*
X121090057Y-125350594D02*
X121185295Y-125398213D01*
X121185295Y-125398213D02*
X121423390Y-125398213D01*
X121423390Y-125398213D02*
X121518628Y-125350594D01*
X121518628Y-125350594D02*
X121566247Y-125302975D01*
X121566247Y-125302975D02*
X121613866Y-125207737D01*
X121613866Y-125207737D02*
X121613866Y-125017261D01*
X121613866Y-125017261D02*
X121566247Y-124922023D01*
X121566247Y-124922023D02*
X121518628Y-124874404D01*
X121518628Y-124874404D02*
X121423390Y-124826785D01*
X118524819Y-121438094D02*
X117524819Y-121438094D01*
X117524819Y-121438094D02*
X117524819Y-121199999D01*
X117524819Y-121199999D02*
X117572438Y-121057142D01*
X117572438Y-121057142D02*
X117667676Y-120961904D01*
X117667676Y-120961904D02*
X117762914Y-120914285D01*
X117762914Y-120914285D02*
X117953390Y-120866666D01*
X117953390Y-120866666D02*
X118096247Y-120866666D01*
X118096247Y-120866666D02*
X118286723Y-120914285D01*
X118286723Y-120914285D02*
X118381961Y-120961904D01*
X118381961Y-120961904D02*
X118477200Y-121057142D01*
X118477200Y-121057142D02*
X118524819Y-121199999D01*
X118524819Y-121199999D02*
X118524819Y-121438094D01*
X118524819Y-119914285D02*
X118524819Y-120485713D01*
X118524819Y-120199999D02*
X117524819Y-120199999D01*
X117524819Y-120199999D02*
X117667676Y-120295237D01*
X117667676Y-120295237D02*
X117762914Y-120390475D01*
X117762914Y-120390475D02*
X117810533Y-120485713D01*
X155504819Y-113479166D02*
X155028628Y-113812499D01*
X155504819Y-114050594D02*
X154504819Y-114050594D01*
X154504819Y-114050594D02*
X154504819Y-113669642D01*
X154504819Y-113669642D02*
X154552438Y-113574404D01*
X154552438Y-113574404D02*
X154600057Y-113526785D01*
X154600057Y-113526785D02*
X154695295Y-113479166D01*
X154695295Y-113479166D02*
X154838152Y-113479166D01*
X154838152Y-113479166D02*
X154933390Y-113526785D01*
X154933390Y-113526785D02*
X154981009Y-113574404D01*
X154981009Y-113574404D02*
X155028628Y-113669642D01*
X155028628Y-113669642D02*
X155028628Y-114050594D01*
X155504819Y-112526785D02*
X155504819Y-113098213D01*
X155504819Y-112812499D02*
X154504819Y-112812499D01*
X154504819Y-112812499D02*
X154647676Y-112907737D01*
X154647676Y-112907737D02*
X154742914Y-113002975D01*
X154742914Y-113002975D02*
X154790533Y-113098213D01*
X161300595Y-127404819D02*
X161300595Y-128214342D01*
X161300595Y-128214342D02*
X161348214Y-128309580D01*
X161348214Y-128309580D02*
X161395833Y-128357200D01*
X161395833Y-128357200D02*
X161491071Y-128404819D01*
X161491071Y-128404819D02*
X161681547Y-128404819D01*
X161681547Y-128404819D02*
X161776785Y-128357200D01*
X161776785Y-128357200D02*
X161824404Y-128309580D01*
X161824404Y-128309580D02*
X161872023Y-128214342D01*
X161872023Y-128214342D02*
X161872023Y-127404819D01*
X162300595Y-127500057D02*
X162348214Y-127452438D01*
X162348214Y-127452438D02*
X162443452Y-127404819D01*
X162443452Y-127404819D02*
X162681547Y-127404819D01*
X162681547Y-127404819D02*
X162776785Y-127452438D01*
X162776785Y-127452438D02*
X162824404Y-127500057D01*
X162824404Y-127500057D02*
X162872023Y-127595295D01*
X162872023Y-127595295D02*
X162872023Y-127690533D01*
X162872023Y-127690533D02*
X162824404Y-127833390D01*
X162824404Y-127833390D02*
X162252976Y-128404819D01*
X162252976Y-128404819D02*
X162872023Y-128404819D01*
X122314819Y-121463094D02*
X121314819Y-121463094D01*
X121314819Y-121463094D02*
X121314819Y-121224999D01*
X121314819Y-121224999D02*
X121362438Y-121082142D01*
X121362438Y-121082142D02*
X121457676Y-120986904D01*
X121457676Y-120986904D02*
X121552914Y-120939285D01*
X121552914Y-120939285D02*
X121743390Y-120891666D01*
X121743390Y-120891666D02*
X121886247Y-120891666D01*
X121886247Y-120891666D02*
X122076723Y-120939285D01*
X122076723Y-120939285D02*
X122171961Y-120986904D01*
X122171961Y-120986904D02*
X122267200Y-121082142D01*
X122267200Y-121082142D02*
X122314819Y-121224999D01*
X122314819Y-121224999D02*
X122314819Y-121463094D01*
X121410057Y-120510713D02*
X121362438Y-120463094D01*
X121362438Y-120463094D02*
X121314819Y-120367856D01*
X121314819Y-120367856D02*
X121314819Y-120129761D01*
X121314819Y-120129761D02*
X121362438Y-120034523D01*
X121362438Y-120034523D02*
X121410057Y-119986904D01*
X121410057Y-119986904D02*
X121505295Y-119939285D01*
X121505295Y-119939285D02*
X121600533Y-119939285D01*
X121600533Y-119939285D02*
X121743390Y-119986904D01*
X121743390Y-119986904D02*
X122314819Y-120558332D01*
X122314819Y-120558332D02*
X122314819Y-119939285D01*
X145638095Y-110924819D02*
X145638095Y-111734342D01*
X145638095Y-111734342D02*
X145685714Y-111829580D01*
X145685714Y-111829580D02*
X145733333Y-111877200D01*
X145733333Y-111877200D02*
X145828571Y-111924819D01*
X145828571Y-111924819D02*
X146019047Y-111924819D01*
X146019047Y-111924819D02*
X146114285Y-111877200D01*
X146114285Y-111877200D02*
X146161904Y-111829580D01*
X146161904Y-111829580D02*
X146209523Y-111734342D01*
X146209523Y-111734342D02*
X146209523Y-110924819D01*
X147209523Y-111924819D02*
X146638095Y-111924819D01*
X146923809Y-111924819D02*
X146923809Y-110924819D01*
X146923809Y-110924819D02*
X146828571Y-111067676D01*
X146828571Y-111067676D02*
X146733333Y-111162914D01*
X146733333Y-111162914D02*
X146638095Y-111210533D01*
X155554819Y-118166666D02*
X155078628Y-118499999D01*
X155554819Y-118738094D02*
X154554819Y-118738094D01*
X154554819Y-118738094D02*
X154554819Y-118357142D01*
X154554819Y-118357142D02*
X154602438Y-118261904D01*
X154602438Y-118261904D02*
X154650057Y-118214285D01*
X154650057Y-118214285D02*
X154745295Y-118166666D01*
X154745295Y-118166666D02*
X154888152Y-118166666D01*
X154888152Y-118166666D02*
X154983390Y-118214285D01*
X154983390Y-118214285D02*
X155031009Y-118261904D01*
X155031009Y-118261904D02*
X155078628Y-118357142D01*
X155078628Y-118357142D02*
X155078628Y-118738094D01*
X154650057Y-117785713D02*
X154602438Y-117738094D01*
X154602438Y-117738094D02*
X154554819Y-117642856D01*
X154554819Y-117642856D02*
X154554819Y-117404761D01*
X154554819Y-117404761D02*
X154602438Y-117309523D01*
X154602438Y-117309523D02*
X154650057Y-117261904D01*
X154650057Y-117261904D02*
X154745295Y-117214285D01*
X154745295Y-117214285D02*
X154840533Y-117214285D01*
X154840533Y-117214285D02*
X154983390Y-117261904D01*
X154983390Y-117261904D02*
X155554819Y-117833332D01*
X155554819Y-117833332D02*
X155554819Y-117214285D01*
X155320833Y-108904819D02*
X154987500Y-108428628D01*
X154749405Y-108904819D02*
X154749405Y-107904819D01*
X154749405Y-107904819D02*
X155130357Y-107904819D01*
X155130357Y-107904819D02*
X155225595Y-107952438D01*
X155225595Y-107952438D02*
X155273214Y-108000057D01*
X155273214Y-108000057D02*
X155320833Y-108095295D01*
X155320833Y-108095295D02*
X155320833Y-108238152D01*
X155320833Y-108238152D02*
X155273214Y-108333390D01*
X155273214Y-108333390D02*
X155225595Y-108381009D01*
X155225595Y-108381009D02*
X155130357Y-108428628D01*
X155130357Y-108428628D02*
X154749405Y-108428628D01*
X155654167Y-107904819D02*
X156320833Y-107904819D01*
X156320833Y-107904819D02*
X155892262Y-108904819D01*
X126666667Y-101107200D02*
X126809524Y-101154819D01*
X126809524Y-101154819D02*
X127047619Y-101154819D01*
X127047619Y-101154819D02*
X127142857Y-101107200D01*
X127142857Y-101107200D02*
X127190476Y-101059580D01*
X127190476Y-101059580D02*
X127238095Y-100964342D01*
X127238095Y-100964342D02*
X127238095Y-100869104D01*
X127238095Y-100869104D02*
X127190476Y-100773866D01*
X127190476Y-100773866D02*
X127142857Y-100726247D01*
X127142857Y-100726247D02*
X127047619Y-100678628D01*
X127047619Y-100678628D02*
X126857143Y-100631009D01*
X126857143Y-100631009D02*
X126761905Y-100583390D01*
X126761905Y-100583390D02*
X126714286Y-100535771D01*
X126714286Y-100535771D02*
X126666667Y-100440533D01*
X126666667Y-100440533D02*
X126666667Y-100345295D01*
X126666667Y-100345295D02*
X126714286Y-100250057D01*
X126714286Y-100250057D02*
X126761905Y-100202438D01*
X126761905Y-100202438D02*
X126857143Y-100154819D01*
X126857143Y-100154819D02*
X127095238Y-100154819D01*
X127095238Y-100154819D02*
X127238095Y-100202438D01*
X127571429Y-100154819D02*
X127809524Y-101154819D01*
X127809524Y-101154819D02*
X128000000Y-100440533D01*
X128000000Y-100440533D02*
X128190476Y-101154819D01*
X128190476Y-101154819D02*
X128428572Y-100154819D01*
X129333333Y-101154819D02*
X128761905Y-101154819D01*
X129047619Y-101154819D02*
X129047619Y-100154819D01*
X129047619Y-100154819D02*
X128952381Y-100297676D01*
X128952381Y-100297676D02*
X128857143Y-100392914D01*
X128857143Y-100392914D02*
X128761905Y-100440533D01*
X147374819Y-103183333D02*
X148089104Y-103183333D01*
X148089104Y-103183333D02*
X148231961Y-103230952D01*
X148231961Y-103230952D02*
X148327200Y-103326190D01*
X148327200Y-103326190D02*
X148374819Y-103469047D01*
X148374819Y-103469047D02*
X148374819Y-103564285D01*
X147470057Y-102754761D02*
X147422438Y-102707142D01*
X147422438Y-102707142D02*
X147374819Y-102611904D01*
X147374819Y-102611904D02*
X147374819Y-102373809D01*
X147374819Y-102373809D02*
X147422438Y-102278571D01*
X147422438Y-102278571D02*
X147470057Y-102230952D01*
X147470057Y-102230952D02*
X147565295Y-102183333D01*
X147565295Y-102183333D02*
X147660533Y-102183333D01*
X147660533Y-102183333D02*
X147803390Y-102230952D01*
X147803390Y-102230952D02*
X148374819Y-102802380D01*
X148374819Y-102802380D02*
X148374819Y-102183333D01*
X167622080Y-125516666D02*
X167669700Y-125564285D01*
X167669700Y-125564285D02*
X167717319Y-125707142D01*
X167717319Y-125707142D02*
X167717319Y-125802380D01*
X167717319Y-125802380D02*
X167669700Y-125945237D01*
X167669700Y-125945237D02*
X167574461Y-126040475D01*
X167574461Y-126040475D02*
X167479223Y-126088094D01*
X167479223Y-126088094D02*
X167288747Y-126135713D01*
X167288747Y-126135713D02*
X167145890Y-126135713D01*
X167145890Y-126135713D02*
X166955414Y-126088094D01*
X166955414Y-126088094D02*
X166860176Y-126040475D01*
X166860176Y-126040475D02*
X166764938Y-125945237D01*
X166764938Y-125945237D02*
X166717319Y-125802380D01*
X166717319Y-125802380D02*
X166717319Y-125707142D01*
X166717319Y-125707142D02*
X166764938Y-125564285D01*
X166764938Y-125564285D02*
X166812557Y-125516666D01*
X166717319Y-124659523D02*
X166717319Y-124849999D01*
X166717319Y-124849999D02*
X166764938Y-124945237D01*
X166764938Y-124945237D02*
X166812557Y-124992856D01*
X166812557Y-124992856D02*
X166955414Y-125088094D01*
X166955414Y-125088094D02*
X167145890Y-125135713D01*
X167145890Y-125135713D02*
X167526842Y-125135713D01*
X167526842Y-125135713D02*
X167622080Y-125088094D01*
X167622080Y-125088094D02*
X167669700Y-125040475D01*
X167669700Y-125040475D02*
X167717319Y-124945237D01*
X167717319Y-124945237D02*
X167717319Y-124754761D01*
X167717319Y-124754761D02*
X167669700Y-124659523D01*
X167669700Y-124659523D02*
X167622080Y-124611904D01*
X167622080Y-124611904D02*
X167526842Y-124564285D01*
X167526842Y-124564285D02*
X167288747Y-124564285D01*
X167288747Y-124564285D02*
X167193509Y-124611904D01*
X167193509Y-124611904D02*
X167145890Y-124659523D01*
X167145890Y-124659523D02*
X167098271Y-124754761D01*
X167098271Y-124754761D02*
X167098271Y-124945237D01*
X167098271Y-124945237D02*
X167145890Y-125040475D01*
X167145890Y-125040475D02*
X167193509Y-125088094D01*
X167193509Y-125088094D02*
X167288747Y-125135713D01*
X157059580Y-126566666D02*
X157107200Y-126614285D01*
X157107200Y-126614285D02*
X157154819Y-126757142D01*
X157154819Y-126757142D02*
X157154819Y-126852380D01*
X157154819Y-126852380D02*
X157107200Y-126995237D01*
X157107200Y-126995237D02*
X157011961Y-127090475D01*
X157011961Y-127090475D02*
X156916723Y-127138094D01*
X156916723Y-127138094D02*
X156726247Y-127185713D01*
X156726247Y-127185713D02*
X156583390Y-127185713D01*
X156583390Y-127185713D02*
X156392914Y-127138094D01*
X156392914Y-127138094D02*
X156297676Y-127090475D01*
X156297676Y-127090475D02*
X156202438Y-126995237D01*
X156202438Y-126995237D02*
X156154819Y-126852380D01*
X156154819Y-126852380D02*
X156154819Y-126757142D01*
X156154819Y-126757142D02*
X156202438Y-126614285D01*
X156202438Y-126614285D02*
X156250057Y-126566666D01*
X156154819Y-126233332D02*
X156154819Y-125566666D01*
X156154819Y-125566666D02*
X157154819Y-125995237D01*
X146033333Y-126059580D02*
X145985714Y-126107200D01*
X145985714Y-126107200D02*
X145842857Y-126154819D01*
X145842857Y-126154819D02*
X145747619Y-126154819D01*
X145747619Y-126154819D02*
X145604762Y-126107200D01*
X145604762Y-126107200D02*
X145509524Y-126011961D01*
X145509524Y-126011961D02*
X145461905Y-125916723D01*
X145461905Y-125916723D02*
X145414286Y-125726247D01*
X145414286Y-125726247D02*
X145414286Y-125583390D01*
X145414286Y-125583390D02*
X145461905Y-125392914D01*
X145461905Y-125392914D02*
X145509524Y-125297676D01*
X145509524Y-125297676D02*
X145604762Y-125202438D01*
X145604762Y-125202438D02*
X145747619Y-125154819D01*
X145747619Y-125154819D02*
X145842857Y-125154819D01*
X145842857Y-125154819D02*
X145985714Y-125202438D01*
X145985714Y-125202438D02*
X146033333Y-125250057D01*
X146985714Y-126154819D02*
X146414286Y-126154819D01*
X146700000Y-126154819D02*
X146700000Y-125154819D01*
X146700000Y-125154819D02*
X146604762Y-125297676D01*
X146604762Y-125297676D02*
X146509524Y-125392914D01*
X146509524Y-125392914D02*
X146414286Y-125440533D01*
X157824819Y-103283333D02*
X158539104Y-103283333D01*
X158539104Y-103283333D02*
X158681961Y-103330952D01*
X158681961Y-103330952D02*
X158777200Y-103426190D01*
X158777200Y-103426190D02*
X158824819Y-103569047D01*
X158824819Y-103569047D02*
X158824819Y-103664285D01*
X157824819Y-102330952D02*
X157824819Y-102807142D01*
X157824819Y-102807142D02*
X158301009Y-102854761D01*
X158301009Y-102854761D02*
X158253390Y-102807142D01*
X158253390Y-102807142D02*
X158205771Y-102711904D01*
X158205771Y-102711904D02*
X158205771Y-102473809D01*
X158205771Y-102473809D02*
X158253390Y-102378571D01*
X158253390Y-102378571D02*
X158301009Y-102330952D01*
X158301009Y-102330952D02*
X158396247Y-102283333D01*
X158396247Y-102283333D02*
X158634342Y-102283333D01*
X158634342Y-102283333D02*
X158729580Y-102330952D01*
X158729580Y-102330952D02*
X158777200Y-102378571D01*
X158777200Y-102378571D02*
X158824819Y-102473809D01*
X158824819Y-102473809D02*
X158824819Y-102711904D01*
X158824819Y-102711904D02*
X158777200Y-102807142D01*
X158777200Y-102807142D02*
X158729580Y-102854761D01*
X137239580Y-113992857D02*
X137287200Y-114040476D01*
X137287200Y-114040476D02*
X137334819Y-114183333D01*
X137334819Y-114183333D02*
X137334819Y-114278571D01*
X137334819Y-114278571D02*
X137287200Y-114421428D01*
X137287200Y-114421428D02*
X137191961Y-114516666D01*
X137191961Y-114516666D02*
X137096723Y-114564285D01*
X137096723Y-114564285D02*
X136906247Y-114611904D01*
X136906247Y-114611904D02*
X136763390Y-114611904D01*
X136763390Y-114611904D02*
X136572914Y-114564285D01*
X136572914Y-114564285D02*
X136477676Y-114516666D01*
X136477676Y-114516666D02*
X136382438Y-114421428D01*
X136382438Y-114421428D02*
X136334819Y-114278571D01*
X136334819Y-114278571D02*
X136334819Y-114183333D01*
X136334819Y-114183333D02*
X136382438Y-114040476D01*
X136382438Y-114040476D02*
X136430057Y-113992857D01*
X137334819Y-113040476D02*
X137334819Y-113611904D01*
X137334819Y-113326190D02*
X136334819Y-113326190D01*
X136334819Y-113326190D02*
X136477676Y-113421428D01*
X136477676Y-113421428D02*
X136572914Y-113516666D01*
X136572914Y-113516666D02*
X136620533Y-113611904D01*
X136334819Y-112421428D02*
X136334819Y-112326190D01*
X136334819Y-112326190D02*
X136382438Y-112230952D01*
X136382438Y-112230952D02*
X136430057Y-112183333D01*
X136430057Y-112183333D02*
X136525295Y-112135714D01*
X136525295Y-112135714D02*
X136715771Y-112088095D01*
X136715771Y-112088095D02*
X136953866Y-112088095D01*
X136953866Y-112088095D02*
X137144342Y-112135714D01*
X137144342Y-112135714D02*
X137239580Y-112183333D01*
X137239580Y-112183333D02*
X137287200Y-112230952D01*
X137287200Y-112230952D02*
X137334819Y-112326190D01*
X137334819Y-112326190D02*
X137334819Y-112421428D01*
X137334819Y-112421428D02*
X137287200Y-112516666D01*
X137287200Y-112516666D02*
X137239580Y-112564285D01*
X137239580Y-112564285D02*
X137144342Y-112611904D01*
X137144342Y-112611904D02*
X136953866Y-112659523D01*
X136953866Y-112659523D02*
X136715771Y-112659523D01*
X136715771Y-112659523D02*
X136525295Y-112611904D01*
X136525295Y-112611904D02*
X136430057Y-112564285D01*
X136430057Y-112564285D02*
X136382438Y-112516666D01*
X136382438Y-112516666D02*
X136334819Y-112421428D01*
X137239580Y-117316666D02*
X137287200Y-117364285D01*
X137287200Y-117364285D02*
X137334819Y-117507142D01*
X137334819Y-117507142D02*
X137334819Y-117602380D01*
X137334819Y-117602380D02*
X137287200Y-117745237D01*
X137287200Y-117745237D02*
X137191961Y-117840475D01*
X137191961Y-117840475D02*
X137096723Y-117888094D01*
X137096723Y-117888094D02*
X136906247Y-117935713D01*
X136906247Y-117935713D02*
X136763390Y-117935713D01*
X136763390Y-117935713D02*
X136572914Y-117888094D01*
X136572914Y-117888094D02*
X136477676Y-117840475D01*
X136477676Y-117840475D02*
X136382438Y-117745237D01*
X136382438Y-117745237D02*
X136334819Y-117602380D01*
X136334819Y-117602380D02*
X136334819Y-117507142D01*
X136334819Y-117507142D02*
X136382438Y-117364285D01*
X136382438Y-117364285D02*
X136430057Y-117316666D01*
X137334819Y-116840475D02*
X137334819Y-116649999D01*
X137334819Y-116649999D02*
X137287200Y-116554761D01*
X137287200Y-116554761D02*
X137239580Y-116507142D01*
X137239580Y-116507142D02*
X137096723Y-116411904D01*
X137096723Y-116411904D02*
X136906247Y-116364285D01*
X136906247Y-116364285D02*
X136525295Y-116364285D01*
X136525295Y-116364285D02*
X136430057Y-116411904D01*
X136430057Y-116411904D02*
X136382438Y-116459523D01*
X136382438Y-116459523D02*
X136334819Y-116554761D01*
X136334819Y-116554761D02*
X136334819Y-116745237D01*
X136334819Y-116745237D02*
X136382438Y-116840475D01*
X136382438Y-116840475D02*
X136430057Y-116888094D01*
X136430057Y-116888094D02*
X136525295Y-116935713D01*
X136525295Y-116935713D02*
X136763390Y-116935713D01*
X136763390Y-116935713D02*
X136858628Y-116888094D01*
X136858628Y-116888094D02*
X136906247Y-116840475D01*
X136906247Y-116840475D02*
X136953866Y-116745237D01*
X136953866Y-116745237D02*
X136953866Y-116554761D01*
X136953866Y-116554761D02*
X136906247Y-116459523D01*
X136906247Y-116459523D02*
X136858628Y-116411904D01*
X136858628Y-116411904D02*
X136763390Y-116364285D01*
X158834819Y-116183333D02*
X159549104Y-116183333D01*
X159549104Y-116183333D02*
X159691961Y-116230952D01*
X159691961Y-116230952D02*
X159787200Y-116326190D01*
X159787200Y-116326190D02*
X159834819Y-116469047D01*
X159834819Y-116469047D02*
X159834819Y-116564285D01*
X159834819Y-115183333D02*
X159834819Y-115754761D01*
X159834819Y-115469047D02*
X158834819Y-115469047D01*
X158834819Y-115469047D02*
X158977676Y-115564285D01*
X158977676Y-115564285D02*
X159072914Y-115659523D01*
X159072914Y-115659523D02*
X159120533Y-115754761D01*
X126493819Y-131732333D02*
X127208104Y-131732333D01*
X127208104Y-131732333D02*
X127350961Y-131779952D01*
X127350961Y-131779952D02*
X127446200Y-131875190D01*
X127446200Y-131875190D02*
X127493819Y-132018047D01*
X127493819Y-132018047D02*
X127493819Y-132113285D01*
X126493819Y-130827571D02*
X126493819Y-131018047D01*
X126493819Y-131018047D02*
X126541438Y-131113285D01*
X126541438Y-131113285D02*
X126589057Y-131160904D01*
X126589057Y-131160904D02*
X126731914Y-131256142D01*
X126731914Y-131256142D02*
X126922390Y-131303761D01*
X126922390Y-131303761D02*
X127303342Y-131303761D01*
X127303342Y-131303761D02*
X127398580Y-131256142D01*
X127398580Y-131256142D02*
X127446200Y-131208523D01*
X127446200Y-131208523D02*
X127493819Y-131113285D01*
X127493819Y-131113285D02*
X127493819Y-130922809D01*
X127493819Y-130922809D02*
X127446200Y-130827571D01*
X127446200Y-130827571D02*
X127398580Y-130779952D01*
X127398580Y-130779952D02*
X127303342Y-130732333D01*
X127303342Y-130732333D02*
X127065247Y-130732333D01*
X127065247Y-130732333D02*
X126970009Y-130779952D01*
X126970009Y-130779952D02*
X126922390Y-130827571D01*
X126922390Y-130827571D02*
X126874771Y-130922809D01*
X126874771Y-130922809D02*
X126874771Y-131113285D01*
X126874771Y-131113285D02*
X126922390Y-131208523D01*
X126922390Y-131208523D02*
X126970009Y-131256142D01*
X126970009Y-131256142D02*
X127065247Y-131303761D01*
X152233333Y-116459580D02*
X152185714Y-116507200D01*
X152185714Y-116507200D02*
X152042857Y-116554819D01*
X152042857Y-116554819D02*
X151947619Y-116554819D01*
X151947619Y-116554819D02*
X151804762Y-116507200D01*
X151804762Y-116507200D02*
X151709524Y-116411961D01*
X151709524Y-116411961D02*
X151661905Y-116316723D01*
X151661905Y-116316723D02*
X151614286Y-116126247D01*
X151614286Y-116126247D02*
X151614286Y-115983390D01*
X151614286Y-115983390D02*
X151661905Y-115792914D01*
X151661905Y-115792914D02*
X151709524Y-115697676D01*
X151709524Y-115697676D02*
X151804762Y-115602438D01*
X151804762Y-115602438D02*
X151947619Y-115554819D01*
X151947619Y-115554819D02*
X152042857Y-115554819D01*
X152042857Y-115554819D02*
X152185714Y-115602438D01*
X152185714Y-115602438D02*
X152233333Y-115650057D01*
X152566667Y-115554819D02*
X153185714Y-115554819D01*
X153185714Y-115554819D02*
X152852381Y-115935771D01*
X152852381Y-115935771D02*
X152995238Y-115935771D01*
X152995238Y-115935771D02*
X153090476Y-115983390D01*
X153090476Y-115983390D02*
X153138095Y-116031009D01*
X153138095Y-116031009D02*
X153185714Y-116126247D01*
X153185714Y-116126247D02*
X153185714Y-116364342D01*
X153185714Y-116364342D02*
X153138095Y-116459580D01*
X153138095Y-116459580D02*
X153090476Y-116507200D01*
X153090476Y-116507200D02*
X152995238Y-116554819D01*
X152995238Y-116554819D02*
X152709524Y-116554819D01*
X152709524Y-116554819D02*
X152614286Y-116507200D01*
X152614286Y-116507200D02*
X152566667Y-116459580D01*
X148808333Y-124259580D02*
X148760714Y-124307200D01*
X148760714Y-124307200D02*
X148617857Y-124354819D01*
X148617857Y-124354819D02*
X148522619Y-124354819D01*
X148522619Y-124354819D02*
X148379762Y-124307200D01*
X148379762Y-124307200D02*
X148284524Y-124211961D01*
X148284524Y-124211961D02*
X148236905Y-124116723D01*
X148236905Y-124116723D02*
X148189286Y-123926247D01*
X148189286Y-123926247D02*
X148189286Y-123783390D01*
X148189286Y-123783390D02*
X148236905Y-123592914D01*
X148236905Y-123592914D02*
X148284524Y-123497676D01*
X148284524Y-123497676D02*
X148379762Y-123402438D01*
X148379762Y-123402438D02*
X148522619Y-123354819D01*
X148522619Y-123354819D02*
X148617857Y-123354819D01*
X148617857Y-123354819D02*
X148760714Y-123402438D01*
X148760714Y-123402438D02*
X148808333Y-123450057D01*
X149189286Y-123450057D02*
X149236905Y-123402438D01*
X149236905Y-123402438D02*
X149332143Y-123354819D01*
X149332143Y-123354819D02*
X149570238Y-123354819D01*
X149570238Y-123354819D02*
X149665476Y-123402438D01*
X149665476Y-123402438D02*
X149713095Y-123450057D01*
X149713095Y-123450057D02*
X149760714Y-123545295D01*
X149760714Y-123545295D02*
X149760714Y-123640533D01*
X149760714Y-123640533D02*
X149713095Y-123783390D01*
X149713095Y-123783390D02*
X149141667Y-124354819D01*
X149141667Y-124354819D02*
X149760714Y-124354819D01*
X143883333Y-106309580D02*
X143835714Y-106357200D01*
X143835714Y-106357200D02*
X143692857Y-106404819D01*
X143692857Y-106404819D02*
X143597619Y-106404819D01*
X143597619Y-106404819D02*
X143454762Y-106357200D01*
X143454762Y-106357200D02*
X143359524Y-106261961D01*
X143359524Y-106261961D02*
X143311905Y-106166723D01*
X143311905Y-106166723D02*
X143264286Y-105976247D01*
X143264286Y-105976247D02*
X143264286Y-105833390D01*
X143264286Y-105833390D02*
X143311905Y-105642914D01*
X143311905Y-105642914D02*
X143359524Y-105547676D01*
X143359524Y-105547676D02*
X143454762Y-105452438D01*
X143454762Y-105452438D02*
X143597619Y-105404819D01*
X143597619Y-105404819D02*
X143692857Y-105404819D01*
X143692857Y-105404819D02*
X143835714Y-105452438D01*
X143835714Y-105452438D02*
X143883333Y-105500057D01*
X144740476Y-105738152D02*
X144740476Y-106404819D01*
X144502381Y-105357200D02*
X144264286Y-106071485D01*
X144264286Y-106071485D02*
X144883333Y-106071485D01*
X136020833Y-106904819D02*
X135687500Y-106428628D01*
X135449405Y-106904819D02*
X135449405Y-105904819D01*
X135449405Y-105904819D02*
X135830357Y-105904819D01*
X135830357Y-105904819D02*
X135925595Y-105952438D01*
X135925595Y-105952438D02*
X135973214Y-106000057D01*
X135973214Y-106000057D02*
X136020833Y-106095295D01*
X136020833Y-106095295D02*
X136020833Y-106238152D01*
X136020833Y-106238152D02*
X135973214Y-106333390D01*
X135973214Y-106333390D02*
X135925595Y-106381009D01*
X135925595Y-106381009D02*
X135830357Y-106428628D01*
X135830357Y-106428628D02*
X135449405Y-106428628D01*
X136925595Y-105904819D02*
X136449405Y-105904819D01*
X136449405Y-105904819D02*
X136401786Y-106381009D01*
X136401786Y-106381009D02*
X136449405Y-106333390D01*
X136449405Y-106333390D02*
X136544643Y-106285771D01*
X136544643Y-106285771D02*
X136782738Y-106285771D01*
X136782738Y-106285771D02*
X136877976Y-106333390D01*
X136877976Y-106333390D02*
X136925595Y-106381009D01*
X136925595Y-106381009D02*
X136973214Y-106476247D01*
X136973214Y-106476247D02*
X136973214Y-106714342D01*
X136973214Y-106714342D02*
X136925595Y-106809580D01*
X136925595Y-106809580D02*
X136877976Y-106857200D01*
X136877976Y-106857200D02*
X136782738Y-106904819D01*
X136782738Y-106904819D02*
X136544643Y-106904819D01*
X136544643Y-106904819D02*
X136449405Y-106857200D01*
X136449405Y-106857200D02*
X136401786Y-106809580D01*
X125794819Y-125879166D02*
X125318628Y-126212499D01*
X125794819Y-126450594D02*
X124794819Y-126450594D01*
X124794819Y-126450594D02*
X124794819Y-126069642D01*
X124794819Y-126069642D02*
X124842438Y-125974404D01*
X124842438Y-125974404D02*
X124890057Y-125926785D01*
X124890057Y-125926785D02*
X124985295Y-125879166D01*
X124985295Y-125879166D02*
X125128152Y-125879166D01*
X125128152Y-125879166D02*
X125223390Y-125926785D01*
X125223390Y-125926785D02*
X125271009Y-125974404D01*
X125271009Y-125974404D02*
X125318628Y-126069642D01*
X125318628Y-126069642D02*
X125318628Y-126450594D01*
X125223390Y-125307737D02*
X125175771Y-125402975D01*
X125175771Y-125402975D02*
X125128152Y-125450594D01*
X125128152Y-125450594D02*
X125032914Y-125498213D01*
X125032914Y-125498213D02*
X124985295Y-125498213D01*
X124985295Y-125498213D02*
X124890057Y-125450594D01*
X124890057Y-125450594D02*
X124842438Y-125402975D01*
X124842438Y-125402975D02*
X124794819Y-125307737D01*
X124794819Y-125307737D02*
X124794819Y-125117261D01*
X124794819Y-125117261D02*
X124842438Y-125022023D01*
X124842438Y-125022023D02*
X124890057Y-124974404D01*
X124890057Y-124974404D02*
X124985295Y-124926785D01*
X124985295Y-124926785D02*
X125032914Y-124926785D01*
X125032914Y-124926785D02*
X125128152Y-124974404D01*
X125128152Y-124974404D02*
X125175771Y-125022023D01*
X125175771Y-125022023D02*
X125223390Y-125117261D01*
X125223390Y-125117261D02*
X125223390Y-125307737D01*
X125223390Y-125307737D02*
X125271009Y-125402975D01*
X125271009Y-125402975D02*
X125318628Y-125450594D01*
X125318628Y-125450594D02*
X125413866Y-125498213D01*
X125413866Y-125498213D02*
X125604342Y-125498213D01*
X125604342Y-125498213D02*
X125699580Y-125450594D01*
X125699580Y-125450594D02*
X125747200Y-125402975D01*
X125747200Y-125402975D02*
X125794819Y-125307737D01*
X125794819Y-125307737D02*
X125794819Y-125117261D01*
X125794819Y-125117261D02*
X125747200Y-125022023D01*
X125747200Y-125022023D02*
X125699580Y-124974404D01*
X125699580Y-124974404D02*
X125604342Y-124926785D01*
X125604342Y-124926785D02*
X125413866Y-124926785D01*
X125413866Y-124926785D02*
X125318628Y-124974404D01*
X125318628Y-124974404D02*
X125271009Y-125022023D01*
X125271009Y-125022023D02*
X125223390Y-125117261D01*
X158057200Y-108483332D02*
X158104819Y-108340475D01*
X158104819Y-108340475D02*
X158104819Y-108102380D01*
X158104819Y-108102380D02*
X158057200Y-108007142D01*
X158057200Y-108007142D02*
X158009580Y-107959523D01*
X158009580Y-107959523D02*
X157914342Y-107911904D01*
X157914342Y-107911904D02*
X157819104Y-107911904D01*
X157819104Y-107911904D02*
X157723866Y-107959523D01*
X157723866Y-107959523D02*
X157676247Y-108007142D01*
X157676247Y-108007142D02*
X157628628Y-108102380D01*
X157628628Y-108102380D02*
X157581009Y-108292856D01*
X157581009Y-108292856D02*
X157533390Y-108388094D01*
X157533390Y-108388094D02*
X157485771Y-108435713D01*
X157485771Y-108435713D02*
X157390533Y-108483332D01*
X157390533Y-108483332D02*
X157295295Y-108483332D01*
X157295295Y-108483332D02*
X157200057Y-108435713D01*
X157200057Y-108435713D02*
X157152438Y-108388094D01*
X157152438Y-108388094D02*
X157104819Y-108292856D01*
X157104819Y-108292856D02*
X157104819Y-108054761D01*
X157104819Y-108054761D02*
X157152438Y-107911904D01*
X157104819Y-107578570D02*
X158104819Y-107340475D01*
X158104819Y-107340475D02*
X157390533Y-107149999D01*
X157390533Y-107149999D02*
X158104819Y-106959523D01*
X158104819Y-106959523D02*
X157104819Y-106721428D01*
X157200057Y-106388094D02*
X157152438Y-106340475D01*
X157152438Y-106340475D02*
X157104819Y-106245237D01*
X157104819Y-106245237D02*
X157104819Y-106007142D01*
X157104819Y-106007142D02*
X157152438Y-105911904D01*
X157152438Y-105911904D02*
X157200057Y-105864285D01*
X157200057Y-105864285D02*
X157295295Y-105816666D01*
X157295295Y-105816666D02*
X157390533Y-105816666D01*
X157390533Y-105816666D02*
X157533390Y-105864285D01*
X157533390Y-105864285D02*
X158104819Y-106435713D01*
X158104819Y-106435713D02*
X158104819Y-105816666D01*
X140233333Y-120359580D02*
X140185714Y-120407200D01*
X140185714Y-120407200D02*
X140042857Y-120454819D01*
X140042857Y-120454819D02*
X139947619Y-120454819D01*
X139947619Y-120454819D02*
X139804762Y-120407200D01*
X139804762Y-120407200D02*
X139709524Y-120311961D01*
X139709524Y-120311961D02*
X139661905Y-120216723D01*
X139661905Y-120216723D02*
X139614286Y-120026247D01*
X139614286Y-120026247D02*
X139614286Y-119883390D01*
X139614286Y-119883390D02*
X139661905Y-119692914D01*
X139661905Y-119692914D02*
X139709524Y-119597676D01*
X139709524Y-119597676D02*
X139804762Y-119502438D01*
X139804762Y-119502438D02*
X139947619Y-119454819D01*
X139947619Y-119454819D02*
X140042857Y-119454819D01*
X140042857Y-119454819D02*
X140185714Y-119502438D01*
X140185714Y-119502438D02*
X140233333Y-119550057D01*
X141138095Y-119454819D02*
X140661905Y-119454819D01*
X140661905Y-119454819D02*
X140614286Y-119931009D01*
X140614286Y-119931009D02*
X140661905Y-119883390D01*
X140661905Y-119883390D02*
X140757143Y-119835771D01*
X140757143Y-119835771D02*
X140995238Y-119835771D01*
X140995238Y-119835771D02*
X141090476Y-119883390D01*
X141090476Y-119883390D02*
X141138095Y-119931009D01*
X141138095Y-119931009D02*
X141185714Y-120026247D01*
X141185714Y-120026247D02*
X141185714Y-120264342D01*
X141185714Y-120264342D02*
X141138095Y-120359580D01*
X141138095Y-120359580D02*
X141090476Y-120407200D01*
X141090476Y-120407200D02*
X140995238Y-120454819D01*
X140995238Y-120454819D02*
X140757143Y-120454819D01*
X140757143Y-120454819D02*
X140661905Y-120407200D01*
X140661905Y-120407200D02*
X140614286Y-120359580D01*
%TO.C,R4*%
D11*
X146365000Y-109160436D02*
X146365000Y-109614564D01*
X147835000Y-109160436D02*
X147835000Y-109614564D01*
%TO.C,J4*%
X149280000Y-132580000D02*
X149280000Y-131200000D01*
X150660000Y-132580000D02*
X149280000Y-132580000D01*
X151930000Y-129820000D02*
X157120000Y-129820000D01*
X151930000Y-132580000D02*
X151930000Y-129820000D01*
X151930000Y-132580000D02*
X157120000Y-132580000D01*
X157120000Y-132580000D02*
X157120000Y-129820000D01*
%TO.C,J3*%
X136400000Y-130020000D02*
X136400000Y-132780000D01*
X144130000Y-130020000D02*
X136400000Y-130020000D01*
X144130000Y-130020000D02*
X144130000Y-132780000D01*
X144130000Y-132780000D02*
X136400000Y-132780000D01*
X145400000Y-130020000D02*
X146780000Y-130020000D01*
X146780000Y-130020000D02*
X146780000Y-131400000D01*
%TO.C,Y1*%
X130040000Y-112490000D02*
X130040000Y-118360000D01*
X130040000Y-118360000D02*
X133760000Y-118360000D01*
X133760000Y-118360000D02*
X133760000Y-112490000D01*
%TO.C,C8*%
X120590000Y-108265580D02*
X120590000Y-107984420D01*
X121610000Y-108265580D02*
X121610000Y-107984420D01*
%TO.C,R9*%
X119155000Y-125385436D02*
X119155000Y-125839564D01*
X120625000Y-125385436D02*
X120625000Y-125839564D01*
%TO.C,D1*%
X118765000Y-119100000D02*
X118765000Y-122985000D01*
X118765000Y-122985000D02*
X121035000Y-122985000D01*
X121035000Y-122985000D02*
X121035000Y-119100000D01*
%TO.C,R1*%
X155965000Y-113539564D02*
X155965000Y-113085436D01*
X157435000Y-113539564D02*
X157435000Y-113085436D01*
%TO.C,U2*%
X161152500Y-123990000D02*
X162972500Y-123990000D01*
X161152500Y-124040000D02*
X161152500Y-123990000D01*
X161152500Y-125940000D02*
X161152500Y-125160000D01*
X161152500Y-127110000D02*
X161152500Y-127060000D01*
X162972500Y-123990000D02*
X162972500Y-124040000D01*
X162972500Y-127060000D02*
X162972500Y-127110000D01*
X162972500Y-127110000D02*
X161152500Y-127110000D01*
X163512500Y-127060000D02*
X163752500Y-127390000D01*
X163272500Y-127390000D01*
X163512500Y-127060000D01*
G36*
X163752500Y-127390000D02*
G01*
X163272500Y-127390000D01*
X163512500Y-127060000D01*
X163752500Y-127390000D01*
G37*
%TO.C,D2*%
X122555000Y-119125000D02*
X122555000Y-123010000D01*
X122555000Y-123010000D02*
X124825000Y-123010000D01*
X124825000Y-123010000D02*
X124825000Y-119125000D01*
%TO.C,U1*%
X142790000Y-112690000D02*
X143265000Y-112690000D01*
X142790000Y-113165000D02*
X142790000Y-112690000D01*
X142790000Y-119910000D02*
X142790000Y-119435000D01*
X143265000Y-119910000D02*
X142790000Y-119910000D01*
X149535000Y-112690000D02*
X150010000Y-112690000D01*
X150010000Y-112690000D02*
X150010000Y-113165000D01*
X150010000Y-119435000D02*
X150010000Y-119910000D01*
X150010000Y-119910000D02*
X149535000Y-119910000D01*
X142260000Y-113550000D02*
X141930000Y-113790000D01*
X141930000Y-113310000D01*
X142260000Y-113550000D01*
G36*
X142260000Y-113550000D02*
G01*
X141930000Y-113790000D01*
X141930000Y-113310000D01*
X142260000Y-113550000D01*
G37*
%TO.C,R2*%
X155965000Y-117760436D02*
X155965000Y-118214564D01*
X157435000Y-117760436D02*
X157435000Y-118214564D01*
%TO.C,R7*%
X155260436Y-109365000D02*
X155714564Y-109365000D01*
X155260436Y-110835000D02*
X155714564Y-110835000D01*
%TO.C,SW1*%
X124880000Y-106100000D02*
X124880000Y-103900000D01*
X125500000Y-101880000D02*
X130500000Y-101880000D01*
X125500000Y-108120000D02*
X130500000Y-108120000D01*
X131120000Y-103900000D02*
X131120000Y-106100000D01*
X129750000Y-105000000D02*
G75*
G02*
X126250000Y-105000000I-1750000J0D01*
G01*
X126250000Y-105000000D02*
G75*
G02*
X129750000Y-105000000I1750000J0D01*
G01*
%TO.C,J2*%
X133860000Y-101470000D02*
X133860000Y-104230000D01*
X144130000Y-101470000D02*
X133860000Y-101470000D01*
X144130000Y-101470000D02*
X144130000Y-104230000D01*
X144130000Y-104230000D02*
X133860000Y-104230000D01*
X145400000Y-101470000D02*
X146780000Y-101470000D01*
X146780000Y-101470000D02*
X146780000Y-102850000D01*
%TO.C,C6*%
X165152500Y-125415580D02*
X165152500Y-125134420D01*
X166172500Y-125415580D02*
X166172500Y-125134420D01*
%TO.C,C7*%
X157790000Y-126084420D02*
X157790000Y-126365580D01*
X158810000Y-126084420D02*
X158810000Y-126365580D01*
%TO.C,C1*%
X145465000Y-123511252D02*
X145465000Y-122988748D01*
X146935000Y-123511252D02*
X146935000Y-122988748D01*
%TO.C,J5*%
X149530000Y-101570000D02*
X149530000Y-104330000D01*
X154720000Y-101570000D02*
X149530000Y-101570000D01*
X154720000Y-101570000D02*
X154720000Y-104330000D01*
X154720000Y-104330000D02*
X149530000Y-104330000D01*
X155990000Y-101570000D02*
X157370000Y-101570000D01*
X157370000Y-101570000D02*
X157370000Y-102950000D01*
%TO.C,C10*%
X134465000Y-113088748D02*
X134465000Y-113611252D01*
X135935000Y-113088748D02*
X135935000Y-113611252D01*
%TO.C,C9*%
X134465000Y-116888748D02*
X134465000Y-117411252D01*
X135935000Y-116888748D02*
X135935000Y-117411252D01*
%TO.C,J1*%
X164780000Y-111180000D02*
X163080000Y-111180000D01*
X164780000Y-120520000D02*
X163080000Y-120520000D01*
%TO.C,J6*%
X127980000Y-132980000D02*
X127980000Y-131600000D01*
X129360000Y-132980000D02*
X127980000Y-132980000D01*
X130630000Y-130220000D02*
X133280000Y-130220000D01*
X130630000Y-132980000D02*
X130630000Y-130220000D01*
X130630000Y-132980000D02*
X133280000Y-132980000D01*
X133280000Y-132980000D02*
X133280000Y-130220000D01*
%TO.C,C3*%
X151890000Y-113634420D02*
X151890000Y-113915580D01*
X152910000Y-113634420D02*
X152910000Y-113915580D01*
%TO.C,C2*%
X149115580Y-121790000D02*
X148834420Y-121790000D01*
X149115580Y-122810000D02*
X148834420Y-122810000D01*
%TO.C,C4*%
X143784420Y-109790000D02*
X144065580Y-109790000D01*
X143784420Y-110810000D02*
X144065580Y-110810000D01*
%TO.C,R5*%
X135960436Y-107365000D02*
X136414564Y-107365000D01*
X135960436Y-108835000D02*
X136414564Y-108835000D01*
%TO.C,R8*%
X122955000Y-125485436D02*
X122955000Y-125939564D01*
X124425000Y-125485436D02*
X124425000Y-125939564D01*
%TO.C,SW2*%
X159680000Y-108000000D02*
X159680000Y-105800000D01*
X165300000Y-103780000D02*
X160300000Y-103780000D01*
X165300000Y-110020000D02*
X160300000Y-110020000D01*
X165920000Y-105800000D02*
X165920000Y-108000000D01*
X164550000Y-106900000D02*
G75*
G02*
X161050000Y-106900000I-1750000J0D01*
G01*
X161050000Y-106900000D02*
G75*
G02*
X164550000Y-106900000I1750000J0D01*
G01*
%TO.C,C5*%
X139990000Y-117865580D02*
X139990000Y-117584420D01*
X141010000Y-117865580D02*
X141010000Y-117584420D01*
%TD*%
M02*
